<svg width="24" height="24" viewBox="0 0 24 24" fill="none" xmlns="http://www.w3.org/2000/svg">
<path d="M19.4 17.5C19.4 17.7205 19.221 17.9 19 17.9H17.9V19C17.9 19.2205 17.721 19.4 17.5 19.4C17.279 19.4 17.1 19.221 17.1 19V17.9H16C15.7795 17.9 15.6 17.721 15.6 17.5C15.6 17.279 15.779 17.1 16 17.1H17.1V16C17.1 15.7795 17.279 15.6 17.5 15.6C17.721 15.6 17.9 15.779 17.9 16V17.1H19C19.2205 17.1 19.4 17.2795 19.4 17.5ZM21.9 17.5C21.9 19.9265 19.9265 21.9 17.5 21.9C15.0735 21.9 13.1 19.9265 13.1 17.5C13.1 15.0735 15.0735 13.1 17.5 13.1C19.9265 13.1 21.9 15.0735 21.9 17.5ZM21.1 17.5C21.1 15.515 19.485 13.9 17.5 13.9C15.515 13.9 13.9 15.515 13.9 17.5C13.9 19.485 15.515 21.1 17.5 21.1C19.485 21.1 21.1 19.485 21.1 17.5ZM8.01199 10.878C7.10749 9.9775 6.60599 8.7785 6.59999 7.502V6.58C6.68349 5.334 7.21999 4.204 8.11199 3.37C9.00399 2.536 10.168 2.0765 11.3895 2.0765C12.611 2.0765 13.775 2.5355 14.667 3.37C15.56 4.2045 16.0965 5.335 16.178 6.553L16.179 7.47C16.1625 8.746 15.6595 9.942 14.763 10.843C13.8655 11.7435 12.6715 12.252 11.4015 12.275C11.3995 12.275 11.397 12.275 11.3945 12.275C10.118 12.275 8.91649 11.779 8.01199 10.878ZM7.39999 7.5C7.40499 8.562 7.82299 9.561 8.57649 10.3115C9.32949 11.061 10.329 11.4745 11.3915 11.4755C12.4515 11.4555 13.4475 11.0305 14.1965 10.279C14.9455 9.5265 15.3655 8.527 15.3795 7.4655V6.5805C15.312 5.592 14.865 4.6505 14.121 3.955C13.377 3.2595 12.407 2.877 11.3895 2.877C10.372 2.877 9.40149 3.26 8.65849 3.955C7.91499 4.65 7.46749 5.5915 7.39899 6.6075L7.39999 7.5ZM3.52399 16.773C3.86699 16.3175 4.35649 15.9785 4.90349 15.819C6.96549 15.209 9.09949 14.9 11.2495 14.9C11.283 14.9 11.325 14.911 11.35 14.9C11.57 14.9 11.749 14.7225 11.75 14.502C11.751 14.281 11.573 14.101 11.352 14.1C9.08849 14.0655 6.84449 14.41 4.67799 15.051C3.96799 15.2585 3.33099 15.699 2.88499 16.2915C2.43999 16.884 2.19299 17.6175 2.19049 18.3595V21.5C2.19049 21.7205 2.36949 21.9 2.59049 21.9H11.35C11.571 21.9 11.75 21.721 11.75 21.5C11.75 21.279 11.571 21.1 11.35 21.1H2.98999V18.361C2.99199 17.792 3.18199 17.228 3.52399 16.773Z" fill="black"/>
</svg>
