<svg width="32" height="32" viewBox="0 0 32 32" fill="none" xmlns="http://www.w3.org/2000/svg">
<path d="M20.5776 25.6842H10.4224C8.54342 25.6842 7 24.1632 7 22.2842V19.779C7 17.0053 9.30395 14.7237 12.1224 14.7237H12.2342C12.3908 14.7237 12.525 14.7684 12.6592 14.8355C13.5316 15.3053 14.4934 15.5513 15.5 15.5513C16.5066 15.5513 17.4684 15.3053 18.3408 14.8355C18.475 14.7684 18.6316 14.7237 18.7658 14.7237H18.8776C21.6961 14.7237 24 17.0053 24 19.779V22.2842C24 24.1632 22.4566 25.6842 20.5776 25.6842ZM15.5 14.0526C13.1513 14.0526 11.25 12.1513 11.25 9.80264C11.25 7.45395 13.1513 5.55264 15.5 5.55264C17.8487 5.55264 19.75 7.45395 19.75 9.80264C19.75 12.1513 17.8487 14.0526 15.5 14.0526Z" fill="black"/>
</svg>
