<svg width="24" height="24" viewBox="0 0 24 24" fill="none" xmlns="http://www.w3.org/2000/svg">
<g clip-path="url(#clip0_1056_5904)">
<path d="M8.50391 3.65271V7.13369" stroke="black" stroke-width="1.5" stroke-linecap="round"/>
<path d="M15.4658 3.65271V7.13369" stroke="black" stroke-width="1.5" stroke-linecap="round"/>
<path d="M17.2064 5.39319H6.76344C5.32157 5.39319 4.15271 6.56205 4.15271 8.00392V17.5766C4.15271 19.0185 5.32157 20.1873 6.76344 20.1873H17.2064C18.6482 20.1873 19.8171 19.0185 19.8171 17.5766V8.00392C19.8171 6.56205 18.6482 5.39319 17.2064 5.39319Z" fill="black" stroke="black" stroke-width="1.5"/>
<path d="M3.5 10.1795H20.4611" stroke="white" stroke-width="1.5"/>
<path d="M8.50391 14.5307C8.98453 14.5307 9.37415 14.1411 9.37415 13.6605C9.37415 13.1798 8.98453 12.7902 8.50391 12.7902C8.02329 12.7902 7.63367 13.1798 7.63367 13.6605C7.63367 14.1411 8.02329 14.5307 8.50391 14.5307Z" fill="white"/>
<path d="M11.9849 14.5307C12.4655 14.5307 12.8551 14.1411 12.8551 13.6605C12.8551 13.1798 12.4655 12.7902 11.9849 12.7902C11.5042 12.7902 11.1146 13.1798 11.1146 13.6605C11.1146 14.1411 11.5042 14.5307 11.9849 14.5307Z" fill="white"/>
<path d="M15.4658 14.5307C15.9464 14.5307 16.3361 14.1411 16.3361 13.6605C16.3361 13.1798 15.9464 12.7902 15.4658 12.7902C14.9852 12.7902 14.5956 13.1798 14.5956 13.6605C14.5956 14.1411 14.9852 14.5307 15.4658 14.5307Z" fill="white"/>
<path d="M8.50391 18.0117C8.98453 18.0117 9.37415 17.6221 9.37415 17.1415C9.37415 16.6609 8.98453 16.2712 8.50391 16.2712C8.02329 16.2712 7.63367 16.6609 7.63367 17.1415C7.63367 17.6221 8.02329 18.0117 8.50391 18.0117Z" fill="white"/>
<path d="M11.9849 18.0117C12.4655 18.0117 12.8551 17.6221 12.8551 17.1415C12.8551 16.6609 12.4655 16.2712 11.9849 16.2712C11.5042 16.2712 11.1146 16.6609 11.1146 17.1415C11.1146 17.6221 11.5042 18.0117 11.9849 18.0117Z" fill="white"/>
</g>
<defs>
<clipPath id="clip0_1056_5904">
<rect width="16.9698" height="17.84" fill="white" transform="translate(3.5 3)"/>
</clipPath>
</defs>
</svg>
