<svg width="24" height="24" viewBox="0 0 24 24" fill="none" xmlns="http://www.w3.org/2000/svg">
<g clip-path="url(#clip0_1056_5903)">
<path d="M8.50388 7.78634C8.14708 7.78634 7.8512 7.49046 7.8512 7.13366V3.65268C7.8512 3.29588 8.14708 3 8.50388 3C8.86068 3 9.15656 3.29588 9.15656 3.65268V7.13366C9.15656 7.49046 8.86068 7.78634 8.50388 7.78634Z" fill="black"/>
<path d="M15.4659 7.78634C15.1091 7.78634 14.8132 7.49046 14.8132 7.13366V3.65268C14.8132 3.29588 15.1091 3 15.4659 3C15.8227 3 16.1186 3.29588 16.1186 3.65268V7.13366C16.1186 7.49046 15.8227 7.78634 15.4659 7.78634Z" fill="black"/>
<path d="M17.2063 20.84H6.76341C4.96201 20.84 3.5 19.378 3.5 17.5766V8.00389C3.5 6.20249 4.96201 4.74048 6.76341 4.74048H17.2063C19.0077 4.74048 20.4698 6.20249 20.4698 8.00389V17.5766C20.4698 19.378 19.0077 20.84 17.2063 20.84ZM6.76341 6.04584C5.68431 6.04584 4.80537 6.92479 4.80537 8.00389V17.5766C4.80537 18.6557 5.68431 19.5346 6.76341 19.5346H17.2063C18.2854 19.5346 19.1644 18.6557 19.1644 17.5766V8.00389C19.1644 6.92479 18.2854 6.04584 17.2063 6.04584H6.76341Z" fill="black"/>
<path d="M19.8171 9.52686H4.15271V10.8322H19.8171V9.52686Z" fill="black"/>
<path d="M8.50391 14.5307C8.98453 14.5307 9.37415 14.1411 9.37415 13.6605C9.37415 13.1798 8.98453 12.7902 8.50391 12.7902C8.02329 12.7902 7.63367 13.1798 7.63367 13.6605C7.63367 14.1411 8.02329 14.5307 8.50391 14.5307Z" fill="black"/>
<path d="M11.9849 14.5307C12.4655 14.5307 12.8551 14.1411 12.8551 13.6605C12.8551 13.1798 12.4655 12.7902 11.9849 12.7902C11.5042 12.7902 11.1146 13.1798 11.1146 13.6605C11.1146 14.1411 11.5042 14.5307 11.9849 14.5307Z" fill="black"/>
<path d="M15.4658 14.5307C15.9464 14.5307 16.3361 14.1411 16.3361 13.6605C16.3361 13.1798 15.9464 12.7902 15.4658 12.7902C14.9852 12.7902 14.5956 13.1798 14.5956 13.6605C14.5956 14.1411 14.9852 14.5307 15.4658 14.5307Z" fill="black"/>
<path d="M8.50391 18.0117C8.98453 18.0117 9.37415 17.6221 9.37415 17.1415C9.37415 16.6609 8.98453 16.2712 8.50391 16.2712C8.02329 16.2712 7.63367 16.6609 7.63367 17.1415C7.63367 17.6221 8.02329 18.0117 8.50391 18.0117Z" fill="black"/>
<path d="M11.9849 18.0117C12.4655 18.0117 12.8551 17.6221 12.8551 17.1415C12.8551 16.6609 12.4655 16.2712 11.9849 16.2712C11.5042 16.2712 11.1146 16.6609 11.1146 17.1415C11.1146 17.6221 11.5042 18.0117 11.9849 18.0117Z" fill="black"/>
</g>
<defs>
<clipPath id="clip0_1056_5903">
<rect width="16.9698" height="17.84" fill="white" transform="translate(3.5 3)"/>
</clipPath>
</defs>
</svg>
