<svg width="24" height="24" viewBox="0 0 24 24" fill="none" xmlns="http://www.w3.org/2000/svg">
<path d="M19.8 7.19999H17.509L15.947 4.07599C15.862 3.90699 15.689 3.79999 15.5 3.79999H8.59998C8.41098 3.79999 8.23798 3.90699 8.15298 4.07599L6.59098 7.19999H4.29998C3.12798 7.19999 2.09998 8.22799 2.09998 9.39999V18C2.09998 19.233 3.06598 20.2 4.29998 20.2H19.7C20.946 20.2 21.869 19.336 22 18V9.39999C22 8.16599 21.033 7.19999 19.8 7.19999ZM19.7 19.2H4.29998C3.54898 19.2 3.09998 18.59 3.09998 18V9.39999C3.09998 8.77199 3.67198 8.19999 4.29998 8.19999H6.89998C7.08898 8.19999 7.26198 8.09299 7.34698 7.92399L8.90898 4.79999H15.191L16.753 7.92399C16.838 8.09299 17.011 8.19999 17.2 8.19999H19.8C20.551 8.19999 21 8.80999 21 9.39999L21.003 17.95C20.926 18.722 20.427 19.2 19.7 19.2ZM12 8.99999C9.84998 8.99999 8.09998 10.75 8.09998 12.9C8.09998 15.051 9.84998 16.8 12 16.8C14.15 16.8 15.9 15.051 15.9 12.9C15.9 10.75 14.15 8.99999 12 8.99999ZM12 15.8C10.401 15.8 9.09998 14.499 9.09998 12.9C9.09998 11.301 10.401 9.99999 12 9.99999C13.6 9.99999 14.9 11.301 14.9 12.9C14.9 14.499 13.6 15.8 12 15.8Z" fill="#0D2A50"/>
</svg>
