<svg width="24" height="24" viewBox="0 0 24 24" fill="none" xmlns="http://www.w3.org/2000/svg">
<g clip-path="url(#clip0_854_6174)">
<path d="M17.54 3.95C17.06 3.95 16.6 4.02 16.16 4.17C15.37 2.84 13.93 2 12.33 2C10.64 2 9.14 2.94 8.38 4.39C7.79 4.11 7.14 3.96 6.47 3.96C4 3.95 2 5.95 2 8.42C2 10.19 3.04 11.76 4.61 12.48V19.5C4.61 20.89 5.73 22.01 7.12 22.01H16.89C18.28 22.01 19.4 20.89 19.4 19.5V12.48C20.97 11.76 22.01 10.19 22.01 8.42C22.01 5.96 20.01 3.96 17.55 3.96L17.54 3.95ZM9.29 15.26C9.29 15.56 9.04 15.81 8.74 15.81C8.44 15.81 8.19 15.56 8.19 15.26V13.31C8.19 13.01 8.44 12.76 8.74 12.76C9.04 12.76 9.29 13.01 9.29 13.31V15.26ZM12.55 15.91C12.55 16.21 12.3 16.46 12 16.46C11.7 16.46 11.45 16.21 11.45 15.91V13.96C11.45 13.66 11.7 13.41 12 13.41C12.3 13.41 12.55 13.66 12.55 13.96V15.91ZM15.81 15.26C15.81 15.56 15.56 15.81 15.26 15.81C14.96 15.81 14.71 15.56 14.71 15.26V13.31C14.71 13.01 14.96 12.76 15.26 12.76C15.56 12.76 15.81 13.01 15.81 13.31V15.26Z" fill="#16181A"/>
</g>
<defs>
<clipPath id="clip0_854_6174">
<rect width="20" height="20" fill="white" transform="translate(2 2)"/>
</clipPath>
</defs>
</svg>
