<svg width="24" height="24" viewBox="0 0 24 24" fill="none" xmlns="http://www.w3.org/2000/svg">
<path d="M20.254 19.547C20.449 19.742 20.449 20.059 20.254 20.254C20.156 20.352 20.028 20.4 19.9 20.4C19.772 20.4 19.644 20.351 19.546 20.254L12 12.707L4.45298 20.254C4.35598 20.352 4.22798 20.4 4.09998 20.4C3.97198 20.4 3.84398 20.351 3.74598 20.254C3.55098 20.059 3.55098 19.742 3.74598 19.547L11.293 12L3.74698 4.454C3.55198 4.259 3.55198 3.942 3.74698 3.747C3.94198 3.552 4.25898 3.552 4.45398 3.747L12 11.293L19.547 3.746C19.742 3.551 20.059 3.551 20.254 3.746C20.449 3.941 20.449 4.258 20.254 4.453L12.707 12L20.254 19.547Z" fill="black"/>
</svg>
