<svg width="24" height="24" viewBox="0 0 24 24" fill="none" xmlns="http://www.w3.org/2000/svg">
<path d="M14.1 12C14.1 13.16 13.16 14.1 12 14.1C10.84 14.1 9.9 13.16 9.9 12C9.9 10.84 10.84 9.9 12 9.9C13.16 9.9 14.1 10.84 14.1 12ZM4.6 9.9C3.44 9.9 2.5 10.84 2.5 12C2.5 13.16 3.44 14.1 4.6 14.1C5.76 14.1 6.7 13.16 6.7 12C6.7 10.84 5.76 9.9 4.6 9.9ZM19.4 9.9C18.24 9.9 17.3 10.84 17.3 12C17.3 13.16 18.24 14.1 19.4 14.1C20.56 14.1 21.5 13.16 21.5 12C21.5 10.84 20.56 9.9 19.4 9.9Z" fill="black"/>
</svg>
