<svg width="24" height="24" viewBox="0 0 24 24" fill="none" xmlns="http://www.w3.org/2000/svg">
<path d="M20.9625 3.3075C20.923 3.1795 20.8225 3.0795 20.6935 3.0415C20.4895 2.9805 15.7 1.5995 11.938 3.486C10.215 2.839 7.7255 2.899 6.327 4.297C6.231 4.393 6.1905 4.531 6.219 4.6635C6.2475 4.7965 6.341 4.9055 6.468 4.954C7.3465 5.2875 8.0995 5.897 8.6095 6.6825C6.3705 10.3575 6.9235 14.579 7.189 15.9565L2.831 16.4375C2.678 16.454 2.5485 16.557 2.4975 16.7025C2.4465 16.8475 2.4835 17.0085 2.592 17.1175L6.857 21.3825C6.9335 21.4595 7.0355 21.5 7.14 21.5C7.1845 21.5 7.229 21.4925 7.2725 21.4775C7.4175 21.4265 7.5205 21.2975 7.5375 21.1445L8.023 16.7955C8.582 16.9045 9.6135 17.0625 10.8855 17.0625C13.301 17.0625 16.584 16.491 19.1485 13.927C22.989 10.0815 21.047 3.5825 20.9625 3.3075ZM6.8345 20.229L3.7465 17.141L7.222 16.7575L6.8345 20.229ZM18.5825 13.3625C14.837 17.107 9.223 16.2205 8.0105 15.975C7.7955 14.918 7.095 10.511 9.4165 6.902C9.4975 6.7765 9.5015 6.616 9.427 6.486C8.9395 5.639 8.221 4.946 7.366 4.4865C8.536 3.7425 10.3095 3.7475 11.618 4.229C12.0615 6.586 12.8895 8.281 14.2865 9.6775C15.654 11.1005 17.3715 12.071 19.2785 12.518C19.072 12.8105 18.848 13.0965 18.5825 13.3625ZM19.7225 11.795C17.861 11.4135 16.1845 10.4975 14.858 9.117C13.59 7.8495 12.8335 6.303 12.418 4.1505C15.4565 2.699 19.318 3.518 20.2555 3.753C20.502 4.705 21.371 8.69 19.7225 11.795ZM17.415 5.615C17.415 6.1555 16.9755 6.595 16.435 6.595C15.8945 6.595 15.455 6.1555 15.455 5.615C15.455 5.0745 15.8945 4.635 16.435 4.635C16.9755 4.635 17.415 5.0745 17.415 5.615Z" fill="#16181A"/>
</svg>
