<svg width="24" height="24" viewBox="0 0 24 24" fill="none" xmlns="http://www.w3.org/2000/svg">
<path d="M21.5 14.31L21.27 13.39L17.36 14.37L12.99 12L17.36 9.63L21.26 10.61L21.49 9.69L18.59 8.96L20.95 7.68L20.5 6.84L18.1 8.15L18.87 5.44L17.97 5.18L16.95 8.78L12.47 11.21V6.46L15.28 3.82L14.64 3.12L12.47 5.16V2.5H11.53V5.16L9.36 3.12L8.72 3.82L11.53 6.46V11.21L7.05 8.78L6.03 5.18L5.13 5.44L5.9 8.15L3.5 6.84L3.05 7.68L5.41 8.96L2.51 9.69L2.74 10.61L6.64 9.63L11.01 12L6.64 14.37L2.73 13.39L2.5 14.31L5.4 15.04L3.05 16.32L3.5 17.16L5.89 15.86L5.12 18.56L6.02 18.82L7.04 15.23L11.53 12.79V17.54L8.72 20.18L9.36 20.88L11.53 18.84V21.5H12.47V18.84L14.65 20.88L15.28 20.18L12.47 17.54V12.79L16.96 15.23L17.98 18.82L18.88 18.56L18.11 15.86L20.5 17.16L20.95 16.32L18.6 15.04L21.5 14.31Z" fill="#0D2A50"/>
</svg>
