<svg width="24" height="24" viewBox="0 0 24 24" fill="none" xmlns="http://www.w3.org/2000/svg">
<path d="M17 11.1667V7C17 6.55798 16.8244 6.13405 16.5119 5.82149C16.1993 5.50893 15.7754 5.33334 15.3334 5.33334C14.8913 5.33334 14.4674 5.50893 14.1548 5.82149C13.8423 6.13405 13.6667 6.55798 13.6667 7" stroke="black" stroke-linecap="round" stroke-linejoin="round"/>
<path d="M13.6666 10.3333V5.33333C13.6666 4.8913 13.4911 4.46738 13.1785 4.15482C12.8659 3.84226 12.442 3.66666 12 3.66666C11.558 3.66666 11.134 3.84226 10.8215 4.15482C10.5089 4.46738 10.3333 4.8913 10.3333 5.33333V7" stroke="black" stroke-linecap="round" stroke-linejoin="round"/>
<path d="M10.3333 10.75V7C10.3333 6.55798 10.1577 6.13405 9.84518 5.82149C9.53262 5.50893 9.10869 5.33334 8.66667 5.33334C8.22464 5.33334 7.80072 5.50893 7.48816 5.82149C7.17559 6.13405 7 6.55798 7 7V13.6667" stroke="black" stroke-linecap="round" stroke-linejoin="round"/>
<path d="M17 8.66667C17 8.22464 17.1756 7.80072 17.4881 7.48816C17.8007 7.17559 18.2246 7 18.6667 7C19.1087 7 19.5326 7.17559 19.8452 7.48816C20.1577 7.80072 20.3333 8.22464 20.3333 8.66667V13.6667C20.3333 15.4348 19.6309 17.1305 18.3807 18.3807C17.1305 19.631 15.4348 20.3333 13.6667 20.3333H12C9.66665 20.3333 8.24998 19.6167 7.00832 18.3833L4.00832 15.3833C3.7216 15.0658 3.56797 14.6501 3.57925 14.2225C3.59054 13.7948 3.76586 13.3878 4.06892 13.0858C4.37198 12.7838 4.77957 12.6099 5.20729 12.6002C5.63502 12.5904 6.05012 12.7455 6.36665 13.0333L7.83332 14.5" stroke="black" stroke-linecap="round" stroke-linejoin="round"/>
</svg>
