<svg width="24" height="24" viewBox="0 0 24 24" fill="none" xmlns="http://www.w3.org/2000/svg">
<g clip-path="url(#clip0_1152_10378)">
<path fill-rule="evenodd" clip-rule="evenodd" d="M3.67001 12.7972C2.56001 11.6429 1.99001 10.2127 2.00001 8.69053C2.01001 7.16839 2.60001 5.74841 3.67001 4.67577C4.26001 4.08326 4.99001 3.61334 5.78001 3.3273C6.56001 3.05148 7.41001 2.94932 8.24001 3.03105C9.07001 3.11277 9.89001 3.3886 10.6 3.82787C11.12 4.14455 11.6 4.55318 12 5.0231C12.4 4.55318 12.87 4.14455 13.4 3.82787C14.11 3.3886 14.93 3.12299 15.76 3.03105C16.59 2.94932 17.44 3.05148 18.23 3.33752C19.01 3.62356 19.75 4.09348 20.35 4.68599L20.41 4.74728C21.45 5.83014 22.02 7.27055 22.01 8.78247C22 10.3046 21.41 11.7246 20.34 12.7972L12.36 20.8574C12.26 20.9595 12.13 21.0004 12.01 21.0004C11.89 21.0004 11.76 20.9493 11.66 20.8574" fill="black"/>
</g>
<defs>
<clipPath id="clip0_1152_10378">
<rect width="20.125" height="17.8889" fill="white" transform="translate(2 3)"/>
</clipPath>
</defs>
</svg>
