<svg width="24" height="24" viewBox="0 0 24 24" fill="none" xmlns="http://www.w3.org/2000/svg">
<g clip-path="url(#clip0_876_5980)">
<path d="M17.4 11.1005V19.5005C17.4 20.3299 16.728 21 15.9005 21H4.49952C3.67008 21 3 20.328 3 19.5005V8.70048C3 7.87104 3.672 7.20096 4.49952 7.20096H12.6C12.7651 7.20096 12.8995 7.33536 12.8995 7.50048C12.8995 7.6656 12.7651 7.8 12.6 7.8H4.49952C4.00224 7.8 3.59904 8.2032 3.59904 8.70048V19.5005C3.59904 19.9978 4.00224 20.401 4.49952 20.401H15.9005C16.3978 20.401 16.801 19.9978 16.801 19.5005V11.1005C16.801 10.9354 16.9354 10.801 17.1005 10.801C17.2656 10.801 17.4 10.9354 17.4 11.1005ZM14.401 9.29952H5.4C5.23488 9.29952 5.10048 9.43392 5.10048 9.59904V16.4995L8.16096 12.4195C8.27424 12.2678 8.52768 12.2678 8.64096 12.4195L11.304 15.9696L12.9475 13.3411C13.0646 13.153 13.3392 13.153 13.4563 13.3411L15.3014 16.2941V10.2C15.3014 10.0349 15.4358 9.90048 15.601 9.90048C15.7661 9.90048 15.9005 10.0349 15.9005 10.2V18.6C15.9005 19.0973 15.4973 19.5005 15 19.5005H5.4C4.90272 19.5005 4.49952 19.0973 4.49952 18.6V9.59904C4.49952 9.10176 4.90272 8.69856 5.4 8.69856H14.401C14.5661 8.69856 14.7005 8.83296 14.7005 8.99808C14.7005 9.1632 14.5661 9.2976 14.401 9.2976V9.29952ZM5.10048 17.4998V18.6C5.10048 18.7651 5.23488 18.8995 5.4 18.8995H15C15.1651 18.8995 15.2995 18.7651 15.2995 18.6V17.425L13.199 14.065L10.9066 17.7341C10.8182 17.8742 10.6339 17.9184 10.4938 17.8301C10.3536 17.7418 10.3114 17.5574 10.3978 17.4173L10.9622 16.5149L8.40096 13.1011L5.10048 17.4998ZM11.4115 9.80832C12.239 9.80832 12.911 10.4803 12.911 11.3078C12.911 12.1354 12.239 12.8074 11.4115 12.8074C10.584 12.8074 9.912 12.1354 9.912 11.3078C9.912 10.4803 10.584 9.80832 11.4115 9.80832ZM11.4115 10.4074C10.9142 10.4074 10.511 10.8106 10.511 11.3078C10.511 11.8051 10.9142 12.2083 11.4115 12.2083C11.9088 12.2083 12.312 11.8051 12.312 11.3078C12.312 10.8106 11.9088 10.4074 11.4115 10.4074ZM21 4.40352C21 4.51296 20.9405 4.61472 20.8445 4.66656L20.5162 4.84512C20.3146 4.95456 20.1494 5.11968 20.04 5.32128L19.8614 5.64768C19.8096 5.74368 19.7078 5.8032 19.5984 5.8032C19.489 5.8032 19.3891 5.74368 19.3354 5.64768L19.1568 5.31936C19.0474 5.11776 18.8822 4.95264 18.6806 4.8432L18.3542 4.66464C18.2582 4.6128 18.1987 4.51104 18.1987 4.4016C18.1987 4.29216 18.2582 4.1904 18.3542 4.13856L18.6826 3.96C18.8842 3.85056 19.0493 3.68544 19.1587 3.48384L19.3373 3.15552C19.3891 3.05952 19.4909 3 19.6003 3C19.7098 3 19.8115 3.05952 19.8634 3.15552L20.0419 3.48384C20.1514 3.68544 20.3165 3.85056 20.5181 3.96L20.8445 4.13856C20.9405 4.1904 21 4.29216 21 4.4016V4.40352ZM20.0899 4.40352C19.8941 4.27296 19.727 4.10592 19.5965 3.91008C19.4659 4.10592 19.2989 4.27296 19.103 4.40352C19.2989 4.53408 19.4659 4.70112 19.5965 4.89696C19.727 4.70112 19.8941 4.53408 20.0899 4.40352ZM19.2874 6.89952C19.2874 7.00896 19.2278 7.11072 19.1318 7.16256L17.9856 7.7904C17.7341 7.92864 17.5267 8.13408 17.3885 8.38752L16.7606 9.53376C16.7088 9.62976 16.607 9.68928 16.4976 9.68928C16.3882 9.68928 16.2864 9.62976 16.2346 9.53376L15.6067 8.38752C15.4685 8.136 15.263 7.92864 15.0096 7.7904L13.8634 7.16256C13.7674 7.11072 13.7078 7.00896 13.7078 6.89952C13.7078 6.79008 13.7674 6.68832 13.8634 6.63648L15.0096 6.00864C15.2611 5.8704 15.4685 5.66496 15.6067 5.41152L16.2346 4.26528C16.3402 4.07328 16.657 4.07328 16.7606 4.26528L17.3885 5.41152C17.5267 5.66304 17.7322 5.8704 17.9856 6.00864L19.1318 6.63648C19.2278 6.68832 19.2854 6.79008 19.2854 6.89952H19.2874ZM18.3619 6.89952L17.6976 6.53664C17.3443 6.34464 17.0563 6.05472 16.8624 5.70144L16.4995 5.03712L16.1366 5.70144C15.9446 6.05472 15.6547 6.34272 15.3014 6.53664L14.6371 6.89952L15.3014 7.2624C15.6547 7.4544 15.9427 7.74432 16.1366 8.0976L16.4995 8.76192L16.8624 8.0976C17.0544 7.74432 17.3443 7.45632 17.6976 7.2624L18.3619 6.89952Z" fill="black"/>
</g>
<defs>
<clipPath id="clip0_876_5980">
<rect width="18" height="18" fill="white" transform="translate(3 3)"/>
</clipPath>
</defs>
</svg>
