<svg width="24" height="24" viewBox="0 0 24 24" fill="none" xmlns="http://www.w3.org/2000/svg">
<path d="M20.433 12.511C20.333 12.36 18.536 9.72499 15.605 8.33099L17.969 5.96699C18.171 5.76399 18.171 5.43499 17.969 5.23199C17.766 5.02899 17.436 5.02899 17.233 5.23199L14.559 7.90599C13.768 7.64299 12.914 7.47999 12 7.47999C6.979 7.47999 3.704 12.306 3.567 12.511C3.45 12.686 3.45 12.913 3.567 13.088C3.642 13.201 4.672 14.712 6.415 16.049L4.432 18.032C4.229 18.235 4.229 18.565 4.432 18.768C4.534 18.869 4.666 18.919 4.8 18.919C4.934 18.919 5.066 18.868 5.168 18.768L7.282 16.654C8.58 17.477 10.173 18.119 12 18.119C17.021 18.119 20.296 13.294 20.433 13.088C20.549 12.914 20.549 12.686 20.433 12.511ZM14.681 11.2C14.681 12.678 13.478 13.881 12 13.881C11.449 13.881 10.936 13.713 10.509 13.426L14.225 9.70999C14.513 10.136 14.681 10.649 14.681 11.2ZM9.32 11.2C9.32 9.72199 10.522 8.51999 12 8.51999C12.551 8.51999 13.063 8.68799 13.49 8.97399L9.774 12.69C9.488 12.263 9.32 11.751 9.32 11.2ZM4.644 12.8C5.177 12.103 6.687 10.314 8.829 9.28299C8.488 9.84499 8.28 10.496 8.28 11.2C8.28 12.038 8.569 12.803 9.038 13.426L7.165 15.299C5.908 14.359 5.025 13.299 4.644 12.8ZM12 17.08C10.504 17.08 9.168 16.568 8.045 15.89L9.773 14.162C10.396 14.631 11.161 14.92 11.999 14.92C14.051 14.92 15.719 13.252 15.719 11.2C15.719 10.496 15.512 9.84499 15.171 9.28299C17.313 10.314 18.823 12.103 19.356 12.8C18.589 13.804 15.794 17.08 12 17.08Z" fill="black"/>
</svg>
