<svg width="24" height="24" viewBox="0 0 24 24" fill="none" xmlns="http://www.w3.org/2000/svg">
<path d="M22 7.175C22 8.554 21.471 9.859 20.509 10.849L18.058 13.35C17.959 13.45 17.83 13.5 17.7 13.5C17.574 13.5 17.447 13.452 17.35 13.357C17.153 13.164 17.149 12.847 17.342 12.649L19.792 10.149C20.571 9.35 21 8.292 21 7.175C21 6.058 20.571 5 19.792 4.199C19 3.429 17.943 3 16.825 3C15.707 3 14.65 3.429 13.848 4.208L11.403 6.653C11.208 6.848 10.891 6.848 10.696 6.653C10.501 6.458 10.501 6.141 10.696 5.946L13.146 3.496C14.141 2.53 15.445 2 16.825 2C18.205 2 19.51 2.53 20.499 3.492C21.471 4.491 22 5.795 22 7.175ZM12.65 17.343L10.151 19.791C9.35 20.57 8.293 21 7.175 21C6.057 21 5 20.57 4.208 19.801C3.429 19 3 17.943 3 16.825C3 15.707 3.429 14.65 4.204 13.853L6.654 11.403C6.849 11.208 6.849 10.891 6.654 10.696C6.459 10.501 6.142 10.501 5.947 10.696L3.492 13.151C2.53 14.141 2 15.445 2 16.825C2 18.205 2.53 19.51 3.501 20.508C4.49 21.47 5.795 22 7.175 22C8.555 22 9.86 21.47 10.85 20.507L13.35 18.058C13.547 17.865 13.551 17.548 13.358 17.351C13.163 17.151 12.848 17.151 12.65 17.343ZM15.446 7.847L7.846 15.447C7.651 15.642 7.651 15.959 7.846 16.154C7.944 16.251 8.072 16.3 8.2 16.3C8.328 16.3 8.456 16.251 8.554 16.154L16.154 8.554C16.349 8.359 16.349 8.042 16.154 7.847C15.959 7.652 15.642 7.651 15.446 7.847Z" fill="#0D2A50"/>
</svg>
