<svg width="24" height="24" viewBox="0 0 24 24" fill="none" xmlns="http://www.w3.org/2000/svg">
<g clip-path="url(#clip0_854_6170)">
<path fill-rule="evenodd" clip-rule="evenodd" d="M18.125 3.02222H15.6613V2.6C15.6613 2.26667 15.4215 2 15.0945 2H9.90552C9.57849 2 9.31686 2.26667 9.31686 2.57778V3.02222H6.875C5.85029 3.02222 5 3.88889 5 4.93333V20.0889C5 21.1333 5.85029 22 6.875 22H18.125C19.1497 22 20 21.1333 20 20.0889V4.93333C20 3.88889 19.1497 3.02222 18.125 3.02222ZM10.4724 3.17778H14.5058V4.04444H10.4724V3.17778ZM11.2791 16.4444L9.60029 18.2889C9.38227 18.5111 9.01163 18.5111 8.7936 18.2889L7.8343 17.2889C7.61628 17.0667 7.61628 16.6889 7.8343 16.4667C8.05233 16.2444 8.42296 16.2444 8.64099 16.4667L9.18605 17.0222L10.4506 15.6222C10.5596 15.5111 10.6904 15.4444 10.843 15.4444C10.9956 15.4444 11.1483 15.4889 11.2573 15.6C11.4971 15.8222 11.4971 16.2 11.2791 16.4222V16.4444ZM11.2791 12.2444L9.60029 14.0889C9.38227 14.3111 9.01163 14.3111 8.7936 14.0889L7.8343 13.0889C7.61628 12.8667 7.61628 12.4889 7.8343 12.2667C8.05233 12.0444 8.42296 12.0444 8.64099 12.2667L9.18605 12.8222L10.4506 11.4222C10.5596 11.3111 10.6904 11.2444 10.843 11.2444C10.9956 11.2444 11.1483 11.2889 11.2573 11.4C11.4971 11.6222 11.4971 12 11.2791 12.2222V12.2444ZM11.2791 8.04444L9.60029 9.88889C9.38227 10.1111 9.01163 10.1111 8.7936 9.88889L7.8343 8.88889C7.61628 8.66667 7.61628 8.28889 7.8343 8.06667C8.05233 7.84444 8.42296 7.84444 8.64099 8.06667L9.18605 8.62222L10.4506 7.22222C10.5596 7.11111 10.6904 7.04444 10.843 7.04444C10.9956 7.04444 11.1483 7.08889 11.2573 7.2C11.4971 7.42222 11.4971 7.8 11.2791 8.02222V8.04444ZM16.7951 17.5556H13.2195C12.8924 17.5556 12.6526 17.2889 12.6526 16.9778C12.6526 16.6444 12.9142 16.3778 13.2195 16.3778H16.7951C17.1221 16.3778 17.3619 16.6444 17.3619 16.9778C17.3619 17.3111 17.1003 17.5556 16.7951 17.5556ZM16.7951 13.3556H13.2195C12.8924 13.3556 12.6526 13.0889 12.6526 12.7778C12.6526 12.4444 12.9142 12.1778 13.2195 12.1778H16.7951C17.1221 12.1778 17.3619 12.4444 17.3619 12.7778C17.3619 13.1111 17.1003 13.3556 16.7951 13.3556ZM16.7951 9.15556H13.2195C12.8924 9.15556 12.6526 8.88889 12.6526 8.57778C12.6526 8.24444 12.9142 7.97778 13.2195 7.97778H16.7951C17.1221 7.97778 17.3619 8.24444 17.3619 8.57778C17.3619 8.91111 17.1003 9.15556 16.7951 9.15556Z" fill="black"/>
</g>
<defs>
<clipPath id="clip0_854_6170">
<rect width="15" height="20" fill="white" transform="translate(5 2)"/>
</clipPath>
</defs>
</svg>
