<svg width="24" height="24" viewBox="0 0 24 24" fill="none" xmlns="http://www.w3.org/2000/svg">
  <!-- Zelfde klembord + checklist als list.svg; sterretje = master-template (cf. master-list.svg) -->
  <g clip-path="url(#clip0_lfm)">
    <path
      fill-rule="evenodd"
      clip-rule="evenodd"
      d="M9.90552 2C9.57849 2 9.31686 2.26667 9.31686 2.57778V3H6.875C5.85029 3 5 3.86667 5 4.91111V20.0667C5 21.1111 5.85029 21.9778 6.875 21.9778H18.125C19.1497 21.9778 20 21.1111 20 20.0667V4.93333C20 3.88889 19.1497 3.02222 18.125 3.02222H15.6613V2.6C15.6613 2.26667 15.4215 2 15.0945 2H9.90552ZM10.4724 3.17778H14.5058V4.04444H10.4724V3.17778ZM6.875 4.2H9.33866V4.64444C9.33866 4.97778 9.60029 5.22222 9.92733 5.22222H15.1163C15.4433 5.22222 15.6831 4.95556 15.6831 4.64444V4.2H18.1468C18.561 4.2 18.8663 4.51111 18.8663 4.93333V20.0889C18.8663 20.5111 18.561 20.8222 18.1468 20.8222H6.875C6.46076 20.8222 6.15552 20.5111 6.15552 20.0889V4.93333C6.15552 4.51111 6.46076 4.2 6.875 4.2ZM10.8212 7.06667C10.6686 7.06667 10.516 7.13333 10.4288 7.24444L9.16424 8.64444L8.61919 8.08889C8.40116 7.86667 8.03052 7.84444 7.8125 8.08889C7.59448 8.31111 7.57267 8.68889 7.8125 8.91111L8.7718 9.91111C8.98983 10.1333 9.36046 10.1556 9.57849 9.91111L11.2573 8.06667C11.4753 7.82222 11.4535 7.46667 11.2355 7.24444C11.1265 7.13333 10.9738 7.08889 10.8212 7.08889V7.06667ZM13.2195 7.97778C12.8924 7.97778 12.6526 8.24444 12.6526 8.57778C12.6526 8.91111 12.9142 9.15556 13.2195 9.15556H16.7951C17.1221 9.15556 17.3619 8.88889 17.3619 8.57778C17.3619 8.24444 17.1003 7.97778 16.7951 7.97778H13.2195ZM10.8212 11.2667C10.6686 11.2667 10.516 11.3333 10.4288 11.4444L9.16424 12.8444L8.61919 12.2889C8.40116 12.0667 8.03052 12.0444 7.8125 12.2889C7.59448 12.5111 7.57267 12.8889 7.8125 13.1111L8.7718 14.1111C8.98983 14.3333 9.36046 14.3333 9.57849 14.1111L11.2573 12.2667C11.4753 12.0222 11.4535 11.6667 11.2355 11.4444C11.1265 11.3333 10.9738 11.2889 10.8212 11.2889V11.2667ZM13.2195 12.1778C12.8924 12.1778 12.6526 12.4444 12.6526 12.7778C12.6526 13.1111 12.9142 13.3556 13.2195 13.3556H16.7951C17.1221 13.3556 17.3619 13.0889 17.3619 12.7778C17.3619 12.4444 17.1003 12.1778 16.7951 12.1778H13.2195ZM10.8212 15.4444C10.6686 15.4444 10.516 15.5111 10.4288 15.6222L9.16424 17.0222L8.61919 16.4667C8.40116 16.2444 8.03052 16.2444 7.8125 16.4667C7.59448 16.6889 7.57267 17.0667 7.8125 17.2889L8.7718 18.2889C8.98983 18.5111 9.36046 18.5111 9.57849 18.2889L11.2573 16.4444C11.4753 16.2 11.4535 15.8444 11.2355 15.6222C11.1265 15.5111 10.9738 15.4667 10.8212 15.4667V15.4444ZM13.2195 16.3778C12.8924 16.3778 12.6526 16.6444 12.6526 16.9778C12.6526 17.3111 12.9142 17.5556 13.2195 17.5556H16.7951C17.1221 17.5556 17.3619 17.2889 17.3619 16.9778C17.3619 16.6444 17.1003 16.3778 16.7951 16.3778H13.2195Z"
      fill="black"
    />
  </g>
  <g transform="translate(15.05 14.65) scale(0.34)">
    <path
      d="M7.47998 8.19L8.22998 8.73C8.31998 8.79 8.34998 8.9 8.31998 9L8.03998 9.88C7.96998 10.1 8.21998 10.29 8.40998 10.15L9.15998 9.61C9.24998 9.55 9.35998 9.55 9.44998 9.61L10.2 10.15C10.39 10.29 10.65 10.1 10.57 9.88L10.29 9C10.26 8.9 10.29 8.79 10.38 8.73L11.13 8.19C11.32 8.05 11.22 7.75 10.99 7.75H10.07C9.95998 7.75 9.86998 7.68 9.83998 7.58L9.55998 6.7C9.48998 6.48 9.16998 6.48 9.09998 6.7L8.81998 7.58C8.78998 7.68 8.68998 7.75 8.58998 7.75H7.66998C7.42998 7.75 7.33998 8.05 7.52998 8.19H7.47998Z"
      fill="black"
    />
  </g>
  <defs>
    <clipPath id="clip0_lfm">
      <rect width="15" height="20" fill="white" transform="translate(5 2)" />
    </clipPath>
  </defs>
</svg>
