<?xml version="1.0" encoding="UTF-8"?>
<svg id="Layer_1" xmlns="http://www.w3.org/2000/svg" version="1.1" viewBox="0 0 48 48">
  <!-- Generator: Adobe Illustrator 30.2.1, SVG Export Plug-In . SVG Version: 2.1.1 Build 1)  -->
  <defs>
    <style>
      .st0 {
        fill-rule: evenodd;
      }
    </style>
  </defs>
  <path d="M20.08,33.28c0,.44-.36.8-.8.8-3.01,0-5.85-1.17-7.98-3.3-2.13-2.13-3.31-4.96-3.31-7.98,0-.44.36-.8.8-.8s.8.36.8.8c0,2.59,1.01,5.02,2.84,6.85s4.26,2.83,6.85,2.83c.44,0,.8.36.8.8Z"/>
  <path d="M4.03,9.81l3.13,2.28c.36.26.51.72.37,1.14l-1.2,3.68c-.31.94.77,1.72,1.57,1.14l3.13-2.28c.36-.26.84-.26,1.2,0l3.13,2.28c.8.58,1.88-.2,1.57-1.14l-1.2-3.68c-.14-.42.01-.88.37-1.14l3.13-2.28c.8-.58.39-1.85-.6-1.85h-3.87c-.44,0-.84-.28-.97-.71l-1.2-3.68c-.31-.94-1.64-.94-1.94,0l-1.2,3.68c-.14.42-.53.71-.97.71h-3.87c-.99,0-1.4,1.27-.6,1.85h.02Z"/>
  <path class="st0" d="M39.62,25.35c-.67,0-1.34.29-1.72.78l-5.54,6.13-2.39-2.43c-.95-.97-2.58-1.07-3.53,0-.95.97-1.05,2.63,0,3.6l4.2,4.38c.95.97,2.58,1.07,3.53,0l7.35-8.07c.95-1.07.86-2.63-.1-3.6-.48-.49-1.15-.68-1.81-.68v-.1Z"/>
</svg>