<?xml version="1.0" encoding="UTF-8"?>
<svg id="Layer_1" xmlns="http://www.w3.org/2000/svg" version="1.1" viewBox="0 0 48 48">
  <!-- Generator: Adobe Illustrator 30.2.1, SVG Export Plug-In . SVG Version: 2.1.1 Build 1)  -->
  <path d="M20.08,33.28c0,.44-.36.8-.8.8-3.01,0-5.85-1.17-7.98-3.3-2.13-2.13-3.31-4.96-3.31-7.98,0-.44.36-.8.8-.8s.8.36.8.8c0,2.59,1.01,5.02,2.84,6.85,1.83,1.83,4.26,2.83,6.85,2.83.44,0,.8.36.8.8Z"/>
  <path d="M39.88,22h-14.76c-.62,0-1.12.5-1.12,1.12v14.75c0,.62.5,1.12,1.12,1.12h14.76c.62,0,1.12-.5,1.12-1.12v-14.75c0-.62-.5-1.12-1.12-1.12ZM38.76,36.75h-12.53v-12.5h12.53v12.5Z"/>
  <path d="M4.03,9.81l3.13,2.28c.36.26.51.72.37,1.14l-1.2,3.68c-.31.94.77,1.72,1.57,1.14l3.13-2.28c.36-.26.84-.26,1.2,0l3.13,2.28c.8.58,1.88-.2,1.57-1.14l-1.2-3.68c-.14-.42.01-.88.37-1.14l3.13-2.28c.8-.58.39-1.85-.6-1.85h-3.87c-.44,0-.84-.28-.97-.71l-1.2-3.68c-.31-.94-1.64-.94-1.94,0l-1.2,3.68c-.14.42-.53.71-.97.71h-3.87c-.99,0-1.4,1.27-.6,1.85Z"/>
</svg>