<svg width="24" height="24" viewBox="0 0 24 24" fill="none" xmlns="http://www.w3.org/2000/svg">
<g clip-path="url(#clip0_854_6191)">
<mask id="mask0_854_6191" style="mask-type:luminance" maskUnits="userSpaceOnUse" x="5" y="2" width="15" height="20">
<path d="M20 2H5V22H20V2Z" fill="white"/>
</mask>
<g mask="url(#mask0_854_6191)">
<path fill-rule="evenodd" clip-rule="evenodd" d="M9.91 2C9.58 2 9.32 2.27 9.32 2.58V3H6.88C5.86 3 5 3.87 5 4.91V20.07C5 21.11 5.85 21.98 6.88 21.98H18.13C19.15 21.98 20.01 21.11 20.01 20.07V4.93C20.01 3.89 19.16 3.02 18.13 3.02H15.67V2.6C15.67 2.27 15.43 2 15.1 2L9.91 2ZM10.47 3.18H14.5V4.05H10.47V3.18ZM6.88 4.2H9.34V4.64C9.34 4.97 9.6 5.22 9.93 5.22H15.12C15.45 5.22 15.69 4.95 15.69 4.64V4.2H18.15C18.56 4.2 18.87 4.51 18.87 4.93V20.09C18.87 20.51 18.56 20.82 18.15 20.82H6.88C6.47 20.82 6.16 20.51 6.16 20.09V4.93C6.16 4.51 6.47 4.2 6.88 4.2ZM13.22 7.98C12.89 7.98 12.65 8.25 12.65 8.58C12.65 8.91 12.91 9.16 13.22 9.16H16.8C17.13 9.16 17.37 8.89 17.37 8.58C17.37 8.25 17.11 7.98 16.8 7.98H13.22ZM13.22 12.18C12.89 12.18 12.65 12.45 12.65 12.78C12.65 13.11 12.91 13.36 13.22 13.36H16.8C17.13 13.36 17.37 13.09 17.37 12.78C17.37 12.45 17.11 12.18 16.8 12.18H13.22ZM13.22 16.38C12.89 16.38 12.65 16.65 12.65 16.98C12.65 17.31 12.91 17.56 13.22 17.56H16.8C17.13 17.56 17.37 17.29 17.37 16.98C17.37 16.65 17.11 16.38 16.8 16.38H13.22Z" fill="black"/>
</g>
<path d="M7.47998 8.19L8.22998 8.73C8.31998 8.79 8.34998 8.9 8.31998 9L8.03998 9.88C7.96998 10.1 8.21998 10.29 8.40998 10.15L9.15998 9.61C9.24998 9.55 9.35998 9.55 9.44998 9.61L10.2 10.15C10.39 10.29 10.65 10.1 10.57 9.88L10.29 9C10.26 8.9 10.29 8.79 10.38 8.73L11.13 8.19C11.32 8.05 11.22 7.75 10.99 7.75H10.07C9.95998 7.75 9.86998 7.68 9.83998 7.58L9.55998 6.7C9.48998 6.48 9.16998 6.48 9.09998 6.7L8.81998 7.58C8.78998 7.68 8.68998 7.75 8.58998 7.75H7.66998C7.42998 7.75 7.33998 8.05 7.52998 8.19H7.47998Z" fill="black"/>
<path d="M7.47998 12.28L8.22998 12.82C8.31998 12.88 8.34998 12.99 8.31998 13.09L8.03998 13.97C7.96998 14.19 8.21998 14.38 8.40998 14.24L9.15998 13.7C9.24998 13.64 9.35998 13.64 9.44998 13.7L10.2 14.24C10.39 14.38 10.65 14.19 10.57 13.97L10.29 13.09C10.26 12.99 10.29 12.88 10.38 12.82L11.13 12.28C11.32 12.14 11.22 11.84 10.99 11.84H10.07C9.95998 11.84 9.86998 11.77 9.83998 11.67L9.55998 10.79C9.48998 10.57 9.16998 10.57 9.09998 10.79L8.81998 11.67C8.78998 11.77 8.68998 11.84 8.58998 11.84H7.66998C7.42998 11.84 7.33998 12.14 7.52998 12.28H7.47998Z" fill="black"/>
<path d="M7.47998 16.37L8.22998 16.91C8.31998 16.97 8.34998 17.08 8.31998 17.18L8.03998 18.06C7.96998 18.28 8.21998 18.47 8.40998 18.33L9.15998 17.79C9.24998 17.73 9.35998 17.73 9.44998 17.79L10.2 18.33C10.39 18.47 10.65 18.28 10.57 18.06L10.29 17.18C10.26 17.08 10.29 16.97 10.38 16.91L11.13 16.37C11.32 16.23 11.22 15.93 10.99 15.93H10.07C9.95998 15.93 9.86998 15.86 9.83998 15.76L9.55998 14.88C9.48998 14.66 9.16998 14.66 9.09998 14.88L8.81998 15.76C8.78998 15.86 8.68998 15.93 8.58998 15.93H7.66998C7.42998 15.93 7.33998 16.23 7.52998 16.37H7.47998Z" fill="black"/>
</g>
<defs>
<clipPath id="clip0_854_6191">
<rect width="15" height="20" fill="white" transform="translate(5 2)"/>
</clipPath>
</defs>
</svg>
