<svg width="48" height="48" viewBox="0 0 48 48" fill="none" xmlns="http://www.w3.org/2000/svg">
<path d="M26.8 7.20001C26.8 6.64801 27.248 6.20001 27.8 6.20001H42.8C43.352 6.20001 43.8 6.64801 43.8 7.20001C43.8 7.75201 43.352 8.20001 42.8 8.20001H27.8C27.248 8.20001 26.8 7.75201 26.8 7.20001ZM43.8 16.6C43.8 17.152 43.352 17.6 42.8 17.6H27.8C27.248 17.6 26.8 17.152 26.8 16.6C26.8 16.048 27.248 15.6 27.8 15.6H42.8C43.354 15.6 43.8 16.046 43.8 16.6ZM43.8 31.4C43.8 31.952 43.352 32.4 42.8 32.4H27.8C27.248 32.4 26.8 31.952 26.8 31.4C26.8 30.848 27.248 30.4 27.8 30.4H42.8C43.354 30.4 43.8 30.848 43.8 31.4ZM43.8 40.798C43.8 41.35 43.352 41.798 42.8 41.798H27.8C27.248 41.798 26.8 41.35 26.8 40.798C26.8 40.246 27.248 39.798 27.8 39.798H42.8C43.354 39.798 43.8 40.246 43.8 40.798Z" fill="black"/>
<path d="M15.5996 8.0957C15.7056 8.27749 15.8832 8.40658 16.0889 8.45117L20.166 9.33398L17.3867 12.4453C17.2466 12.6023 17.179 12.8112 17.2002 13.0205L17.6201 17.1709L13.8027 15.4883C13.61 15.4034 13.39 15.4034 13.1973 15.4883L9.37891 17.1709L9.7998 13.0205C9.821 12.8112 9.75339 12.6023 9.61328 12.4453L6.83301 9.33398L10.9111 8.45117C11.1168 8.40658 11.2944 8.27749 11.4004 8.0957L13.5 4.49023L15.5996 8.0957Z" stroke="black" stroke-width="1.5" stroke-linejoin="round"/>
<path d="M15.5996 31.0957C15.7056 31.2775 15.8832 31.4066 16.0889 31.4512L20.166 32.334L17.3867 35.4453C17.2466 35.6023 17.179 35.8112 17.2002 36.0205L17.6201 40.1709L13.8027 38.4883C13.61 38.4034 13.39 38.4034 13.1973 38.4883L9.37891 40.1709L9.7998 36.0205C9.821 35.8112 9.75339 35.6023 9.61328 35.4453L6.83301 32.334L10.9111 31.4512C11.1168 31.4066 11.2944 31.2775 11.4004 31.0957L13.5 27.4902L15.5996 31.0957Z" stroke="black" stroke-width="1.5" stroke-linejoin="round"/>
</svg>
