<svg width="24" height="24" viewBox="0 0 24 24" fill="none" xmlns="http://www.w3.org/2000/svg">
  <!-- 19.06×19.06 artwork centered in 24×24 to match plus-circle.svg optical size -->
  <g transform="translate(2.47 2.47)">
    <path fill="black" d="M10.05,10.05h-3.08c-.29,0-.52-.23-.52-.52s.23-.52.52-.52h3.08M10.05,9.01h2.04c.29,0,.52.23.52.52s-.23.52-.52.52h-2.04M19.06,9.53c0,5.26-4.27,9.53-9.53,9.53S0,14.78,0,9.53,4.27,0,9.53,0s9.53,4.28,9.53,9.53ZM18.02,9.53c0-4.68-3.81-8.49-8.49-8.49S1.04,4.85,1.04,9.53s3.81,8.49,8.49,8.49,8.49-3.81,8.49-8.49Z"/>
  </g>
</svg>
