<svg width="24" height="24" viewBox="0 0 24 24" fill="none" xmlns="http://www.w3.org/2000/svg">
<path d="M14.062 4.19952C14.062 3.90252 14.303 3.66152 14.6 3.66152H21.5C21.797 3.66152 22.038 3.90252 22.038 4.19952C22.038 4.49652 21.797 4.73752 21.5 4.73752H14.6C14.303 4.73752 14.062 4.49652 14.062 4.19952ZM21.5 9.76152H14.6C14.303 9.76152 14.062 10.0025 14.062 10.2995C14.062 10.5965 14.303 10.8375 14.6 10.8375H21.5C21.797 10.8375 22.038 10.5965 22.038 10.2995C22.038 10.0025 21.797 9.76152 21.5 9.76152ZM21.5 15.7615H14.6C14.303 15.7615 14.062 16.0025 14.062 16.2995C14.062 16.5965 14.303 16.8375 14.6 16.8375H21.5C21.797 16.8375 22.038 16.5965 22.038 16.2995C22.038 16.0025 21.797 15.7615 21.5 15.7615ZM8.07504 12.5145C7.86204 12.3075 7.52204 12.3115 7.31504 12.5255C7.10804 12.7385 7.11304 13.0785 7.32604 13.2855L9.87404 15.7615H8.60004C5.53304 15.7615 3.03804 13.2665 3.03804 10.1995C3.03804 7.08052 5.48104 4.63752 8.60004 4.63752H11.2C11.497 4.63752 11.738 4.39652 11.738 4.09952C11.738 3.80252 11.497 3.56152 11.2 3.56152H8.60004C4.87804 3.56152 1.96204 6.47752 1.96204 10.1995C1.96204 13.8595 4.94004 16.8375 8.60004 16.8375H9.92804L7.41404 19.4255C7.20704 19.6385 7.21204 19.9795 7.42504 20.1865C7.52904 20.2885 7.66404 20.3385 7.80004 20.3385C7.94004 20.3385 8.08004 20.2835 8.18604 20.1755L11.586 16.6755C11.793 16.4625 11.788 16.1215 11.575 15.9145L8.07504 12.5145Z" fill="black"/>
</svg>
