<svg width="32" height="32" viewBox="0 0 32 32" fill="none" xmlns="http://www.w3.org/2000/svg">
<path d="M18.062 8.19952C18.062 7.90252 18.303 7.66152 18.6 7.66152H25.5C25.797 7.66152 26.038 7.90252 26.038 8.19952C26.038 8.49652 25.797 8.73752 25.5 8.73752H18.6C18.303 8.73752 18.062 8.49652 18.062 8.19952ZM25.5 13.7615H18.6C18.303 13.7615 18.062 14.0025 18.062 14.2995C18.062 14.5965 18.303 14.8375 18.6 14.8375H25.5C25.797 14.8375 26.038 14.5965 26.038 14.2995C26.038 14.0025 25.797 13.7615 25.5 13.7615ZM25.5 19.7615H18.6C18.303 19.7615 18.062 20.0025 18.062 20.2995C18.062 20.5965 18.303 20.8375 18.6 20.8375H25.5C25.797 20.8375 26.038 20.5965 26.038 20.2995C26.038 20.0025 25.797 19.7615 25.5 19.7615ZM12.075 16.5145C11.862 16.3075 11.522 16.3115 11.315 16.5255C11.108 16.7385 11.113 17.0785 11.326 17.2855L13.874 19.7615H12.6C9.53304 19.7615 7.03804 17.2665 7.03804 14.1995C7.03804 11.0805 9.48104 8.63752 12.6 8.63752H15.2C15.497 8.63752 15.738 8.39652 15.738 8.09952C15.738 7.80252 15.497 7.56152 15.2 7.56152H12.6C8.87804 7.56152 5.96204 10.4775 5.96204 14.1995C5.96204 17.8595 8.94004 20.8375 12.6 20.8375H13.928L11.414 23.4255C11.207 23.6385 11.212 23.9795 11.425 24.1865C11.529 24.2885 11.664 24.3385 11.8 24.3385C11.94 24.3385 12.08 24.2835 12.186 24.1755L15.586 20.6755C15.793 20.4625 15.788 20.1215 15.575 19.9145L12.075 16.5145Z" fill="black"/>
</svg>
