<svg width="24" height="24" viewBox="0 0 24 24" fill="none" xmlns="http://www.w3.org/2000/svg">
<path d="M6.00002 7.92C6.27602 7.92 6.50002 7.696 6.50002 7.42V2.5H13.64V5.89C13.64 6.166 13.864 6.39 14.14 6.39H17.8V7.42C17.8 7.696 18.024 7.92 18.3 7.92C18.576 7.92 18.8 7.696 18.8 7.42V5.87C18.8 5.731 18.742 5.598 18.64 5.503L14.51 1.669C14.456 1.609 14.391 1.563 14.314 1.534C14.307 1.531 14.299 1.532 14.292 1.53C14.243 1.515 14.193 1.5 14.14 1.5C14.138 1.5 14.137 1.501 14.135 1.501C14.133 1.501 14.132 1.5 14.13 1.5H6.00002C5.72402 1.5 5.50002 1.724 5.50002 2V7.42C5.50002 7.696 5.72402 7.92 6.00002 7.92ZM14.64 3.155L17.048 5.39H14.64V3.155ZM18.8 19.08V21C18.8 21.276 18.576 21.5 18.3 21.5H6.00002C5.72402 21.5 5.50002 21.276 5.50002 21V19.08C5.50002 18.804 5.72402 18.58 6.00002 18.58C6.27602 18.58 6.50002 18.804 6.50002 19.08V20.5H17.8V19.08C17.8 18.804 18.024 18.58 18.3 18.58C18.576 18.58 18.8 18.804 18.8 19.08ZM8.19002 11.85C8.19002 10.51 7.27002 9.64 5.98002 9.64H3.73002C3.51002 9.64 3.40002 9.75 3.40002 9.97V16.37C3.40002 16.59 3.51002 16.7 3.73002 16.7H4.05002C4.27002 16.7 4.38002 16.59 4.38002 16.37V14.09H5.98002C7.27002 14.09 8.19002 13.19 8.19002 11.85ZM4.38002 13.23V10.5H5.83002C6.67002 10.5 7.19002 11 7.19002 11.85C7.19002 12.7 6.67002 13.23 5.82002 13.23H4.38002ZM9.69002 9.64C9.47002 9.64 9.36002 9.75 9.36002 9.97V16.37C9.36002 16.59 9.47002 16.7 9.69002 16.7H11.7C13.85 16.7 15.28 15.4 15.28 13.16C15.28 10.93 13.85 9.64 11.7 9.64H9.69002ZM14.26 13.16C14.26 14.9 13.22 15.84 11.63 15.84H10.34V10.5H11.63C13.21 10.5 14.26 11.43 14.26 13.16ZM20.54 9.97V10.17C20.54 10.38 20.42 10.5 20.21 10.5H17.63V12.82H19.77C19.99 12.82 20.1 12.94 20.1 13.15V13.35C20.1 13.57 19.99 13.68 19.77 13.68H17.63V16.37C17.63 16.59 17.52 16.7 17.3 16.7H16.98C16.76 16.7 16.65 16.59 16.65 16.37V9.97C16.65 9.75 16.76 9.64 16.98 9.64H20.21C20.42 9.64 20.54 9.75 20.54 9.97Z" fill="black"/>
</svg>
