<svg width="32" height="32" viewBox="0 0 32 32" fill="none" xmlns="http://www.w3.org/2000/svg">
<path d="M7.17663 23.8235C7.03379 23.6807 6.97224 23.4751 7.01172 23.2777L7.94074 18.633C7.96397 18.5157 8.02087 18.4089 8.10564 18.323L19.2539 7.17679C19.4896 6.94107 19.8728 6.94107 20.1086 7.17679L23.8246 10.8926C23.9361 11.0064 24 11.1596 24 11.3199C24 11.4801 23.9361 11.6334 23.8246 11.7472L21.0376 14.534L12.6764 22.8934C12.5905 22.9782 12.4836 23.0362 12.3664 23.0594L7.72126 23.9884C7.68178 23.9965 7.6423 24 7.60281 24C7.44488 23.9988 7.29043 23.9361 7.17663 23.8235ZM17.7465 10.3909L20.6091 13.2533L22.5426 11.3199L19.6801 8.45757L17.7465 10.3909ZM8.37274 22.6263L11.9506 21.911L19.7544 14.1079L16.893 11.2456L9.08808 19.0499L8.37274 22.6263Z" fill="black"/>
</svg>
