<svg width="24" height="24" viewBox="0 0 24 24" fill="none" xmlns="http://www.w3.org/2000/svg">
<path d="M15.079 11.9997C15.079 12.2867 14.847 12.5197 14.559 12.5197H12.519V14.5607C12.519 14.8477 12.286 15.0807 11.999 15.0807C11.712 15.0807 11.479 14.8487 11.479 14.5607V12.5197H9.43997C9.15297 12.5197 8.91997 12.2867 8.91997 11.9997C8.91997 11.7127 9.15297 11.4797 9.43997 11.4797H11.48V9.43973C11.48 9.15273 11.713 8.91973 12 8.91973C12.287 8.91973 12.52 9.15273 12.52 9.43973V11.4797H14.56C14.847 11.4797 15.079 11.7127 15.079 11.9997ZM21.529 11.9997C21.529 17.2547 17.255 21.5287 12 21.5287C6.74497 21.5287 2.46997 17.2547 2.46997 11.9997C2.46997 6.74473 6.74497 2.46973 12 2.46973C17.255 2.46973 21.529 6.74473 21.529 11.9997ZM20.49 11.9997C20.49 7.31873 16.681 3.50973 12 3.50973C7.31897 3.50973 3.50997 7.31873 3.50997 11.9997C3.50997 16.6817 7.31897 20.4897 12 20.4897C16.681 20.4897 20.49 16.6817 20.49 11.9997Z" fill="black"/>
</svg>
