<svg width="32" height="32" viewBox="0 0 32 32" fill="none" xmlns="http://www.w3.org/2000/svg">
<path d="M22.938 13.5933V23.2223C22.938 23.7893 22.717 24.3243 22.317 24.7253C21.916 25.1253 21.381 25.3463 20.814 25.3463H11.186C10.618 25.3463 10.084 25.1253 9.68395 24.7253C9.28295 24.3233 9.06095 23.7893 9.06095 23.2223V13.5933C9.06095 13.3063 9.29395 13.0733 9.58095 13.0733C9.86795 13.0733 10.101 13.3063 10.101 13.5933V23.2223C10.101 23.5073 10.217 23.7873 10.419 23.9893C10.624 24.1943 10.896 24.3073 11.186 24.3073H20.815C21.105 24.3073 21.377 24.1943 21.582 23.9893C21.787 23.7853 21.9 23.5123 21.9 23.2223V13.5933C21.9 13.3063 22.132 13.0733 22.42 13.0733C22.708 13.0733 22.938 13.3063 22.938 13.5933ZM25.346 10.3843C25.346 10.6713 25.114 10.9043 24.826 10.9043H7.17295C6.88595 10.9043 6.65295 10.6713 6.65295 10.3843C6.65295 10.0973 6.88595 9.8643 7.17295 9.8643H12.27V7.1743C12.27 6.8873 12.503 6.6543 12.79 6.6543H19.209C19.496 6.6543 19.729 6.8873 19.729 7.1743V9.8643H24.826C25.113 9.8643 25.346 10.0973 25.346 10.3843ZM13.311 9.8643H18.691V7.6943H13.311V9.8643ZM18.659 20.8143V16.0003C18.659 15.7133 18.427 15.4803 18.139 15.4803C17.851 15.4803 17.619 15.7133 17.619 16.0003V20.8143C17.619 21.1013 17.851 21.3343 18.139 21.3343C18.427 21.3343 18.659 21.1023 18.659 20.8143ZM14.38 20.8143V16.0003C14.38 15.7133 14.147 15.4803 13.86 15.4803C13.573 15.4803 13.34 15.7133 13.34 16.0003V20.8143C13.34 21.1013 13.573 21.3343 13.86 21.3343C14.147 21.3343 14.38 21.1023 14.38 20.8143Z" fill="black"/>
</svg>
