<svg width="24" height="24" viewBox="0 0 24 24" fill="none" xmlns="http://www.w3.org/2000/svg">
<path d="M7.96595 6.95401C7.77095 6.75901 7.77095 6.44201 7.96595 6.24701L11.6459 2.56701C11.6919 2.52101 11.7469 2.48401 11.8079 2.45901C11.8679 2.43401 11.9329 2.42001 11.9999 2.42001C12.0669 2.42001 12.1319 2.43401 12.1919 2.45901C12.2529 2.48401 12.3079 2.52101 12.3539 2.56701L16.0329 6.24701C16.2279 6.44201 16.2279 6.75901 16.0329 6.95401C15.8379 7.14901 15.5209 7.14901 15.3259 6.95401L12.4999 4.12701V14.49C12.4999 14.766 12.2759 14.99 11.9999 14.99C11.7239 14.99 11.4999 14.766 11.4999 14.49V4.12701L8.67295 6.95401C8.57595 7.05101 8.44795 7.10001 8.31995 7.10001C8.19195 7.10001 8.06395 7.05101 7.96595 6.95401ZM16.8399 8.39001H14.2699C13.9939 8.39001 13.7699 8.61401 13.7699 8.89001C13.7699 9.16601 13.9939 9.39001 14.2699 9.39001H16.8399C17.5789 9.39001 18.1799 9.99101 18.1799 10.73V19.24C18.1799 19.979 17.5789 20.581 16.8399 20.581H7.15995C6.42095 20.581 5.81995 19.979 5.81995 19.24V10.73C5.81995 9.99101 6.42095 9.39001 7.15995 9.39001H9.49995C9.77595 9.39001 9.99995 9.16601 9.99995 8.89001C9.99995 8.61401 9.77595 8.39001 9.49995 8.39001H7.15995C5.86895 8.39001 4.81995 9.44001 4.81995 10.73V19.24C4.81995 20.531 5.86995 21.581 7.15995 21.581H16.8399C18.1299 21.581 19.1799 20.531 19.1799 19.24V10.73C19.1799 9.43901 18.1299 8.39001 16.8399 8.39001Z" fill="black"/>
</svg>
