<svg width="24" height="24" viewBox="0 0 24 24" fill="none" xmlns="http://www.w3.org/2000/svg">
<path d="M19.9531 18.019L18.7721 8.39198C18.7421 8.14198 18.5291 7.95298 18.2761 7.95298H15.5001V5.49498C15.4981 4.55998 15.1321 3.68198 14.4711 3.02298C13.8101 2.36398 12.9331 2.00098 12.0001 2.00098C11.9981 2.00098 11.9961 2.00098 11.9931 2.00098C11.0581 2.00298 10.1801 2.36898 9.5201 3.03098C8.8611 3.69298 8.4981 4.57298 8.5001 5.50698V7.95198H5.7221C5.4701 7.95198 5.2571 8.13998 5.2261 8.39098L4.0471 18.018C3.9851 18.513 4.0311 19.026 4.1791 19.502C4.3281 19.985 4.5751 20.423 4.9101 20.803C5.2451 21.183 5.6501 21.48 6.1111 21.687C6.5711 21.895 7.0601 22 7.5621 22C7.5651 22 7.5681 22 7.5701 22H16.4291C16.9351 22 17.4261 21.895 17.8871 21.687C18.3481 21.478 18.7511 21.181 19.0861 20.802C19.4171 20.428 19.6711 19.979 19.8181 19.504C19.9691 19.022 20.0151 18.522 19.9531 18.019ZM9.5001 5.50598C9.4991 4.83798 9.7581 4.20998 10.2291 3.73698C10.7001 3.26398 11.3271 3.00298 11.9951 3.00098C11.9951 3.00098 11.9981 3.00098 12.0001 3.00098C12.6661 3.00098 13.2921 3.25998 13.7641 3.72998C14.2371 4.20098 14.4971 4.82898 14.4991 5.49598V7.95198H9.4991V5.50598H9.5001ZM18.8631 19.206C18.7571 19.548 18.5751 19.87 18.3381 20.14C18.0971 20.411 17.8071 20.625 17.4751 20.775C17.1441 20.924 16.7921 21 16.4291 21H7.5691C7.5671 21 7.5651 21 7.5631 21C7.2031 21 6.8531 20.925 6.5211 20.775C6.1901 20.627 5.9001 20.413 5.6601 20.142C5.4191 19.869 5.2421 19.555 5.1351 19.207C5.0291 18.864 4.9961 18.496 5.0401 18.141V18.14L6.1651 8.95198H8.8581C8.9031 8.96598 8.9491 8.98098 9.0001 8.98098C9.0511 8.98098 9.0971 8.96598 9.1431 8.95198H14.8571C14.9031 8.96598 14.9491 8.98098 15.0001 8.98098C15.0511 8.98098 15.0971 8.96598 15.1431 8.95198H17.8341L18.9611 18.139C19.0041 18.501 18.9721 18.859 18.8631 19.206Z" fill="black"/>
</svg>
