<svg width="24" height="24" viewBox="0 0 24 24" fill="none" xmlns="http://www.w3.org/2000/svg">
<path d="M21.916 11.723C21.755 11.481 17.9 5.79999 12 5.79999C6.1 5.79999 2.245 11.481 2.084 11.723C1.972 11.891 1.972 12.11 2.084 12.278C2.245 12.519 6.1 18.2 12 18.2C17.9 18.2 21.755 12.519 21.916 12.277C22.028 12.109 22.028 11.891 21.916 11.723ZM15.3 10.1C15.3 11.919 13.82 13.4 12 13.4C10.18 13.4 8.7 11.92 8.7 10.1C8.7 8.27999 10.18 6.79999 12 6.79999C13.819 6.79999 15.3 8.27999 15.3 10.1ZM12 17.2C7.349 17.2 3.956 13.114 3.117 12C3.731 11.185 5.715 8.78399 8.556 7.55199C8.025 8.26699 7.7 9.14299 7.7 10.1C7.7 12.471 9.629 14.4 12 14.4C14.371 14.4 16.3 12.471 16.3 10.1C16.3 9.14299 15.975 8.26699 15.444 7.55199C18.284 8.78499 20.269 11.185 20.883 12C20.044 13.114 16.651 17.2 12 17.2Z" fill="black"/>
</svg>
