<svg width="24" height="24" viewBox="0 0 24 24" fill="none" xmlns="http://www.w3.org/2000/svg">
<g clip-path="url(#clip0_773_4103)">
<path fill-rule="evenodd" clip-rule="evenodd" d="M6.74244 14.175C6.47244 14.535 6.19494 14.8875 5.90994 15.225L11.0024 15.2175C10.9724 15.8925 11.1299 16.7175 10.8149 17.295C10.4999 17.9325 9.75744 18.2475 9.06744 18.2625C7.01244 18.075 5.64744 16.2825 4.86744 14.58C4.80744 14.445 4.75494 14.31 4.70994 14.1675C4.00494 12.1275 4.38744 9.5175 5.72244 7.8525C7.70994 5.235 11.2199 4.17 14.4899 5.175C16.4849 5.7975 18.2624 7.335 19.1324 9.3C19.7624 10.785 19.7849 12.57 19.2674 14.1675C18.9374 15.195 18.3899 16.14 17.6399 16.8825C16.7174 17.655 15.7274 18.4725 14.4449 18.2175C13.7474 18.0525 13.2449 17.5725 13.0724 16.92C12.9224 16.35 12.9599 15.8025 13.0349 15.21L18.2324 15.2025L18.0899 15.0225C17.8499 14.7375 17.6099 14.4525 17.3774 14.1675C15.0899 11.3175 13.2599 8.1525 11.9924 4.845C10.6799 8.1225 8.87994 11.37 6.74244 14.175ZM2.69244 14.175C3.50244 17.205 5.95494 19.695 8.99994 20.565C12.8249 21.765 17.1524 20.4825 19.6274 17.5575C20.4224 16.59 20.9999 15.42 21.3149 14.175C21.8474 12.0825 21.6599 9.78 20.5949 7.8975C19.8299 6.57 18.7049 5.31 17.4374 4.515C14.5874 2.64 10.3499 2.49 7.36494 4.0725C4.30494 5.625 2.19744 8.8875 2.41494 12.4275C2.44494 13.0275 2.54244 13.605 2.69244 14.175Z" fill="#008348"/>
</g>
<defs>
<clipPath id="clip0_773_4103">
<rect width="24" height="24" fill="white"/>
</clipPath>
</defs>
</svg>
