<svg width="24" height="24" viewBox="0 0 24 24" fill="none" xmlns="http://www.w3.org/2000/svg">
<g clip-path="url(#clip0_1127_11237)">
<path d="M9.50143 4C4.80688 3.99929 1.00071 7.80402 1 12.4986C0.999287 17.1931 4.80402 20.9993 9.49857 21C14.1931 21.0007 17.9993 17.196 18 12.5014C17.9986 7.8083 14.1953 4.00285 9.50143 4Z" fill="#E4151A"/>
<path fill-rule="evenodd" clip-rule="evenodd" d="M9.50142 4.53732C5.10442 4.53732 1.54016 8.10159 1.54016 12.4986C1.54016 16.8956 5.10442 20.4598 9.50142 20.4598C13.897 20.4598 17.4613 16.897 17.4627 12.5014C17.4627 8.10444 13.8991 4.53875 9.50142 4.53732Z" fill="#FBEA26"/>
<path fill-rule="evenodd" clip-rule="evenodd" d="M9.00768 12.7226L7.60195 11.3169L5.98145 12.9403V13.4854L6.38961 13.0758L7.52061 14.2097L7.10317 14.6257L7.37504 14.899L9.63704 12.6341V12.0911L9.00768 12.7226Z" fill="#E4151A"/>
<path fill-rule="evenodd" clip-rule="evenodd" d="M2.44568 11.0215H4.94887V11.5617H4.53143V13.3092L5.9814 12.5021V13.9806H2.44568V13.4376H2.86526V11.5617H2.44568V11.0215ZM13.0007 11.0215V11.5617H13.4203V13.4376H13.0007V13.9806H16.54V12.5021L15.0879 13.3092V11.5617H15.5075V11.0215H13.0007Z" fill="#1752A0"/>
<path fill-rule="evenodd" clip-rule="evenodd" d="M7.39515 9.3389C7.88751 9.3389 8.28639 9.73778 8.28639 10.2301C8.28639 10.7225 7.88751 11.1214 7.39515 11.1214C6.90279 11.1214 6.50391 10.7225 6.50391 10.2301V10.2273C6.50391 9.73707 6.90136 9.33961 7.39158 9.33961L7.39515 9.3389Z" fill="#E4151A"/>
<path d="M9.22303 11.0215V11.5617H9.64118V13.4376H9.21875V13.9806H11.6013C13.371 13.9806 13.3931 11.0215 11.6063 11.0215H9.22303ZM11.1518 11.9427H11.2517C11.774 11.9427 11.7747 13.0544 11.271 13.0544H11.1518V11.9427Z" fill="#1752A0"/>
<path d="M14.5 21C19.1944 21 23 17.1944 23 12.5C23 7.80558 19.1944 4 14.5 4C9.80558 4 6 7.80558 6 12.5C6 17.1944 9.80558 21 14.5 21Z" fill="#B01F34"/>
<path fill-rule="evenodd" clip-rule="evenodd" d="M12.8876 9.03356H11.5914L11.5449 9.25138H10.5939L10.8038 9.95063L11.5721 9.8311L11.8171 10.0469H10.0507L9.91791 10.5722H10.2041L10.3369 10.3159H11.8537L11.3603 10.8259L10.8483 10.4998L10.6484 10.715L11.0017 11.2303L10.2287 14.0539L10.7506 13.7956L11.0282 14.4709L10.3642 15.546L10.0806 15.6722L9.88538 16.3017H11.3623L11.2387 15.8369L12.1757 14.5479L12.5855 15.5792L12.1432 15.8369L12.021 16.3017H13.6705L13.7681 15.7851L13.3285 15.0845L13.8724 14.2876H15.2244L16.8182 13.4954L15.6169 15.6357L15.1521 15.7685L15.0106 16.2997H16.6044L16.6708 15.7419L17.534 14.5101L18.1317 15.1921L17.9325 15.6569L17.4198 15.7698L17.2206 16.3011H18.7639L19.1158 15.2293L18.6224 13.2457L18.6178 10.7024L18.1118 10.276L15.0963 10.28V9.56481H18.1124L18.6178 9.9679V9.0329H14.5405V10.8391H18.0281V11.5577H13.9063V9.37888L13.4374 9.63454L13.7695 8.69821L12.8876 9.03356Z" fill="white"/>
</g>
<defs>
<clipPath id="clip0_1127_11237">
<rect width="24" height="24" fill="white"/>
</clipPath>
</defs>
</svg>
