<svg width="24" height="24" viewBox="0 0 24 24" fill="none" xmlns="http://www.w3.org/2000/svg">
<g clip-path="url(#clip0_773_4099)">
<path d="M12 21.6C17.302 21.6 21.6 17.302 21.6 12C21.6 6.69809 17.302 2.40002 12 2.40002C6.69809 2.40002 2.40002 6.69809 2.40002 12C2.40002 17.302 6.69809 21.6 12 21.6Z" fill="#B01F34"/>
<path fill-rule="evenodd" clip-rule="evenodd" d="M10.179 8.08499H8.71496L8.66246 8.33099H7.58846L7.82546 9.12074L8.69321 8.98574L8.96996 9.22949H6.97496L6.82496 9.82274H7.14821L7.29821 9.53324H9.01121L8.45396 10.1092L7.87571 9.74099L7.64996 9.98399L8.04896 10.566L7.17596 13.755L7.76546 13.4632L8.07896 14.226L7.32896 15.4402L7.00871 15.5827L6.78821 16.2937H8.45621L8.31671 15.7687L9.37496 14.313L9.83771 15.4777L9.33821 15.7687L9.20021 16.2937H11.0632L11.1735 15.7102L10.677 14.919L11.2912 14.019H12.8182L14.6182 13.1242L13.2615 15.5415L12.7365 15.6915L12.5767 16.2915H14.3767L14.4517 15.6615L15.4267 14.2702L16.1017 15.0405L15.8767 15.5655L15.2977 15.693L15.0727 16.293H16.8157L17.2132 15.0825L16.656 12.8422L16.6507 9.96974L16.0792 9.48824L12.6735 9.49274V8.68499H16.08L16.6507 9.14024V8.08424H12.0457V10.1242H15.9847V10.9357H11.3295V8.47499L10.8 8.76374L11.175 7.70624L10.179 8.08499Z" fill="white"/>
</g>
<defs>
<clipPath id="clip0_773_4099">
<rect width="24" height="24" fill="white"/>
</clipPath>
</defs>
</svg>
