<svg width="24" height="24" viewBox="0 0 24 24" fill="none" xmlns="http://www.w3.org/2000/svg">
<g clip-path="url(#clip0_773_4105)">
<path d="M20.4097 20.871H3.5835V3.129H20.409L20.4097 20.871Z" fill="white"/>
<path d="M21.1455 21.6V2.39999H2.85449V21.6H21.1455ZM20.4097 20.871H3.58349V3.12899H20.409V20.871H20.4097Z" fill="#C80000"/>
<path d="M19.5 16.116V19.9545H4.5V16.116H19.5Z" fill="#001E78"/>
<path d="M18.126 19.497V16.5675H16.8098V19.4963H18.126V19.497ZM16.5128 18.039C16.5128 17.2328 15.861 16.5743 15.0615 16.5743H13.1198V19.497H15.0615C15.861 19.497 16.5128 18.8453 16.5128 18.039ZM15.3068 18.039C15.3068 18.3878 15.042 18.678 14.7135 18.678H14.43V17.4068H14.7135C15.042 17.4 15.3068 17.6835 15.3068 18.039ZM10.3778 19.497H12.8618V18.6518H11.7135V16.5675H10.3778V19.497ZM8.88077 19.497H10.2098L8.71277 16.5683H7.37102L5.87402 19.497H7.20302L7.34477 19.1873H8.74502L8.88077 19.497ZM8.34527 18.4193H7.73252L8.02952 17.7675L8.34527 18.4193Z" fill="white"/>
<path d="M17.0805 15.7485C17.2807 15.3743 17.3902 14.9873 17.3835 14.5485C17.3767 14.058 17.1705 13.7423 16.893 13.323L12.8287 7.21951L13.4865 6.21976L18.009 12.981C18.3832 13.536 18.5962 13.9553 18.609 14.5748C18.6157 14.9363 18.5055 15.3878 18.3382 15.7425H17.0805V15.7485Z" fill="#00B4DC"/>
<path d="M18.5257 15.7485C18.5579 15.6773 18.5774 15.6323 18.6029 15.5678C18.6997 15.3098 18.8219 14.955 18.8092 14.5808C18.7964 13.929 18.5707 13.497 18.1897 12.9353L13.5959 6.07051L14.1247 5.27026L19.1249 12.7673C19.5637 13.425 19.7699 13.8128 19.7699 14.4188C19.7699 15.1155 19.5832 15.4253 19.4407 15.741H18.5242L18.5257 15.7485Z" fill="#001E78"/>
<path d="M15.7193 15.7485C15.99 15.465 16.1835 15.0067 16.158 14.523C16.1385 14.1097 15.8805 13.704 15.5835 13.2517L12.1965 8.17424L12.7125 7.39349L16.7063 13.3867C16.9838 13.806 17.1705 14.0962 17.1773 14.5545C17.184 14.9865 17.0738 15.3735 16.8608 15.7477L15.7193 15.7485Z" fill="#001E78"/>
<path d="M10.6485 4.04551L4.87425 12.774C4.4355 13.4318 4.22925 13.8195 4.22925 14.4255C4.22925 15.1223 4.416 15.432 4.5585 15.7478H5.481C5.4555 15.696 5.42925 15.6315 5.40375 15.561C5.307 15.303 5.21025 14.9483 5.217 14.58C5.22975 13.9283 5.4555 13.4963 5.8365 12.9345L11.7397 4.04401L10.6485 4.04551Z" fill="#001E78"/>
<path d="M11.9326 4.0455L5.99031 12.9938C5.61606 13.5488 5.40306 13.968 5.39031 14.5875C5.38356 14.949 5.49381 15.4005 5.66106 15.7553H6.91881C6.71856 15.381 6.60906 14.994 6.61581 14.5553C6.62256 14.0648 6.82881 13.749 7.10631 13.3298L13.2481 4.04625H11.9326V4.0455Z" fill="#00B4DC"/>
<path d="M8.22229 13.5548H15.4095L14.919 12.819H8.70604L8.41579 13.251C8.35129 13.3485 8.28079 13.458 8.22229 13.5548Z" fill="#00B4DC"/>
<path d="M13.4483 4.0455L7.26756 13.3868C6.99006 13.806 6.80331 14.0963 6.79656 14.5545C6.78981 14.9865 6.90006 15.3735 7.11306 15.7478H8.28081C8.01006 15.4643 7.81656 15.006 7.84206 14.5223C7.84881 14.4255 7.86756 14.2965 7.89381 14.1998H15.7583C15.7066 14.0453 15.6548 13.9163 15.5198 13.7355H8.11356C8.19756 13.587 8.31381 13.4063 8.41656 13.2518L8.82306 12.645H14.8036L14.4743 12.1545H9.15156L14.5126 4.0515H13.4483V4.0455Z" fill="#001E78"/>
</g>
<defs>
<clipPath id="clip0_773_4105">
<rect width="24" height="24" fill="white"/>
</clipPath>
</defs>
</svg>
