<svg width="24" height="24" viewBox="0 0 24 24" fill="none" xmlns="http://www.w3.org/2000/svg">
<g clip-path="url(#clip0_773_4112)">
<path d="M18.1403 21.6H5.85977C3.94877 21.6 2.40002 20.0512 2.40002 18.1402V5.85974C2.40002 3.94874 3.94877 2.39999 5.85977 2.39999H18.141C20.0513 2.39999 21.6 3.94874 21.6 5.85974V18.141C21.6 20.0512 20.0513 21.6 18.1403 21.6Z" fill="#ED1C24"/>
<path d="M4.1333 11.9985C4.1333 16.3447 7.6553 19.8667 12.0016 19.8667C16.3456 19.8667 19.8668 16.3425 19.8668 11.9985C19.8668 7.65449 16.3448 4.13324 12.0016 4.13324C7.65755 4.13324 4.1333 7.65224 4.1333 11.9985Z" fill="white"/>
<path d="M18.4418 11.9985C18.4418 15.5557 15.5565 18.4388 11.9993 18.4365C8.44203 18.4365 5.55903 15.5512 5.56128 11.994C5.56128 8.43675 8.44428 5.556 12.0015 5.556C15.5588 5.55825 18.4418 8.44125 18.4418 11.9985Z" fill="#ED1C24"/>
<path d="M11.9002 13.335C12.3255 13.7677 12.321 14.4637 11.8875 14.892C11.4547 15.3172 10.7587 15.3127 10.3305 14.8792C9.90521 14.4465 9.90971 13.7527 10.3402 13.3252C10.7737 12.8992 11.472 12.9015 11.9002 13.335Z" fill="white"/>
<path d="M13.965 15.3975C14.3955 15.828 14.3977 16.5263 13.9672 16.9568C13.5367 17.3873 12.8385 17.3895 12.408 16.959C11.9775 16.5285 11.9752 15.8303 12.4057 15.3998C12.411 15.3945 12.4132 15.3923 12.4185 15.387C12.8512 14.967 13.5397 14.9715 13.965 15.3975Z" fill="white"/>
<path d="M10.371 9.13501C9.93826 9.56326 9.93301 10.2585 10.3583 10.6943C10.7865 11.127 11.4818 11.1323 11.9175 10.707C12.3533 10.2818 12.3555 9.58351 11.9303 9.14776L11.928 9.14551C11.5028 8.71276 10.8068 8.70751 10.374 9.13276C10.3733 9.13276 10.371 9.13501 10.371 9.13501Z" fill="white"/>
<path d="M12.408 7.12274C11.9752 7.55099 11.9722 8.24624 12.3982 8.67974C12.8265 9.11249 13.5217 9.11549 13.9552 8.68949C14.388 8.26124 14.391 7.56599 13.965 7.13549C13.5367 6.69974 12.8415 6.69749 12.408 7.12274Z" fill="white"/>
<path d="M8.29873 11.22C7.86298 11.6452 7.85323 12.3412 8.27623 12.7792C8.70148 13.215 9.39748 13.2247 9.83548 12.8017C10.2712 12.3765 10.281 11.6805 9.85798 11.2425C9.85273 11.2372 9.85048 11.235 9.84523 11.2297C9.41698 10.8045 8.72923 10.8022 8.29873 11.22Z" fill="white"/>
</g>
<defs>
<clipPath id="clip0_773_4112">
<rect width="24" height="24" fill="white"/>
</clipPath>
</defs>
</svg>
