<svg width="24" height="24" viewBox="0 0 24 24" fill="none" xmlns="http://www.w3.org/2000/svg">
<g clip-path="url(#clip0_773_4139)">
<g clip-path="url(#clip1_773_4139)">
<path d="M23.9111 18H0.0888889C0.0444444 18 0 17.9644 0 17.9111V6.08889C0 6.04444 0.0355556 6 0.0888889 6H23.9111C23.9556 6 24 6.03556 24 6.08889V17.9111C24 17.9644 23.9644 18 23.9111 18Z" fill="#F02900"/>
<path d="M20.6755 14.0267H3.44882C3.41326 14.0267 3.3866 14.0533 3.3866 14.0889V14.64C3.3866 14.6756 3.41326 14.7022 3.44882 14.7022H20.6755C20.711 14.7022 20.7377 14.6756 20.7377 14.64V14.0889C20.7288 14.0533 20.7022 14.0267 20.6755 14.0267Z" fill="#FFEC00"/>
<path d="M4.24886 13.3956H5.5822C5.60886 13.3956 5.63553 13.3778 5.63553 13.3511L6.04442 11.7156C6.0622 11.6445 6.11553 11.3956 6.20442 10.9511H6.21331C6.25775 11.1911 6.3022 11.44 6.36442 11.7156L6.72886 13.3511C6.73775 13.3778 6.75553 13.3956 6.7822 13.3956H8.11553C8.1422 13.3956 8.16886 13.3778 8.16886 13.3511L9.1022 10.1956C9.11109 10.16 9.08442 10.1156 9.04886 10.1156H8.03553C8.00886 10.1156 7.9822 10.1333 7.9822 10.16L7.63553 11.7511C7.59998 11.9111 7.54664 12.1778 7.48442 12.5333H7.46664C7.43109 12.3111 7.36886 12.0445 7.29775 11.7511L6.92442 10.1689C6.91553 10.1422 6.89775 10.1245 6.87109 10.1245H5.59998C5.57331 10.1245 5.54664 10.1422 5.54664 10.1689L5.15553 11.76C5.06664 12.1245 5.00442 12.3822 4.97775 12.5422H4.96886C4.91553 12.2489 4.87109 11.9822 4.81775 11.76L4.44442 10.1689C4.43553 10.1422 4.41775 10.1245 4.39109 10.1245H3.32442C3.28886 10.1245 3.25331 10.16 3.27109 10.2045L4.19553 13.36C4.19553 13.3778 4.2222 13.3956 4.24886 13.3956Z" fill="#FFEC00"/>
<path d="M9.52002 13.3956H10.5422C10.5778 13.3956 10.6045 13.3689 10.6045 13.3333V10.0978C10.6045 10.0622 10.5778 10.0356 10.5422 10.0356C10.1956 10.0622 9.8578 10.0889 9.52002 10.1244C9.49336 10.1244 9.46669 10.1511 9.46669 10.1867V13.3422C9.4578 13.3689 9.48447 13.3956 9.52002 13.3956Z" fill="#FFEC00"/>
<path d="M11.1466 13.3956H12.1066C12.1333 13.3956 12.1599 13.3689 12.1688 13.3422C12.1777 13.1911 12.1866 13.0489 12.1866 12.9067H12.1955C12.4177 13.2889 12.7644 13.4756 13.2622 13.4756C13.6977 13.4756 14.0533 13.3156 14.3199 12.9956C14.5866 12.6756 14.7288 12.2489 14.7288 11.7333C14.7288 11.2267 14.6044 10.8178 14.3466 10.5067C14.0888 10.1956 13.7511 10.0445 13.3333 10.0445C12.8799 10.0445 12.5155 10.2311 12.2488 10.6045H12.2399C12.2488 10.3111 12.2577 9.98223 12.2577 9.62667V8.70223C12.2577 8.66667 12.2311 8.6489 12.2044 8.6489C11.8577 8.65778 11.5111 8.67556 11.1733 8.69334C11.1377 8.69334 11.1199 8.72001 11.1199 8.75556V11.7689V12.4356C11.1199 12.8178 11.1111 13.12 11.0933 13.3422C11.0844 13.3689 11.1111 13.3956 11.1466 13.3956ZM12.3999 11.12C12.5333 10.96 12.7022 10.88 12.9066 10.88C13.1111 10.88 13.2711 10.96 13.3955 11.1111C13.5111 11.2622 13.5733 11.4667 13.5733 11.7333C13.5733 12.0089 13.5111 12.2311 13.3955 12.3911C13.2799 12.5511 13.1111 12.6311 12.9066 12.6311C12.6844 12.6311 12.5155 12.5511 12.3911 12.3911C12.2666 12.2311 12.2044 12.0178 12.2044 11.7422C12.2044 11.4933 12.2755 11.28 12.3999 11.12Z" fill="#FFEC00"/>
<path d="M15.0489 13.3334C15.0489 13.3689 15.0756 13.3956 15.1111 13.3956H16.1333C16.1689 13.3956 16.1955 13.3689 16.1955 13.3334V12.2311C16.1955 11.7867 16.2578 11.4756 16.3822 11.2711C16.5067 11.0756 16.7111 10.9778 17.0044 10.9778C17.1022 10.9778 17.2089 10.9867 17.3067 11.0134C17.3422 11.0222 17.3778 10.9956 17.3778 10.96L17.4133 10.1334C17.4133 10.1067 17.3955 10.08 17.3689 10.0711C17.2889 10.0534 17.1822 10.0445 17.0578 10.0445C16.5778 10.0445 16.2489 10.3111 16.0889 10.8445H16.08C16.08 10.5956 16.0711 10.3734 16.0533 10.1778C16.0533 10.1511 16.0267 10.1245 15.9911 10.1245H15.0844C15.0489 10.1245 15.0222 10.1511 15.0222 10.1867C15.04 10.4089 15.0489 10.7111 15.0489 11.1022V13.3334Z" fill="#FFEC00"/>
<path d="M17.7777 13.1734C18 13.36 18.2755 13.4578 18.6133 13.4578C19.12 13.4578 19.4933 13.2534 19.7244 12.8534H19.7333C19.7244 12.9334 19.7244 13.0311 19.7244 13.1378C19.7244 13.2267 19.7244 13.2978 19.7333 13.3422C19.7333 13.3689 19.76 13.3956 19.7955 13.3956H20.6755C20.7111 13.3956 20.7377 13.3689 20.7377 13.3334C20.7111 12.9867 20.6933 12.6134 20.6933 12.2134C20.6933 12.1156 20.6933 11.9645 20.7022 11.7778C20.7022 11.5911 20.7111 11.4667 20.7111 11.4222C20.7111 10.5067 20.1866 10.0445 19.1288 10.0445C18.6222 10.0445 18.2044 10.1156 17.8844 10.2489C17.8577 10.2578 17.8488 10.2845 17.8488 10.3022L17.8755 10.9511C17.8755 10.9956 17.92 11.0222 17.9555 11.0045C18.2666 10.8622 18.5955 10.7822 18.9511 10.7822C19.3866 10.7822 19.6177 10.9511 19.6444 11.28C19.6444 11.3156 19.6177 11.3422 19.5822 11.3422C19.4044 11.3334 19.2711 11.3245 19.1733 11.3245C18.6222 11.3245 18.1955 11.4134 17.8933 11.6C17.6 11.7867 17.4488 12.0622 17.4488 12.4267C17.44 12.7289 17.5555 12.9778 17.7777 13.1734ZM19.4133 11.92C19.4666 11.92 19.52 11.92 19.5911 11.9289C19.6266 11.9289 19.6444 11.9556 19.6444 11.9911C19.6355 12.2134 19.5733 12.3911 19.4666 12.5245C19.3422 12.6667 19.1822 12.7378 18.9688 12.7378C18.6666 12.7378 18.5066 12.6134 18.5066 12.3645C18.5066 12.0622 18.8088 11.92 19.4133 11.92Z" fill="#FFEC00"/>
<path d="M9.51999 9.64445C9.84887 9.60889 10.1955 9.58222 10.5422 9.55556C10.5689 9.55556 10.5955 9.52889 10.5955 9.49333V8.78222C10.5955 8.74667 10.5689 8.72 10.5333 8.72C10.1867 8.74667 9.84887 8.77333 9.5111 8.80889C9.48443 8.80889 9.45776 8.83556 9.45776 8.87111V9.58222C9.45776 9.61778 9.48443 9.64445 9.51999 9.64445Z" fill="#FFEC00"/>
</g>
</g>
<defs>
<clipPath id="clip0_773_4139">
<rect width="24" height="24" fill="white"/>
</clipPath>
<clipPath id="clip1_773_4139">
<rect width="24" height="12" fill="white" transform="translate(0 6)"/>
</clipPath>
</defs>
</svg>
