<svg width="24" height="24" viewBox="0 0 24 24" fill="none" xmlns="http://www.w3.org/2000/svg">
<g clip-path="url(#clip0_773_4104)">
<path d="M20.898 11.5823L16.473 3.33225C16.3662 3.12982 16.2207 2.95041 16.0446 2.80425C15.8685 2.65809 15.6653 2.54806 15.4467 2.48043C15.2281 2.41281 14.9983 2.38891 14.7704 2.41011C14.5426 2.43131 14.3211 2.4972 14.1187 2.604L14.085 2.622L5.98498 7.1415C5.56904 7.38094 5.26105 7.77109 5.12472 8.23125L2.94972 15.7845C2.82318 16.216 2.8717 16.68 3.08479 17.076C3.29788 17.472 3.65838 17.7681 4.08822 17.9003L16.8652 21.5318C17.2915 21.6559 17.7496 21.6057 18.1389 21.3923C18.5282 21.1788 18.8168 20.8194 18.9412 20.3933C18.9425 20.3866 18.9443 20.3801 18.9465 20.3738L21.0607 12.9675C21.1817 12.5016 21.1236 12.0074 20.898 11.5823Z" fill="#00A0E2"/>
<path d="M10.9657 13.17C10.9657 13.17 9.56024 10.4295 8.65199 10.4295C7.94849 10.4295 7.88699 11.1742 7.88924 12.9667C7.89149 14.7592 7.98824 15.4552 8.64974 15.4552C9.54899 15.4552 10.9657 13.17 10.9657 13.17ZM12.7717 10.884C13.4925 9.84674 14.1435 8.82074 15.36 8.82074C16.71 8.82074 17.4375 9.94574 17.4427 10.8982C17.4427 10.908 17.4367 16.9732 17.4367 16.9732H15.9232L15.9165 11.2215C15.9165 10.4302 15.282 10.4317 15.273 10.4317C14.7607 10.4317 13.8202 11.7165 12.7725 13.1415V16.9755H11.244V15.201C11.244 15.201 10.2322 16.9755 8.71799 16.9777C6.99899 16.9777 6.41549 15.7965 6.41174 12.966C6.41174 10.266 6.79124 8.82524 8.63324 8.82374C10.035 8.82374 11.2387 10.8645 11.2387 10.8645V9.57374L12.7717 7.50449C12.7717 7.50449 12.7657 10.8937 12.7717 10.8855V10.884Z" fill="white"/>
</g>
<defs>
<clipPath id="clip0_773_4104">
<rect width="24" height="24" fill="white"/>
</clipPath>
</defs>
</svg>
