<svg width="24" height="24" viewBox="0 0 24 24" fill="none" xmlns="http://www.w3.org/2000/svg">
<g clip-path="url(#clip0_773_4100)">
<path d="M8.08569 6.06676C8.10969 6.03901 8.14344 6.02251 8.18019 6.02026C8.22969 6.02251 8.26719 6.06451 8.26494 6.11401C8.26494 6.11551 8.26494 6.11551 8.26494 6.11701C8.26269 6.15451 8.24544 6.19051 8.21844 6.21601C6.98169 7.74676 6.09144 9.53776 6.09144 12.018C6.09144 14.4983 6.98694 16.2518 8.21844 17.7825C8.24619 17.808 8.26269 17.844 8.26494 17.8815C8.27019 17.9303 8.23569 17.9745 8.18619 17.9798C8.18469 17.9798 8.18244 17.9805 8.18094 17.9805C8.14419 17.9783 8.11044 17.961 8.08644 17.934L2.82894 12.8588C2.35494 12.5033 2.25969 11.8298 2.61519 11.3558C2.67594 11.2748 2.74794 11.2028 2.82894 11.142L8.08569 6.06676Z" fill="#EC1528"/>
<path d="M12.105 5.63925C10.0523 5.63925 9.24829 8.55 9.24829 12.0195C9.24829 15.489 10.0643 18.36 12.105 18.36C13.3418 18.36 14.388 17.6378 14.3925 17.0445C14.3918 16.908 14.3348 16.7768 14.2343 16.683C13.6508 16.119 13.4228 15.5558 13.4205 15.0555C13.4273 14.169 14.1248 13.4423 15.0105 13.398C16.056 13.398 16.6725 14.2185 16.6725 15.2828C16.6418 16.1955 16.329 17.0753 15.777 17.8028C15.7598 17.8275 15.75 17.8568 15.75 17.8868C15.744 17.934 15.7785 17.9775 15.8258 17.9835C15.8265 17.9835 15.8265 17.9835 15.8273 17.9835C15.8648 17.9798 15.9 17.961 15.924 17.931L21.1718 12.8565C21.6458 12.501 21.741 11.8275 21.3855 11.3535C21.3248 11.2725 21.2528 11.2005 21.1718 11.1398L15.9143 6.06525C15.8903 6.036 15.8558 6.01725 15.8175 6.01275C15.771 6.01275 15.741 6.057 15.741 6.1095C15.741 6.141 15.7508 6.171 15.768 6.19575C16.3193 6.9225 16.6328 7.80225 16.6635 8.7135C16.6635 9.777 16.0478 10.6005 15.0015 10.6005C14.1188 10.5518 13.4265 9.825 13.4213 8.94075C13.4213 8.44575 13.6508 7.88025 14.235 7.31625C14.3363 7.2225 14.3933 7.0905 14.3933 6.9525C14.3903 6.3615 13.3388 5.63925 12.105 5.63925Z" fill="#005BAA"/>
</g>
<defs>
<clipPath id="clip0_773_4100">
<rect width="24" height="24" fill="white"/>
</clipPath>
</defs>
</svg>
