<svg width="24" height="24" viewBox="0 0 24 24" fill="none" xmlns="http://www.w3.org/2000/svg">
<g clip-path="url(#clip0_773_4101)">
<path d="M8.85981 5.865C9.57831 5.88225 15.7928 5.86725 18.8686 5.86725C20.9851 5.86725 23.9078 5.8155 23.9776 7.011C23.9963 7.33275 24.0091 8.6445 24.0091 9.2535C24.0091 9.97875 23.9101 11.0183 23.8576 11.658C23.8403 11.8178 23.8313 11.9783 23.8306 12.1395C24.3518 17.6842 23.9701 17.922 21.5108 18.0502C9.98256 18.2655 11.4188 18.1987 2.82681 18.0727C-0.700444 18.021 0.0690558 16.0575 0.0690558 15.1447C0.0690558 12.999 0.609056 10.746 0.234056 8.60775C-0.227944 5.98575 -0.494945 5.64675 8.85981 5.865Z" fill="#0052A1"/>
<path fill-rule="evenodd" clip-rule="evenodd" d="M11.1953 13.7482C11.1068 13.7482 11.2065 13.5165 11.3033 13.5472C11.3415 13.563 11.4233 13.6432 11.4113 13.6785C11.4173 13.686 11.4158 13.6965 11.4083 13.7017C11.406 13.704 11.403 13.7047 11.3993 13.7055C11.265 13.7025 11.253 13.7482 11.1953 13.7482ZM11.2065 13.9725C11.2298 14.6865 11.2065 16.5172 11.1833 16.7715C11.175 16.839 11.205 16.9057 11.2605 16.9455C11.3085 16.9582 11.358 16.9635 11.4075 16.9612C11.5658 16.9342 11.5193 16.6215 11.5193 16.6215L11.5425 15.579C11.7083 15.486 11.9018 15.8805 12.1755 15.8805C12.5115 15.8805 13.083 15.618 13.083 14.811C13.083 13.9845 12.5888 13.6567 12.1605 13.6567C11.9213 13.6567 11.6588 13.7145 11.496 13.8577L11.4075 13.734C11.4113 13.737 11.199 13.6635 11.2065 13.9725ZM11.4773 14.5635C11.4953 14.3872 11.5328 14.214 11.589 14.046C11.697 13.8645 11.898 13.899 12.168 13.899C12.6585 13.899 12.7163 14.49 12.7163 14.8065C12.7163 15.4245 12.369 15.6247 12.1253 15.6247C11.8778 15.6247 11.685 15.4507 11.5845 15.2692C11.589 15.27 11.466 14.841 11.4773 14.5635Z" fill="white"/>
<path fill-rule="evenodd" clip-rule="evenodd" d="M13.7512 12.8452C13.728 13.1542 13.7242 13.4512 13.7242 13.521C13.7242 14.1735 13.7625 14.9805 13.7512 15.78C13.7475 15.9075 14.1337 15.8535 14.1337 15.7605C14.118 14.355 14.022 13.9305 14.0872 12.8062C14.0947 12.6945 13.7587 12.7365 13.7512 12.8452ZM13.8825 14.154C13.8832 14.1135 13.8742 14.0737 13.8555 14.0385C13.8247 13.9612 13.848 14.3355 13.8712 14.2545C13.8772 14.2215 13.881 14.1877 13.8825 14.154Z" fill="white"/>
<path fill-rule="evenodd" clip-rule="evenodd" d="M16.3733 15.714C16.323 15.6442 16.3733 15.621 16.3733 15.621C16.338 15.606 16.539 15.9495 16.3733 15.714ZM16.2803 14.8065C16.2263 14.7367 16.3268 14.409 16.3268 14.409C16.2923 14.397 16.35 14.8912 16.2803 14.8065ZM15.0683 15.621L15.1223 15.6367C15.1223 15.8025 15.1148 15.6292 15.0878 15.6832C15.0833 15.6832 15.0023 15.7755 15.0683 15.621ZM16.2645 14.6407L16.2915 15.2587C16.326 15.3705 15.8633 15.603 15.585 15.603C15.3728 15.603 15.1215 15.429 15.1215 15.2512C15.1215 14.8732 16.299 14.4247 16.2683 14.6145L16.2645 14.6407ZM16.5735 15.783C16.662 15.7792 16.6275 15.354 16.6238 15.3045L16.5698 14.3662C16.5563 13.9627 16.2203 13.6462 15.8168 13.656C15.4388 13.656 14.9168 14.046 15.0255 14.0925L15.0638 14.1735C15.2183 14.3205 15.342 13.9455 15.8055 13.911C16.2188 13.8802 16.2885 14.0422 16.2885 14.2815V14.4015L16.1768 14.4285C15.6285 14.556 14.8793 14.6835 14.8793 15.2857C14.8793 15.618 15.1845 15.888 15.5663 15.888C15.8595 15.888 16.0298 15.6217 16.2885 15.5595L16.3695 15.8107L16.5735 15.783Z" fill="white"/>
<path d="M17.7937 14.2192C17.9325 14.0767 18.0367 13.7677 18.4305 13.899C18.7822 14.019 18.759 14.2695 18.7822 14.4817C18.8092 14.64 18.8272 14.7997 18.8362 14.9602C18.84 15.1762 18.7357 15.5745 18.7162 15.7402C18.7005 15.8212 18.8047 15.798 18.8047 15.798L18.9517 15.7785C18.975 15.7417 18.996 15.7027 19.014 15.663C19.2457 15.1995 19.11 14.3617 19.11 14.3617C19.1445 13.8135 18.828 13.6515 18.477 13.6515C18.195 13.6515 18.0022 13.7865 17.7937 13.9297L17.7472 13.806C17.7435 13.7677 17.7315 13.731 17.7127 13.698C17.655 13.6282 17.4427 13.671 17.4427 13.671L17.508 15.7365C17.508 15.7365 17.5702 15.8565 17.643 15.852C17.7052 15.8482 17.7472 15.7365 17.7472 15.7365L17.7937 14.2192Z" fill="white"/>
<path fill-rule="evenodd" clip-rule="evenodd" d="M21.3075 14.718C21.2535 14.6482 21.327 14.5522 21.327 14.5522C21.2888 14.5327 21.3735 14.799 21.3075 14.718ZM20.9565 14.5942C20.6325 14.6445 20.103 14.6752 20.103 14.6752C19.9793 14.679 20.049 14.154 20.3775 13.992C20.4818 13.9417 20.6475 13.8412 20.8178 13.8682C20.9565 13.8952 21.2003 13.9612 21.246 14.1037C21.2573 14.1465 21.3083 14.1195 21.3 14.2237C21.2805 14.4127 21.3578 14.598 21.3 14.6137C21.186 14.595 21.0713 14.589 20.9565 14.5942ZM20.4075 14.8215C20.6198 14.706 21.5663 14.7712 21.5663 14.7712C21.6398 14.76 21.6435 14.5552 21.5625 14.3115C21.5498 14.2372 21.5333 14.1637 21.5123 14.0917C21.4778 14.034 21.4658 14.0805 21.4313 14.022C21.366 13.9102 21.3038 13.8135 21.1845 13.8022C21.15 13.7985 21.1223 13.7062 21.1035 13.698C20.9955 13.6477 20.9025 13.6552 20.7563 13.6552C20.583 13.659 20.4113 13.6942 20.2508 13.7595C20.1428 13.8022 20.1885 13.8022 20.1698 13.8247C20.0078 14.0332 19.8068 14.2762 19.7603 14.7705C19.743 14.8717 19.743 14.9745 19.7603 15.0757C19.9455 15.6352 20.2778 15.8827 20.7563 15.8827C21.1853 15.8827 21.6173 15.354 21.4628 15.3577L21.4358 15.3075C21.3203 15.2767 20.8373 15.7747 20.7293 15.7402C19.9148 15.5242 20.0498 15.1342 20.0498 14.829C20.0453 14.8252 20.2883 14.883 20.4075 14.8215Z" fill="white"/>
<path d="M22.281 13.9612L22.524 13.9687V15.1582C22.524 15.5445 22.4933 15.8842 23.088 15.8842C23.2118 15.8842 23.6243 15.645 23.4743 15.564L23.412 15.5212C23.3468 15.39 23.142 15.672 23.0723 15.7222C22.8525 15.8842 22.8795 15.498 22.8795 15.2895V13.9687L23.37 13.953L23.451 13.8292C23.4488 13.803 23.445 13.7775 23.4398 13.752C23.382 13.578 22.8803 13.713 22.8803 13.713C22.8525 13.6245 22.8405 13.5315 22.8458 13.4385C22.8615 13.3125 22.8593 13.185 22.8383 13.0605C22.8383 13.0605 22.6763 12.9487 22.6028 12.9952C22.578 13.02 22.5593 13.0507 22.5488 13.0837L22.5293 13.713C22.5293 13.713 22.2975 13.6432 22.2323 13.7205C22.1573 13.8022 22.281 13.9605 22.281 13.9612Z" fill="white"/>
<path d="M10.0065 14.7217C10.302 14.7217 10.1775 14.6182 10.6957 14.691C10.7812 14.7 10.9057 14.523 10.9057 14.523L10.866 14.2425C10.731 14.1517 10.5675 14.112 10.4055 14.13C10.0245 14.1787 10.3627 14.1547 10.0792 14.139C9.95996 14.13 9.88721 14.2822 9.88721 14.2822V14.6025C9.88721 14.6025 9.92096 14.7217 10.0065 14.7217Z" fill="white"/>
<path fill-rule="evenodd" clip-rule="evenodd" d="M1.60122 13.0597C1.60722 12.807 1.58922 12.5565 1.71672 12.4192L2.17422 12.3645C3.35697 12.4222 3.67722 12.3277 3.67722 13.188C3.67722 14.0415 2.72622 14.1637 2.07672 14.0872L1.75647 14.0505C1.61922 13.9837 1.58547 13.4505 1.60122 13.0597ZM1.74447 15.4102C1.74447 15.1087 1.78422 14.6295 1.78422 14.6295C1.80222 14.4862 1.93347 14.5747 2.01897 14.5597C2.11647 14.5417 2.28447 14.523 2.28447 14.523C3.39747 14.511 3.87297 14.874 3.87297 15.459C3.87297 15.9922 3.50097 16.578 2.27247 16.4835L1.77822 16.4467C1.56147 16.398 1.74372 15.5992 1.74447 15.4102ZM1.39947 16.8127L2.53947 16.8675C3.95097 16.9312 4.21347 16.0807 4.21347 15.5047C4.21347 14.883 3.86247 14.4682 3.25647 14.2912C3.78372 14.166 4.09497 13.758 4.09497 13.2367C4.09497 12.6907 3.75672 11.9985 2.46072 11.9775L1.47897 11.9595C0.86622 11.9385 1.10097 13.3312 1.07622 14.2275C1.03947 15.243 0.90897 16.9012 1.39947 16.8127Z" fill="white"/>
<path d="M1.60126 13.0597C1.60726 12.807 1.58926 12.5565 1.71676 12.4192L2.17426 12.3645C3.35701 12.4222 3.67726 12.3277 3.67726 13.188C3.67726 14.0415 2.72626 14.1637 2.07676 14.0872L1.75651 14.0505C1.61926 13.9837 1.58551 13.4497 1.60126 13.0597ZM1.74451 15.4102C1.74451 15.1087 1.78426 14.6295 1.78426 14.6295C1.80226 14.4862 1.93351 14.5747 2.01901 14.5597C2.11651 14.5417 2.28451 14.523 2.28451 14.523C3.39751 14.511 3.87301 14.874 3.87301 15.459C3.87301 15.9922 3.50101 16.578 2.27251 16.4835L1.77826 16.4467C1.56151 16.398 1.74451 15.5992 1.74451 15.4102ZM1.39951 16.8127L2.53951 16.8675C3.95101 16.9312 4.21351 16.0807 4.21351 15.5047C4.21351 14.883 3.86251 14.4682 3.25651 14.2912C3.78376 14.166 4.09501 13.758 4.09501 13.2367C4.09501 12.6907 3.75676 11.9985 2.46076 11.9775L1.47901 11.9595C0.86626 11.9385 1.10101 13.3312 1.07626 14.2275C1.04026 15.243 0.90901 16.9012 1.39951 16.8127Z" stroke="white" stroke-width="0.1131" stroke-miterlimit="3.864"/>
<path fill-rule="evenodd" clip-rule="evenodd" d="M5.5613 16.746C5.59205 16.2675 5.52455 15.795 5.52455 15.6877C5.52455 14.6752 5.4728 13.4197 5.4878 12.1755C5.4938 11.9805 4.98755 12.063 4.98755 12.2062C5.00555 14.3925 5.1338 15.051 5.0453 16.7977C5.04305 16.968 5.5493 16.9102 5.5613 16.746Z" fill="white"/>
<path fill-rule="evenodd" clip-rule="evenodd" d="M7.91477 12.3008C8.58227 12.3008 9.36902 12.7853 9.36902 14.2703C9.36902 15.7553 8.58227 16.551 7.91477 16.551C7.24727 16.551 6.55502 15.816 6.55502 14.3318C6.55202 12.8468 7.24427 12.3008 7.91477 12.3008ZM7.91477 11.877C6.91202 11.877 6.17102 12.813 6.17102 14.4225C6.17102 16.032 6.91202 16.968 7.91477 16.968C8.91752 16.968 9.65852 16.032 9.65852 14.4225C9.65852 12.813 8.91452 11.877 7.91477 11.877Z" fill="white"/>
<path d="M7.91477 12.3008C8.58227 12.3008 9.36902 12.7853 9.36902 14.2703C9.36902 15.7553 8.58227 16.551 7.91477 16.551C7.24727 16.551 6.55502 15.816 6.55502 14.3318C6.55202 12.8468 7.24427 12.3008 7.91477 12.3008ZM7.91477 11.877C6.91202 11.877 6.17102 12.813 6.17102 14.4225C6.17102 16.032 6.91202 16.968 7.91477 16.968C8.91752 16.968 9.65852 16.032 9.65852 14.4225C9.65852 12.813 8.91452 11.877 7.91477 11.877Z" stroke="white" stroke-width="0.1116" stroke-miterlimit="3.864"/>
<path d="M12.3285 11.8057C12.5692 11.766 12.7522 11.7847 13.1152 11.6047C13.4782 11.4247 13.6185 11.5252 13.719 11.2237C13.8195 10.9222 13.8015 11.2237 14.0205 10.9432C14.2432 10.6627 14.1607 10.803 14.1817 10.6837C14.2027 10.5645 14.2642 10.4827 14.304 10.3027C14.3437 10.1227 14.4652 10.1835 14.487 9.94274C14.5087 9.70199 14.5477 9.86324 14.5267 9.66224C14.505 9.46124 14.4442 9.32099 14.4262 9.10124C14.4052 8.88149 14.5485 8.72024 14.3865 8.47949C14.2252 8.23874 14.2035 8.09849 13.923 7.79999C13.6425 7.49849 14.0235 7.58024 13.542 7.37924C13.0575 7.17824 12.978 7.07774 12.7372 7.03799C12.4965 6.99824 12.4747 6.87974 12.1942 6.91874C11.9137 6.95774 11.853 6.85799 11.5695 6.93974C11.289 7.01924 11.307 7.09799 11.106 7.15949C10.905 7.22099 11.0055 7.09874 10.6027 7.33949C10.2 7.58024 10.3012 7.61999 10.2 7.72049C10.0987 7.82099 9.93748 7.86074 9.91948 8.00099C9.89848 8.14124 9.85873 8.18099 9.81898 8.38199C9.77923 8.58299 9.61798 8.38199 9.61798 8.66249C9.61798 8.94299 9.63898 8.90324 9.61798 9.00374C9.59698 9.10424 9.43498 9.20474 9.47773 9.30524C9.51748 9.40574 9.45673 9.42449 9.51748 9.66524C9.57823 9.90599 9.63973 9.92474 9.67873 10.1467C9.71848 10.3665 9.71848 10.3875 9.77923 10.5067C9.83998 10.626 10.0807 10.827 10.182 11.007C10.2825 11.187 10.3432 11.2267 10.563 11.388C10.7857 11.5462 10.8037 11.568 11.0662 11.6475C11.3287 11.727 11.289 11.8275 11.508 11.8275C11.7307 11.8275 11.688 11.727 11.9317 11.8065C12.1672 11.8852 12.0877 11.8455 12.3285 11.8057Z" fill="white"/>
<path fill-rule="evenodd" clip-rule="evenodd" d="M12.3503 7.10775C12.4726 7.11675 12.9233 7.19926 13.2466 7.428C13.5698 7.65975 13.8413 7.93725 13.9508 8.14725C14.0603 8.358 14.1121 8.43675 14.1121 8.43675C14.1121 8.43675 14.1428 8.577 14.0723 8.547C14.0026 8.517 13.9898 8.60775 14.0723 8.60775C14.1518 8.60775 14.1638 8.55901 14.1638 8.55901C14.2508 8.74501 14.3018 8.94525 14.3131 9.15075C14.3221 9.462 14.3341 9.52276 14.2823 9.80326C14.2336 10.0838 14.3131 9.83401 14.2118 9.86401C14.1106 9.89401 14.2516 9.95551 14.0506 9.99526C13.9208 10.02 13.7896 10.0365 13.6576 10.044C13.7056 10.0125 13.7648 10.005 13.8188 10.023C13.8863 10.047 13.9598 10.05 14.0288 10.032C14.1083 10.023 14.2118 9.90075 14.2298 9.9405C14.2411 9.9585 14.2441 9.98101 14.2388 10.0013C14.2111 10.1475 14.1563 10.287 14.0776 10.413C13.9463 10.623 13.9066 10.7243 13.6748 10.974C13.4431 11.2238 13.1198 11.3948 12.9706 11.4743C12.8926 11.5163 12.8123 11.553 12.7298 11.5845C12.7298 11.5845 12.7388 11.6055 12.7388 11.505C12.7358 11.439 12.7111 11.376 12.6691 11.325C12.6946 11.3813 12.7051 11.4435 12.6998 11.505C12.6923 11.5395 12.6758 11.571 12.6511 11.5965C12.5423 11.6408 12.4268 11.6678 12.3098 11.676C11.9956 11.7128 11.6776 11.6858 11.3738 11.5965C11.0626 11.496 10.7393 11.3865 10.4468 11.0963C10.1543 10.8068 9.95256 10.5563 9.83106 10.2458C9.70881 9.9345 9.70881 9.846 9.70881 9.846L9.69981 9.7665C9.65931 9.51376 9.65931 9.2565 9.69981 9.0045C9.76956 8.6355 9.82206 8.352 10.2031 7.93425C10.5871 7.5135 10.6756 7.46475 10.9778 7.3125C11.2103 7.18425 11.4691 7.1085 11.7338 7.092C11.9393 7.06725 12.1471 7.0725 12.3503 7.10775Z" fill="#0075C1"/>
<path d="M12.048 8.60249C11.9258 8.58149 12.0083 8.51099 11.9078 8.57174C11.8073 8.63249 11.8988 8.61149 11.7975 8.55074C11.6963 8.48999 11.706 8.50199 11.6663 8.54174C11.6265 8.58149 11.7458 8.63324 11.5958 8.67299C11.4435 8.71274 11.556 8.77349 11.4555 8.80424C11.355 8.83499 11.2943 8.70374 11.2943 8.70374C11.2943 8.70374 11.154 8.66399 11.142 8.75249C11.133 8.84399 10.9808 8.87174 10.941 8.92349C10.9013 8.97224 10.8098 8.83199 10.7798 8.90249C10.749 8.97299 10.6575 8.80199 10.6088 8.94224C10.56 9.08249 10.6785 9.41174 10.74 9.48224C10.8015 9.55274 10.923 9.40274 11.0115 9.64049C11.103 9.88124 11.2433 9.94199 11.292 10.0402C11.3408 10.1377 11.4233 10.08 11.4413 10.2202C11.4623 10.3605 11.472 10.3695 11.3805 10.5217C11.289 10.671 11.2283 10.6222 11.1975 10.7415C11.1668 10.86 11.1885 10.8907 11.115 10.9822C11.0445 11.0737 11.1758 11.022 10.9928 11.0925C10.8098 11.163 10.7213 11.1015 10.761 11.1622C10.8008 11.223 11.0138 11.3332 11.0535 11.2725C11.0933 11.2117 11.0138 11.2327 11.2455 11.1232C11.4773 11.0137 11.6085 10.782 11.8005 10.7332C11.9925 10.6845 12.0503 10.764 12.1635 10.5045C12.2738 10.245 12.246 9.76349 12.4958 9.76349C12.7485 9.76349 12.606 9.74549 12.6878 9.53474C12.7673 9.32474 12.5963 9.31499 12.7485 9.26324C12.9008 9.21449 12.8588 9.18374 12.9195 9.20249C12.9803 9.22349 13.011 9.19349 13.0718 9.23324C13.1453 9.26699 13.2233 9.29024 13.3035 9.30299C13.3035 9.30299 13.2428 9.31199 13.3523 9.48299C13.4618 9.65399 13.6538 9.62324 13.6238 9.74249C13.5938 9.86174 13.4528 10.212 13.5233 10.0717C13.593 9.93149 13.5938 9.90074 13.8248 9.83999C13.9635 9.81149 14.0925 9.74624 14.1968 9.65099C14.2395 9.61349 14.271 9.56474 14.2883 9.51074C14.2883 9.51074 14.2973 9.26999 14.2883 9.05924C14.2793 8.84849 14.2088 8.79974 14.1968 8.73899C14.1878 8.67824 14.1878 8.54699 14.157 8.59874C14.1263 8.64749 14.1083 8.61974 14.0775 8.52899C14.0468 8.43824 14.1473 8.44949 14.0685 8.34899C13.986 8.24849 13.9073 8.34899 13.8278 8.48024C13.7483 8.61149 13.779 8.54999 13.767 8.48924C13.758 8.42849 13.758 8.28824 13.758 8.28824C13.758 8.28824 13.6088 7.98674 13.557 8.09924C13.5053 8.20949 13.3253 8.62049 13.3253 8.68124C13.3253 8.74199 13.2945 8.95274 13.2248 9.01049C13.155 9.07124 13.0538 9.14174 12.975 9.03149C12.8925 8.92124 12.5603 8.85149 12.5115 8.88224C12.4628 8.91299 12.1185 8.77199 12.1185 8.72099C12.1178 8.67224 12.1665 8.62049 12.048 8.60249Z" fill="white"/>
<path d="M12.048 8.60249C11.9258 8.58149 12.0083 8.51099 11.9078 8.57174C11.8073 8.63249 11.8988 8.61149 11.7975 8.55074C11.6963 8.48999 11.706 8.50199 11.6663 8.54174C11.6265 8.58149 11.7458 8.63324 11.5958 8.67299C11.4435 8.71274 11.556 8.77349 11.4555 8.80424C11.355 8.83499 11.2943 8.70374 11.2943 8.70374C11.2943 8.70374 11.154 8.66399 11.142 8.75249C11.133 8.84399 10.9808 8.87174 10.941 8.92349C10.9013 8.97224 10.8098 8.83199 10.7798 8.90249C10.749 8.97299 10.6575 8.80199 10.6088 8.94224C10.56 9.08249 10.6785 9.41174 10.74 9.48224C10.8015 9.55274 10.923 9.40274 11.0115 9.64049C11.103 9.88124 11.2433 9.94199 11.292 10.0402C11.3408 10.1377 11.4233 10.08 11.4413 10.2202C11.4623 10.3605 11.472 10.3695 11.3805 10.5217C11.289 10.671 11.2283 10.6222 11.1975 10.7415C11.1668 10.86 11.1885 10.8907 11.115 10.9822C11.0445 11.0737 11.1758 11.022 10.9928 11.0925C10.8098 11.163 10.7213 11.1015 10.761 11.1622C10.8008 11.223 11.0138 11.3332 11.0535 11.2725C11.0933 11.2117 11.0138 11.2327 11.2455 11.1232C11.4773 11.0137 11.6085 10.782 11.8005 10.7332C11.9925 10.6845 12.0503 10.764 12.1635 10.5045C12.2738 10.245 12.246 9.76349 12.4958 9.76349C12.7485 9.76349 12.606 9.74549 12.6878 9.53474C12.7673 9.32474 12.5963 9.31499 12.7485 9.26324C12.9008 9.21449 12.8588 9.18374 12.9195 9.20249C12.9803 9.22349 13.011 9.19349 13.0718 9.23324C13.1453 9.26699 13.2233 9.29024 13.3035 9.30299C13.3035 9.30299 13.2428 9.31199 13.3523 9.48299C13.4618 9.65399 13.6538 9.62324 13.6238 9.74249C13.5938 9.86174 13.4528 10.212 13.5233 10.0717C13.593 9.93149 13.5938 9.90074 13.8248 9.83999C13.9635 9.81149 14.0925 9.74624 14.1968 9.65099C14.2395 9.61349 14.271 9.56474 14.2883 9.51074C14.2883 9.51074 14.2973 9.26999 14.2883 9.05924C14.2793 8.84849 14.2088 8.79974 14.1968 8.73899C14.1878 8.67824 14.1878 8.54699 14.157 8.59874C14.1263 8.64749 14.1083 8.61974 14.0775 8.52899C14.0468 8.43824 14.1473 8.44949 14.0685 8.34899C13.986 8.24849 13.9073 8.34899 13.8278 8.48024C13.7483 8.61149 13.779 8.54999 13.767 8.48924C13.758 8.42849 13.758 8.28824 13.758 8.28824C13.758 8.28824 13.6088 7.98674 13.557 8.09924C13.5053 8.20949 13.3253 8.62049 13.3253 8.68124C13.3253 8.74199 13.2945 8.95274 13.2248 9.01049C13.155 9.07124 13.0538 9.14174 12.975 9.03149C12.8925 8.92124 12.5603 8.85149 12.5115 8.88224C12.4628 8.91299 12.1185 8.77199 12.1185 8.72099C12.1185 8.67224 12.1673 8.62049 12.048 8.60249Z" stroke="white" stroke-width="0.099525" stroke-miterlimit="3.864"/>
<path d="M11.4233 8.40075C11.283 8.352 11.2223 8.49225 11.262 8.30925C11.3018 8.12925 11.07 8.30025 11.061 8.20875C11.052 8.11725 11.1308 8.0775 11.1615 7.99875C11.187 7.935 11.2568 7.9005 11.3228 7.91925C11.3715 7.92825 11.3715 7.93725 11.5028 7.8705C11.634 7.80075 11.6033 7.77 11.613 7.72125C11.6228 7.6725 11.7233 7.6725 11.6438 7.581C11.5643 7.4895 11.3423 7.53225 11.421 7.46175C11.4998 7.39125 11.4818 7.3515 11.5823 7.401C11.6828 7.44975 11.622 7.4805 11.8628 7.422C12.1035 7.36125 11.9115 7.3425 12.024 7.30275C12.1343 7.263 12.1553 7.31175 12.1733 7.21125C12.1943 7.11075 12.1643 7.101 12.234 7.11975C12.3038 7.14075 12.5265 7.12875 12.7065 7.19925C12.8895 7.269 13.1303 7.3605 13.2795 7.47975C13.3935 7.56075 13.4978 7.65525 13.5908 7.76025C13.6305 7.821 13.5998 7.76925 13.4685 7.8C13.3373 7.83075 13.0538 7.8 13.1453 7.8795C13.2368 7.959 13.4078 7.94025 13.377 7.98975C13.3463 8.03925 13.398 8.09025 13.3463 8.16075C13.2975 8.2305 13.416 8.6025 13.3463 8.502C13.2765 8.4015 12.9833 8.121 12.9135 8.2005C12.8438 8.28 12.8828 8.2215 12.9533 8.292C13.023 8.3625 13.0935 8.35275 13.1453 8.472C13.194 8.59125 13.3283 8.664 13.0658 8.643C12.804 8.622 12.633 8.60325 12.633 8.5425C12.633 8.48175 12.5625 8.5335 12.6023 8.3625C12.642 8.1915 12.7943 8.22225 12.6233 8.1705C12.4523 8.12175 12.513 8.05125 12.4313 8.13075C12.3495 8.21025 12.309 8.1705 12.3398 8.289C12.3705 8.4075 12.462 8.45025 12.3398 8.42925C12.2175 8.40825 12.2175 8.469 12.1568 8.43825C12.096 8.4075 12.0045 8.45925 12.096 8.319C12.1875 8.17875 12.1785 8.109 12.117 8.07825C12.0645 8.04375 12.0068 8.01675 11.946 7.99875C11.8635 7.98075 11.8853 7.77 11.6745 7.99875C11.4645 8.2305 11.5523 8.118 11.5133 8.2305C11.4735 8.34075 11.5043 8.37975 11.5043 8.37975C11.5043 8.37975 11.5635 8.4525 11.4233 8.40075Z" fill="white"/>
<path d="M10.5967 7.54127C10.5967 7.54127 10.2952 7.69951 10.155 7.90126C10.0147 8.10301 9.74325 8.59651 9.6915 8.83426C9.642 9.06826 9.639 9.30976 9.6825 9.54451C9.71325 9.65476 9.6915 9.87376 9.72225 9.71551C9.753 9.55426 9.8325 9.52351 9.8835 9.58426C9.9345 9.64501 10.1152 9.86476 10.0237 9.54451C9.93225 9.22426 9.72225 9.61426 9.92325 9.17251C10.1242 8.73376 10.176 8.69101 10.146 8.59351C10.1152 8.49301 10.1062 8.28226 10.1947 8.20351C10.2862 8.12401 10.2255 7.84351 10.356 7.93201C10.4872 8.02351 10.4662 8.20351 10.527 7.96276C10.5877 7.72201 10.4475 7.78276 10.6065 7.70326C10.7677 7.62001 10.5967 7.54052 10.5967 7.54127Z" fill="white"/>
<path d="M10.5967 7.54126C10.5967 7.54126 10.2952 7.69951 10.155 7.90126C10.0147 8.10301 9.74325 8.59651 9.6915 8.83426C9.642 9.06826 9.639 9.30976 9.6825 9.54451C9.71325 9.65476 9.6915 9.87376 9.72225 9.71551C9.753 9.55426 9.8325 9.52351 9.8835 9.58426C9.9345 9.64501 10.1152 9.86476 10.0237 9.54451C9.93225 9.22426 9.72225 9.61426 9.92325 9.17251C10.1242 8.73376 10.176 8.69101 10.146 8.59351C10.1152 8.49301 10.1062 8.28226 10.1947 8.20351C10.2862 8.12401 10.2255 7.84351 10.356 7.93201C10.4872 8.02351 10.4662 8.20351 10.527 7.96276C10.5877 7.72201 10.4475 7.78276 10.6065 7.70326C10.7677 7.62001 10.5967 7.54126 10.5967 7.54126Z" stroke="white" stroke-width="0.099525" stroke-miterlimit="3.864"/>
<path fill-rule="evenodd" clip-rule="evenodd" d="M10.6972 10.035C10.6762 9.89475 10.737 9.7635 10.6762 9.89475C10.6155 10.026 10.6065 9.9345 10.6552 10.044C10.704 10.1535 10.6462 10.2052 10.6462 10.2052C10.6462 10.2052 10.719 10.1752 10.6972 10.035Z" fill="white"/>
<path d="M10.6972 10.035C10.6762 9.89475 10.737 9.7635 10.6762 9.89475C10.6155 10.026 10.6065 9.9345 10.6552 10.044C10.704 10.1535 10.6462 10.2052 10.6462 10.2052C10.6462 10.2052 10.719 10.1752 10.6972 10.035Z" stroke="white" stroke-width="0.099525" stroke-miterlimit="3.864"/>
<path d="M13.368 9.40349C13.4903 9.56174 13.4595 9.61349 13.4595 9.61349C13.4595 9.61349 13.3988 9.68324 13.4198 9.74474C13.4415 9.80549 13.5023 9.75374 13.4805 9.87599C13.4595 9.99524 13.4198 10.086 13.4715 10.077C13.5203 10.068 13.4925 10.1467 13.554 10.0462C13.6155 9.94574 13.353 9.94574 13.6455 9.91499C13.938 9.88424 13.8863 9.88424 13.908 9.78374C13.9298 9.68324 13.8683 9.61274 13.7858 9.55199C13.701 9.49199 13.2465 9.24224 13.368 9.40349Z" fill="white"/>
<path d="M13.3679 9.40349C13.4902 9.56174 13.4594 9.61349 13.4594 9.61349C13.4594 9.61349 13.3987 9.68324 13.4197 9.74474C13.4414 9.80549 13.5022 9.75374 13.4804 9.87599C13.4594 9.99524 13.4197 10.086 13.4714 10.077C13.5202 10.068 13.4924 10.1467 13.5539 10.0462C13.6154 9.94574 13.3529 9.94574 13.6454 9.91499C13.9379 9.88424 13.8862 9.88424 13.9079 9.78374C13.9297 9.68324 13.8682 9.61274 13.7857 9.55199C13.7002 9.49199 13.2464 9.24224 13.3679 9.40349Z" stroke="white" stroke-width="0.099525" stroke-miterlimit="3.864"/>
<path d="M11.3625 11.2057C11.3933 11.1052 11.3318 11.0745 11.3933 11.0865C11.454 11.0955 11.5155 11.1262 11.5455 11.0655C11.5763 11.0047 11.5148 10.9957 11.6153 10.9957C11.7158 10.9957 11.8073 10.8157 11.7863 10.965C11.7758 11.0512 11.7278 11.1277 11.655 11.175C11.5913 11.1915 11.5305 11.2185 11.475 11.2545C11.4353 11.2942 11.496 11.3947 11.3925 11.3647C11.292 11.334 11.1698 11.2545 11.2125 11.2642C11.2523 11.2755 11.3318 11.3062 11.3625 11.2057Z" fill="white"/>
<path d="M11.3625 11.2057C11.3933 11.1052 11.3318 11.0745 11.3933 11.0865C11.454 11.0955 11.5155 11.1262 11.5455 11.0655C11.5763 11.0047 11.5148 10.9957 11.6153 10.9957C11.7158 10.9957 11.8073 10.8157 11.7863 10.965C11.7758 11.0512 11.7278 11.1277 11.655 11.175C11.5913 11.1915 11.5305 11.2185 11.475 11.2545C11.4353 11.2942 11.496 11.3947 11.3925 11.3647C11.292 11.334 11.1698 11.2545 11.2125 11.2642C11.2523 11.2755 11.3318 11.3062 11.3625 11.2057Z" stroke="white" stroke-width="0.099525" stroke-miterlimit="3.864"/>
<path d="M10.5967 7.54127C10.5967 7.54127 10.2952 7.69951 10.155 7.90126C10.0147 8.10301 9.74325 8.59651 9.6915 8.83426C9.642 9.06826 9.639 9.30976 9.6825 9.54451C9.71325 9.65476 9.6915 9.87376 9.72225 9.71551C9.753 9.55426 9.8325 9.52351 9.8835 9.58426C9.9345 9.64501 10.0935 9.88576 10.0057 9.56626C9.91425 9.24601 9.72525 9.56626 9.92325 9.12452C10.1242 8.68277 10.176 8.69476 10.146 8.59426C10.116 8.49376 10.0635 8.30476 10.155 8.22226C10.2465 8.14276 10.2247 7.84126 10.356 7.93276C10.4872 8.02426 10.4662 8.20426 10.527 7.96351C10.5877 7.72276 10.4475 7.78351 10.6065 7.70401C10.7677 7.62001 10.5967 7.54052 10.5967 7.54127Z" fill="#C3D60B"/>
<path fill-rule="evenodd" clip-rule="evenodd" d="M12.048 8.60175C11.9258 8.58075 12.0083 8.51025 11.9078 8.571C11.8073 8.63175 11.8988 8.61075 11.7975 8.55C11.6963 8.48925 11.706 8.50125 11.6663 8.541C11.6265 8.58075 11.7458 8.6325 11.5958 8.67225C11.4435 8.712 11.556 8.77275 11.4555 8.8035C11.355 8.83425 11.2943 8.703 11.2943 8.703C11.2943 8.703 11.154 8.66325 11.142 8.75175C11.133 8.84325 10.9808 8.871 10.941 8.92275C10.9013 8.9715 10.8098 8.83125 10.7798 8.90175C10.749 8.97225 10.6575 8.80125 10.6088 8.9415C10.56 9.08175 10.6785 9.411 10.74 9.4815C10.8015 9.552 10.923 9.402 11.0115 9.63975C11.103 9.8805 11.2433 9.94125 11.292 10.0395C11.3408 10.137 11.4233 10.0793 11.4413 10.2195C11.4623 10.3598 11.472 10.3688 11.3805 10.521C11.289 10.6703 11.2283 10.6215 11.1975 10.7408C11.1668 10.8593 11.1885 10.89 11.115 10.9815C11.0445 11.073 11.1758 11.0213 10.9928 11.0918C10.8098 11.1623 10.7213 11.1008 10.761 11.1615C10.8008 11.2223 11.0138 11.3325 11.0535 11.2718C11.0933 11.211 11.0535 11.1405 11.2853 11.031C11.517 10.9215 11.6085 10.7813 11.7975 10.7295C11.9895 10.6808 12.0203 10.7205 12.1298 10.458C12.24 10.1985 12.24 9.75675 12.4928 9.75675C12.7455 9.75675 12.5535 9.74775 12.633 9.537C12.7155 9.327 12.5933 9.30525 12.7433 9.2565C12.8955 9.20775 12.8535 9.177 12.9143 9.19575C12.975 9.21675 13.0058 9.18675 13.0665 9.2265C13.14 9.26025 13.218 9.2835 13.2983 9.29625C13.2983 9.29625 13.2893 9.2655 13.3988 9.4365C13.5083 9.6075 13.6515 9.6165 13.6215 9.738C13.5908 9.85725 13.4505 10.2075 13.521 10.0673C13.5908 9.927 13.5818 9.8475 13.8135 9.78675C14.0453 9.726 14.1248 9.70725 14.1945 9.6465C14.2373 9.609 14.2688 9.56025 14.286 9.50625C14.286 9.50625 14.295 9.2655 14.286 9.05475C14.277 8.844 14.2065 8.79525 14.1945 8.7345C14.1855 8.67375 14.1855 8.5425 14.1548 8.59425C14.124 8.643 14.106 8.61525 14.0753 8.5245C14.0445 8.433 14.1458 8.445 14.0663 8.3445C13.9838 8.244 13.905 8.3445 13.8255 8.47575C13.746 8.607 13.7768 8.5455 13.7648 8.48475C13.7558 8.424 13.7558 8.28375 13.7558 8.28375C13.7558 8.28375 13.6065 7.98225 13.5548 8.09475C13.503 8.205 13.323 8.616 13.323 8.67675C13.323 8.7375 13.2923 8.94825 13.2225 9.006C13.1528 9.06675 13.0515 9.13725 12.9728 9.027C12.8903 8.91675 12.558 8.847 12.5093 8.87775C12.4605 8.9085 12.1163 8.7675 12.1163 8.7165C12.1185 8.67225 12.1673 8.6205 12.048 8.60175Z" fill="#C3D60B"/>
<path d="M10.71 10.044C10.689 9.90376 10.7408 9.76351 10.6793 9.89476C10.6185 10.026 10.6095 9.93451 10.6583 10.044C10.707 10.1535 10.6493 10.2023 10.6493 10.2023C10.6493 10.2023 10.728 10.1835 10.71 10.044Z" fill="#C3D60B"/>
<path d="M13.368 9.40349C13.4903 9.56174 13.4595 9.61349 13.4595 9.61349C13.4595 9.61349 13.3988 9.68324 13.4198 9.74474C13.4415 9.80549 13.5023 9.75374 13.4805 9.87599C13.4595 9.99524 13.4198 10.086 13.4715 10.077C13.5203 10.068 13.4925 10.1467 13.554 10.0462C13.6155 9.94574 13.353 9.94574 13.6455 9.91499C13.938 9.88424 13.8863 9.88424 13.908 9.78374C13.9298 9.68324 13.8683 9.61274 13.7858 9.55199C13.701 9.49199 13.2465 9.24224 13.368 9.40349Z" fill="#C3D60B"/>
<path d="M11.3624 11.2058C11.3932 11.1053 11.3714 11.145 11.4322 11.157C11.4929 11.166 11.5117 11.1263 11.5424 11.0655C11.5732 11.0048 11.5117 10.995 11.6122 10.995C11.7127 10.995 11.8042 10.815 11.7832 10.9643C11.7727 11.0505 11.7247 11.127 11.6519 11.1743C11.5882 11.1908 11.5274 11.2178 11.4719 11.2538C11.4322 11.2935 11.4929 11.394 11.3894 11.364C11.2889 11.3333 11.1667 11.2538 11.2094 11.2635C11.2522 11.2755 11.3317 11.3063 11.3624 11.2058Z" fill="#C3D60B"/>
<path d="M11.4233 8.40075C11.283 8.352 11.2223 8.49225 11.262 8.30925C11.3018 8.12925 11.07 8.30025 11.061 8.20875C11.052 8.11725 11.1308 8.0775 11.1615 7.99875C11.187 7.935 11.2568 7.9005 11.3228 7.91925C11.3715 7.92825 11.3715 7.93725 11.5028 7.8705C11.634 7.80075 11.6033 7.77 11.613 7.72125C11.6228 7.6725 11.7233 7.6725 11.6438 7.581C11.5643 7.4895 11.3423 7.53225 11.421 7.46175C11.4998 7.39125 11.4818 7.3515 11.5823 7.401C11.6828 7.44975 11.622 7.4805 11.8628 7.422C12.1035 7.36125 11.9115 7.3425 12.024 7.30275C12.1343 7.263 12.1553 7.31175 12.1733 7.21125C12.1943 7.11075 12.1643 7.101 12.234 7.11975C12.3038 7.14075 12.5265 7.12875 12.7065 7.19925C12.8895 7.269 13.1303 7.3605 13.2795 7.47975C13.3935 7.56075 13.4978 7.65525 13.5908 7.76025C13.6305 7.821 13.5998 7.76925 13.4685 7.8C13.3373 7.83075 13.0538 7.8 13.1453 7.8795C13.2368 7.959 13.4775 7.971 13.4468 8.01975C13.416 8.0685 13.3463 8.09925 13.2975 8.169C13.2458 8.23875 13.4198 8.59875 13.3463 8.49825C13.2758 8.39775 12.9833 8.11725 12.9135 8.19675C12.8438 8.27625 12.8828 8.21775 12.9533 8.28825C13.023 8.35875 13.0935 8.349 13.1453 8.46825C13.194 8.5875 13.3283 8.66025 13.0658 8.63925C12.8033 8.61825 12.633 8.5995 12.633 8.53875C12.633 8.478 12.5625 8.52975 12.6023 8.35875C12.642 8.18775 12.7943 8.2185 12.6233 8.16675C12.4523 8.118 12.513 8.0475 12.4313 8.127C12.3495 8.2065 12.309 8.16675 12.3398 8.28525C12.3705 8.40375 12.462 8.4465 12.3398 8.4255C12.2175 8.4045 12.2175 8.46525 12.1568 8.4345C12.096 8.40375 12.0045 8.4555 12.096 8.31525C12.1875 8.175 12.1785 8.10525 12.117 8.0745C12.0645 8.04 12.0068 8.013 11.946 7.995C11.8635 7.977 11.8853 7.76625 11.6745 7.995C11.4645 8.22675 11.5523 8.11425 11.5133 8.22675C11.4735 8.337 11.5043 8.376 11.5043 8.376C11.5043 8.376 11.5635 8.4525 11.4233 8.40075Z" fill="white"/>
<path d="M11.4233 8.40075C11.283 8.352 11.2223 8.49225 11.262 8.30925C11.3018 8.12925 11.07 8.30025 11.061 8.20875C11.052 8.11725 11.1308 8.0775 11.1615 7.99875C11.187 7.935 11.2568 7.9005 11.3228 7.91925C11.3715 7.92825 11.3715 7.93725 11.5028 7.8705C11.634 7.80075 11.6033 7.77 11.613 7.72125C11.6228 7.6725 11.7233 7.6725 11.6438 7.581C11.5643 7.4895 11.3423 7.53225 11.421 7.46175C11.4998 7.39125 11.4818 7.3515 11.5823 7.401C11.6828 7.44975 11.622 7.4805 11.8628 7.422C12.1035 7.36125 11.9115 7.3425 12.024 7.30275C12.1343 7.263 12.1553 7.31175 12.1733 7.21125C12.1943 7.11075 12.1643 7.101 12.234 7.11975C12.3038 7.14075 12.5265 7.12875 12.7065 7.19925C12.8895 7.269 13.1303 7.3605 13.2795 7.47975C13.3935 7.56075 13.4978 7.65525 13.5908 7.76025C13.6305 7.821 13.5998 7.76925 13.4685 7.8C13.3373 7.83075 13.0538 7.8 13.1453 7.8795C13.2368 7.959 13.4775 7.971 13.4468 8.01975C13.416 8.0685 13.3463 8.09925 13.2975 8.169C13.2458 8.23875 13.4198 8.59875 13.3463 8.49825C13.2758 8.39775 12.9833 8.11725 12.9135 8.19675C12.8438 8.27625 12.8828 8.21775 12.9533 8.28825C13.023 8.35875 13.0935 8.349 13.1453 8.46825C13.194 8.5875 13.3283 8.66025 13.0658 8.63925C12.8033 8.61825 12.633 8.5995 12.633 8.53875C12.633 8.478 12.5625 8.52975 12.6023 8.35875C12.642 8.18775 12.7943 8.2185 12.6233 8.16675C12.4523 8.118 12.513 8.0475 12.4313 8.127C12.3495 8.2065 12.309 8.16675 12.3398 8.28525C12.3705 8.40375 12.462 8.4465 12.3398 8.4255C12.2175 8.4045 12.2175 8.46525 12.1568 8.4345C12.096 8.40375 12.0045 8.4555 12.096 8.31525C12.1875 8.175 12.1785 8.10525 12.117 8.0745C12.0645 8.04 12.0068 8.013 11.946 7.995C11.8635 7.977 11.8853 7.76625 11.6745 7.995C11.4645 8.22675 11.5523 8.11425 11.5133 8.22675C11.4735 8.337 11.5043 8.376 11.5043 8.376C11.5043 8.376 11.5635 8.4525 11.4233 8.40075Z" stroke="white" stroke-width="0.099525" stroke-miterlimit="3.864"/>
<path d="M11.4233 8.40075C11.283 8.352 11.2223 8.49225 11.262 8.30925C11.3018 8.12925 11.07 8.30025 11.061 8.20875C11.052 8.11725 11.1308 8.0775 11.1615 7.99875C11.187 7.935 11.2568 7.9005 11.3228 7.91925C11.3715 7.92825 11.3715 7.93725 11.5028 7.8705C11.634 7.80075 11.6033 7.77 11.613 7.72125C11.6228 7.6725 11.7233 7.6725 11.6438 7.581C11.5643 7.4895 11.3423 7.53225 11.421 7.46175C11.4998 7.39125 11.4818 7.3515 11.5823 7.401C11.6828 7.44975 11.622 7.4805 11.8628 7.422C12.1035 7.36125 11.9115 7.3425 12.024 7.30275C12.1343 7.263 12.1553 7.31175 12.1733 7.21125C12.1943 7.11075 12.1643 7.101 12.234 7.11975C12.3038 7.14075 12.5265 7.12875 12.7065 7.19925C12.8895 7.269 13.1303 7.3605 13.2795 7.47975C13.3935 7.56075 13.4978 7.65525 13.5908 7.76025C13.6305 7.821 13.5998 7.76925 13.4685 7.8C13.3373 7.83075 13.0538 7.8 13.1453 7.8795C13.2368 7.959 13.4378 8.01075 13.4078 8.0595C13.3778 8.10825 13.338 8.0685 13.2855 8.139C13.2368 8.20875 13.4168 8.5995 13.3463 8.499C13.2758 8.3985 12.9833 8.118 12.9135 8.1975C12.8438 8.277 12.8828 8.2185 12.9533 8.289C13.023 8.3595 13.0328 8.32875 13.0845 8.45025C13.1363 8.5695 13.3253 8.66025 13.0665 8.63925C12.804 8.61825 12.6338 8.5995 12.6338 8.53875C12.6338 8.478 12.5633 8.52975 12.603 8.35875C12.6428 8.18775 12.795 8.2185 12.624 8.16675C12.453 8.118 12.5138 8.0475 12.432 8.127C12.3503 8.2065 12.3098 8.16675 12.3405 8.28525C12.3713 8.40375 12.4628 8.4465 12.3405 8.4255C12.2183 8.4045 12.2183 8.46525 12.1575 8.4345C12.0968 8.40375 12.0053 8.4555 12.0968 8.31525C12.1883 8.175 12.1793 8.10525 12.1178 8.0745C12.0653 8.04 12.0075 8.013 11.9468 7.995C11.8643 7.977 11.886 7.76625 11.6753 7.995C11.4653 8.22675 11.553 8.11425 11.514 8.22675C11.4743 8.337 11.505 8.376 11.505 8.376C11.505 8.376 11.5635 8.4525 11.4233 8.40075Z" fill="#C3D60B"/>
<path d="M10.146 7.76325L9.94798 7.96425C9.94798 7.96425 7.95748 7.78725 7.57648 8.0925C7.19548 8.39775 7.20448 8.4885 7.30498 8.69325C7.40548 8.898 7.75348 9.324 8.25298 9.5745C8.75023 9.82125 9.44173 10.1633 9.89923 10.3155C10.3567 10.4678 11.5455 10.8248 11.802 10.8825C12.0585 10.9403 13.4392 11.184 13.7377 11.2088C14.0362 11.2298 15.1672 11.2943 15.585 11.2298C16.0057 11.163 16.521 11.0258 16.5945 10.8825C16.6537 10.7843 16.6867 10.6718 16.689 10.5563C16.689 10.4558 16.5547 10.0838 16.146 9.843C15.7372 9.60525 14.3347 9.0075 14.3347 9.0075L14.3497 8.76375C14.3497 8.76375 16.0995 9.50175 16.2585 9.61125C16.4167 9.72075 16.8015 9.90675 17.0205 10.215C17.2402 10.5263 17.2612 10.6178 17.2245 10.788C17.1877 10.959 16.9897 11.1293 16.749 11.2238C16.5082 11.3213 15.81 11.4675 15.1792 11.4585C14.6152 11.4458 14.0527 11.4038 13.4932 11.3333C13.2862 11.2995 12.1185 11.1105 11.9325 11.0588C11.7465 11.007 10.8532 10.7873 10.4085 10.635C9.95998 10.4858 9.31123 10.26 8.94523 10.095C8.50573 9.89025 8.07973 9.65925 7.66798 9.40275C7.45123 9.2565 6.94573 8.784 6.89698 8.57325C6.83173 8.33775 6.93598 8.088 7.14973 7.9695C7.39348 7.83225 7.95148 7.692 8.41498 7.671C8.87473 7.65375 10.146 7.76325 10.146 7.76325Z" fill="white"/>
<path d="M10.146 7.76325L9.94798 7.96425C9.94798 7.96425 7.95748 7.78725 7.57648 8.0925C7.19548 8.39775 7.20448 8.4885 7.30498 8.69325C7.40548 8.898 7.75348 9.324 8.25298 9.5745C8.75023 9.82125 9.44173 10.1633 9.89923 10.3155C10.3567 10.4678 11.5455 10.8248 11.802 10.8825C12.0585 10.9403 13.4392 11.184 13.7377 11.2088C14.0362 11.2298 15.1672 11.2943 15.585 11.2298C16.0057 11.163 16.521 11.0258 16.5945 10.8825C16.6537 10.7843 16.6867 10.6718 16.689 10.5563C16.689 10.4558 16.5547 10.0838 16.146 9.843C15.7372 9.60525 14.3347 9.0075 14.3347 9.0075L14.3497 8.76375C14.3497 8.76375 16.0995 9.50175 16.2585 9.61125C16.4167 9.72075 16.8015 9.90675 17.0205 10.215C17.2402 10.5263 17.2612 10.6178 17.2245 10.788C17.1877 10.959 16.9897 11.1293 16.749 11.2238C16.5082 11.3213 15.81 11.4675 15.1792 11.4585C14.6152 11.4458 14.0527 11.4038 13.4932 11.3333C13.2862 11.2995 12.1185 11.1105 11.9325 11.0588C11.7465 11.007 10.8532 10.7873 10.4085 10.635C9.95998 10.4858 9.31123 10.26 8.94523 10.095C8.50573 9.89025 8.07973 9.65925 7.66798 9.40275C7.45123 9.2565 6.94573 8.784 6.89698 8.57325C6.83173 8.33775 6.93598 8.088 7.14973 7.9695C7.39348 7.83225 7.95148 7.692 8.41498 7.671C8.87473 7.65375 10.146 7.76325 10.146 7.76325Z" stroke="white" stroke-width="0.099525" stroke-miterlimit="3.864"/>
<path d="M10.1401 7.70548L9.93305 7.87048C9.93305 7.87048 8.1953 7.71223 7.7198 7.96498C7.29005 8.19373 7.2623 8.51698 7.3628 8.72098C7.4633 8.92498 7.7198 9.26098 8.2193 9.51073C8.71655 9.76048 9.40505 10.0995 9.86255 10.2517C10.3201 10.404 11.5088 10.761 11.7653 10.8187C12.0218 10.8765 13.4026 11.1232 13.7011 11.145C14.0003 11.1667 15.1306 11.2305 15.5483 11.166C15.9691 11.0992 16.4843 10.962 16.5578 10.8187C16.6171 10.7205 16.6501 10.608 16.6523 10.4925C16.6523 10.392 16.5181 10.02 16.1093 9.77923C15.7006 9.54148 14.4233 8.91373 14.4233 8.91373L14.4383 8.66998C14.4383 8.66998 16.0636 9.43498 16.2248 9.54523C16.3831 9.65548 16.7678 9.84073 16.9868 10.149C17.2066 10.4602 17.2276 10.5517 17.1908 10.722C17.1541 10.893 16.9561 11.0632 16.7153 11.1607C16.4746 11.2552 15.8131 11.3257 15.1816 11.316C14.6018 11.301 14.0228 11.2575 13.4468 11.1847C13.2398 11.151 12.1081 11.0047 11.9228 10.956C11.7368 10.9072 10.8188 10.7212 10.3741 10.572C9.92555 10.4197 9.2768 10.197 8.9108 10.032C8.4713 9.82723 8.0453 9.59623 7.63355 9.33973C7.4168 9.19348 6.9113 8.72098 6.86255 8.51023C6.7973 8.27473 6.90155 8.02498 7.1153 7.90648C7.35905 7.76923 7.91705 7.62898 8.38055 7.60798C8.8403 7.58998 10.1393 7.70548 10.1401 7.70548Z" fill="#C3D60B"/>
</g>
<defs>
<clipPath id="clip0_773_4101">
<rect width="24" height="24" fill="white"/>
</clipPath>
</defs>
</svg>
