<svg width="24" height="24" viewBox="0 0 24 24" fill="none" xmlns="http://www.w3.org/2000/svg">
<g clip-path="url(#clip0_773_4107)">
<path d="M21.6 2.39999H2.40002V21.6H21.6V2.39999Z" fill="white"/>
<path d="M2.40002 2.39999V21.216C2.40002 21.4282 2.57177 21.6 2.78402 21.6H21.216C21.4283 21.6 21.6 21.4282 21.6 21.216V2.39999H2.40002Z" fill="#E3191C"/>
<path d="M6.33597 14.3092C6.33597 14.3512 6.37047 14.3857 6.41247 14.3857H7.06572C7.10772 14.3857 7.14222 14.3512 7.14222 14.3092V10.047C7.14222 10.005 7.10772 9.97049 7.06572 9.97049H6.41247C6.37047 9.97049 6.33597 10.005 6.33597 10.047V11.6025C6.33597 11.6452 6.30147 11.679 6.25872 11.679H4.60797C4.56522 11.679 4.53072 11.6445 4.53072 11.6025V10.047C4.53072 10.005 4.49622 9.97049 4.45422 9.97049H3.80172C3.75972 9.97049 3.72522 10.005 3.72522 10.047V14.3092C3.72522 14.3512 3.75972 14.3857 3.80172 14.3857H4.45497C4.49697 14.3857 4.53147 14.3512 4.53147 14.3092V12.4852C4.53147 12.4425 4.56597 12.408 4.60872 12.408H6.25947C6.30222 12.408 6.33672 12.4425 6.33672 12.4852V14.3092H6.33597Z" fill="white"/>
<path d="M8.80871 10.776C8.80871 10.7332 8.84321 10.6995 8.88521 10.6995H10.8817C10.9237 10.6995 10.9582 10.665 10.9582 10.623V10.047C10.9582 10.005 10.9237 9.97049 10.8817 9.97049H8.07821C8.03621 9.97049 8.00171 10.0042 8.00171 10.047C8.00171 10.047 8.00171 10.047 8.00171 10.0477V14.31C8.00171 14.3527 8.03621 14.3872 8.07821 14.3872H10.8817C10.9245 14.3872 10.9582 14.3527 10.9582 14.31V13.734C10.9582 13.692 10.9237 13.6575 10.8817 13.6575H8.88521C8.84321 13.6575 8.80871 13.623 8.80871 13.581V12.4867C8.80871 12.444 8.84321 12.4095 8.88521 12.4095H10.536C10.578 12.4095 10.6125 12.375 10.6125 12.333V11.757C10.6125 11.7142 10.578 11.6805 10.536 11.6797H8.88521C8.84246 11.6797 8.80871 11.6452 8.80871 11.6032V10.776Z" fill="white"/>
<path d="M19.122 12.8175C19.1513 12.819 19.1768 12.7965 19.1775 12.7665C19.1783 12.7575 19.176 12.7485 19.1723 12.7402L18.6098 11.0865C18.603 11.067 18.5955 11.0565 18.585 11.0565C18.5745 11.0565 18.567 11.067 18.5603 11.0865L17.997 12.7402C17.9843 12.7665 17.9948 12.7987 18.021 12.8115C18.0293 12.8152 18.0383 12.8175 18.0473 12.8167H19.122V12.8175ZM18.963 9.96974C19.0095 9.97274 19.05 10.0027 19.0665 10.0462L20.5395 14.3085C20.5523 14.3347 20.5418 14.367 20.5155 14.3797C20.5073 14.3835 20.4983 14.3857 20.4893 14.385H19.8173C19.7708 14.382 19.7303 14.352 19.7138 14.3077L19.4768 13.6035C19.4603 13.56 19.4198 13.53 19.3733 13.527H17.796C17.7495 13.53 17.709 13.56 17.6925 13.6035L17.4555 14.3077C17.439 14.3512 17.3985 14.3812 17.352 14.385H16.68C16.6508 14.3865 16.6253 14.364 16.6245 14.334C16.6238 14.325 16.626 14.316 16.6298 14.3077L18.1028 10.0455C18.1193 10.002 18.1598 9.97199 18.2063 9.96899L18.963 9.96974Z" fill="white"/>
<path d="M13.7182 14.3092C13.6717 14.3062 13.6305 14.2762 13.6132 14.2327L12.5302 11.2927C12.516 11.253 12.507 11.2552 12.507 11.2972V14.3092C12.507 14.3512 12.4725 14.3857 12.4305 14.3857H11.7772C11.7345 14.3857 11.7 14.3512 11.7 14.3092V10.047C11.7 10.0042 11.7345 9.97049 11.7772 9.97049H12.7372C12.7837 9.97349 12.825 10.0035 12.8422 10.047L13.9005 12.9502C13.9095 12.9742 13.9155 12.9817 13.926 12.9817C13.9365 12.9817 13.9432 12.975 13.9515 12.9502L15.0097 10.047C15.027 10.0035 15.0682 9.97349 15.1147 9.97049H16.0747C16.1167 9.97049 16.1512 10.005 16.1512 10.047V14.3092C16.1512 14.3512 16.1167 14.3857 16.0747 14.3857H15.4215C15.3787 14.3857 15.345 14.3512 15.345 14.3092V11.2972C15.345 11.2545 15.336 11.253 15.3217 11.2927L14.2395 14.2327C14.2222 14.2762 14.181 14.3062 14.1337 14.3092H13.7182Z" fill="white"/>
</g>
<defs>
<clipPath id="clip0_773_4107">
<rect width="24" height="24" fill="white"/>
</clipPath>
</defs>
</svg>
