<svg width="24" height="24" viewBox="0 0 24 24" fill="none" xmlns="http://www.w3.org/2000/svg">
<g clip-path="url(#clip0_773_4108)">
<path d="M3.51078 9.53625C3.47478 9.53625 3.43503 9.5685 3.42303 9.6045L1.94328 14.3918C1.93128 14.4278 1.95153 14.46 1.98753 14.46H2.50353C2.53953 14.46 2.57928 14.4278 2.59128 14.3918L4.07103 9.6045C4.08303 9.5685 4.06278 9.53625 4.02678 9.53625H3.51078Z" fill="#5BC5F2"/>
<path d="M2.43522 9.53625C2.39922 9.53625 2.35947 9.5685 2.34747 9.6045L0.867721 14.3918C0.855721 14.4278 0.875971 14.46 0.911971 14.46H0.995971H1.05972H1.12347H1.20747C1.24347 14.46 1.28322 14.4278 1.29522 14.3918L2.77497 9.6045C2.78697 9.5685 2.76672 9.53625 2.73072 9.53625H2.43522Z" fill="#5BC5F2"/>
<path d="M1.70321 9.6045C1.71521 9.5685 1.69496 9.53625 1.65896 9.53625H1.56296C1.51871 9.53625 1.49921 9.56025 1.48271 9.6045L0.00370763 14.3918C-0.00829237 14.4278 0.0119576 14.46 0.0479576 14.46H0.140208C0.184458 14.46 0.203958 14.436 0.220458 14.3918L1.70321 9.6045Z" fill="#5BC5F2"/>
<path d="M23.943 9.53625C23.979 9.53625 24.003 9.5685 23.9993 9.60825L23.2913 14.3918C23.2875 14.4315 23.2515 14.4638 23.2155 14.4638H22.6193C22.5833 14.4638 22.539 14.436 22.5233 14.4L21.4118 12.132C21.396 12.096 21.3758 12.0998 21.372 12.1403L21.0398 14.3963C21.036 14.436 21 14.4683 20.964 14.4683H20.025C19.989 14.4683 19.965 14.436 19.9688 14.3963L20.6768 9.61275C20.6805 9.573 20.7165 9.54075 20.7525 9.54075H21.3488C21.3848 9.54075 21.429 9.5685 21.4448 9.6045L22.5563 11.8725C22.572 11.9085 22.5923 11.9048 22.596 11.8643L22.9283 9.60825C22.932 9.5685 22.968 9.53625 23.004 9.53625H23.943Z" fill="#26358C"/>
<path d="M14.5568 10.6283C14.553 10.668 14.517 10.7003 14.481 10.7003H13.6695C13.6335 10.7003 13.5975 10.7325 13.5938 10.7723L13.0575 14.3918C13.0538 14.4315 13.0178 14.4638 12.9818 14.4638H12.042C12.006 14.4638 11.982 14.4315 11.9858 14.3918L12.522 10.7723C12.5258 10.7325 12.5018 10.7003 12.4658 10.7003H11.682C11.646 10.7003 11.622 10.668 11.6258 10.6283L11.778 9.6045C11.7818 9.56475 11.8178 9.5325 11.8538 9.5325H14.649C14.685 9.5325 14.709 9.56475 14.7053 9.6045L14.5568 10.6283Z" fill="#26358C"/>
<path d="M15.1133 9.60825C15.117 9.5685 15.153 9.53625 15.189 9.53625H16.1288C16.1648 9.53625 16.1888 9.5685 16.185 9.60825L15.477 14.3918C15.4733 14.4315 15.4373 14.4638 15.4013 14.4638H14.4615C14.4255 14.4638 14.4015 14.4315 14.4053 14.3918L15.1133 9.60825Z" fill="#26358C"/>
<path d="M19.5045 9.53625H17.373C17.0813 9.53625 16.809 9.768 16.7648 10.056L16.1888 13.9395C16.1445 14.2275 16.3485 14.4593 16.641 14.4593H18.7725C19.0643 14.4593 19.3365 14.2275 19.3808 13.9395L19.9568 10.056C19.9965 9.768 19.7963 9.53625 19.5045 9.53625ZM17.4968 13.512C17.4008 13.512 17.337 13.4363 17.3528 13.344L17.7525 10.6568C17.7645 10.5645 17.8523 10.4888 17.9483 10.4888H18.6525C18.7485 10.4888 18.8123 10.5645 18.7965 10.6568L18.3968 13.344C18.3848 13.4363 18.297 13.512 18.201 13.512H17.4968Z" fill="#26358C"/>
<path d="M4.5788 10.056L3.2393 14.391C3.2273 14.427 3.24755 14.4592 3.28355 14.4592H4.22255C4.25855 14.4592 4.2983 14.427 4.3103 14.391L4.76255 12.927C4.77455 12.891 4.8143 12.8587 4.8503 12.8587H5.9183C5.9543 12.8587 5.9783 12.891 5.97455 12.9307L5.75855 14.3902C5.7548 14.43 5.7788 14.4622 5.8148 14.4622H6.75455C6.79055 14.4622 6.82655 14.43 6.8303 14.3902L7.47005 10.059C7.5143 9.77099 7.3103 9.53924 7.0178 9.53924H5.26655C4.9748 9.53624 4.66655 9.76799 4.5788 10.056ZM6.31055 10.6522L6.1343 11.8402C6.13055 11.88 6.09455 11.9122 6.05855 11.9122H5.1428C5.1068 11.9122 5.08655 11.88 5.09855 11.844L5.4668 10.6522C5.49455 10.56 5.59505 10.4842 5.69105 10.4842H6.1628C6.2588 10.4842 6.32255 10.56 6.31055 10.6522Z" fill="#26358C"/>
<path d="M10.734 13.9395C10.6897 14.2275 10.4182 14.4593 10.1257 14.4593H7.99423C7.70248 14.4593 7.49848 14.2275 7.54198 13.9395L8.11798 10.056C8.16223 9.768 8.43373 9.53625 8.72623 9.53625H10.8577C11.1495 9.53625 11.3535 9.768 11.31 10.056L11.1457 11.16C11.142 11.1998 11.106 11.232 11.07 11.232H10.1302C10.0942 11.232 10.0702 11.1998 10.074 11.16L10.1497 10.6523C10.1617 10.56 10.098 10.4843 10.0057 10.4843H9.30148C9.20548 10.4843 9.12148 10.56 9.10573 10.6523L8.70598 13.3395C8.69398 13.4318 8.75773 13.5075 8.84998 13.5075H9.55423C9.65023 13.5075 9.73423 13.4318 9.74998 13.3395L9.82573 12.8318C9.82948 12.792 9.86548 12.7598 9.90148 12.7598H10.8412C10.8772 12.7598 10.9012 12.792 10.8975 12.8318L10.734 13.9395Z" fill="#26358C"/>
</g>
<defs>
<clipPath id="clip0_773_4108">
<rect width="24" height="24" fill="white"/>
</clipPath>
</defs>
</svg>
