<svg width="24" height="24" viewBox="0 0 24 24" fill="none" xmlns="http://www.w3.org/2000/svg">
<g clip-path="url(#clip0_773_4097)">
<path d="M8.9345 2.00003C5.10522 1.99945 2.00058 5.10292 2 8.9322C1.99942 12.7615 5.10289 15.8661 8.93217 15.8667C12.7615 15.8673 15.8661 12.7638 15.8667 8.93453C15.8655 5.10641 12.7632 2.00236 8.9345 2.00003Z" fill="#E4151A"/>
<path fill-rule="evenodd" clip-rule="evenodd" d="M8.93444 2.43829C5.34787 2.43829 2.44055 5.34561 2.44055 8.93218C2.44055 12.5187 5.34787 15.4261 8.93444 15.4261C12.5198 15.4261 15.4272 12.5199 15.4283 8.93451C15.4283 5.34794 12.5216 2.43946 8.93444 2.43829Z" fill="#FBEA26"/>
<path fill-rule="evenodd" clip-rule="evenodd" d="M8.53193 9.11492L7.3853 7.96829L6.06348 9.29245V9.73713L6.39641 9.40304L7.31895 10.3279L6.97845 10.6672L7.20021 10.8902L9.0453 9.04275V8.59981L8.53193 9.11492Z" fill="#E4151A"/>
<path fill-rule="evenodd" clip-rule="evenodd" d="M3.17896 7.72745H5.22077V8.16806H4.88028V9.59349L6.06299 8.93519V10.1412H3.17896V9.69826H3.5212V8.16806H3.17896V7.72745ZM11.7886 7.72745V8.16806H12.1308V9.69826H11.7886V10.1412H14.6755V8.93519L13.4911 9.59349V8.16806H13.8333V7.72745H11.7886Z" fill="#1752A0"/>
<path fill-rule="evenodd" clip-rule="evenodd" d="M7.21636 6.35489C7.61797 6.35489 7.94333 6.68025 7.94333 7.08186C7.94333 7.48348 7.61797 7.80884 7.21636 7.80884C6.81474 7.80884 6.48938 7.48348 6.48938 7.08186C6.48938 7.08128 6.48938 7.08012 6.48938 7.07954C6.48938 6.67967 6.81358 6.35547 7.21344 6.35547C7.21461 6.35489 7.21577 6.35489 7.21636 6.35489Z" fill="#E4151A"/>
<path d="M8.70759 7.72745V8.16806H9.04867V9.69826H8.7041V10.1412H10.6476C12.091 10.1412 12.1091 7.72745 10.6516 7.72745H8.70759ZM10.2809 8.47887H10.3624C10.7884 8.47887 10.789 9.3857 10.3781 9.3857H10.2809V8.47887Z" fill="#1752A0"/>
<path d="M14.2666 21.2C18.0958 21.2 21.1999 18.0958 21.1999 14.2666C21.1999 10.4375 18.0958 7.33331 14.2666 7.33331C10.4374 7.33331 7.33325 10.4375 7.33325 14.2666C7.33325 18.0958 10.4374 21.2 14.2666 21.2Z" fill="#B01F34"/>
<path fill-rule="evenodd" clip-rule="evenodd" d="M12.9514 11.4392H11.8941L11.8562 11.6168H11.0805L11.2517 12.1872L11.8784 12.0897L12.0783 12.2657H10.6374L10.5291 12.6942H10.7626L10.8709 12.4851H12.1081L11.7056 12.9011L11.288 12.6352L11.1249 12.8107L11.4131 13.231L10.7826 15.5342L11.2084 15.3235L11.4348 15.8743L10.8931 16.7513L10.6618 16.8542L10.5026 17.3677H11.7072L11.6065 16.9885L12.3708 15.9372L12.705 16.7784L12.3442 16.9885L12.2446 17.3677H13.5901L13.6697 16.9463L13.3111 16.3748L13.7547 15.7248H14.8576L16.1576 15.0786L15.1777 16.8244L14.7985 16.9327L14.6831 17.3661H15.9831L16.0373 16.9111L16.7415 15.9063L17.229 16.4626L17.0665 16.8417L16.6483 16.9338L16.4858 17.3672H17.7446L18.0317 16.4929L17.6293 14.875L17.6255 12.8004L17.2127 12.4526L14.753 12.4559V11.8725H17.2133L17.6255 12.2013V11.4386H14.2996V12.912H17.1445V13.498H13.7824V11.7208L13.3999 11.9294L13.6708 11.1656L12.9514 11.4392Z" fill="white"/>
</g>
<defs>
<clipPath id="clip0_773_4097">
<rect width="24" height="24" fill="white"/>
</clipPath>
</defs>
</svg>
