<?xml version="1.0" encoding="UTF-8"?>
<svg id="Layer_1" xmlns="http://www.w3.org/2000/svg" xmlns:xlink="http://www.w3.org/1999/xlink" version="1.1" viewBox="0 0 24 24">
  <!-- Generator: Adobe Illustrator 30.2.1, SVG Export Plug-In . SVG Version: 2.1.1 Build 1)  -->
  <defs>
    <style>
      .st0 {
        fill: none;
      }

      .st1, .st2 {
        fill: #e4151a;
      }

      .st1, .st3, .st4 {
        fill-rule: evenodd;
      }

      .st5, .st3 {
        fill: #1752a0;
      }

      .st6 {
        fill: #fff;
      }

      .st4 {
        fill: #fbea26;
      }

      .st7 {
        clip-path: url(#clippath);
      }
    </style>
    <clipPath id="clippath">
      <rect class="st0" y="0" width="24" height="24"/>
    </clipPath>
  </defs>
  <g class="st7">
    <g>
      <path class="st6" d="M2.4,2.4v19.2h19.2V2.4H2.4Z"/>
      <path class="st2" d="M12,3.07c-4.93,0-8.93,4-8.94,8.93,0,4.93,4,8.93,8.93,8.94,4.93,0,8.93-4,8.94-8.93,0-4.93-4-8.93-8.93-8.94Z"/>
      <path class="st4" d="M12,3.63C7.38,3.63,3.63,7.38,3.63,12s3.75,8.37,8.37,8.37,8.37-3.74,8.37-8.36c0-4.62-3.75-8.37-8.37-8.37Z"/>
      <path class="st1" d="M11.48,12.24l-1.48-1.48-1.7,1.71v.57l.43-.43,1.19,1.19-.44.44.29.29,2.38-2.38v-.57l-.66.66Z"/>
      <path class="st3" d="M4.58,10.45h2.63v.57h-.44v1.84l1.52-.85v1.55h-3.72v-.57h.44v-1.97h-.44v-.57ZM15.68,10.45v.57h.44v1.97h-.44v.57h3.72v-1.55l-1.53.85v-1.84h.44v-.57h-2.63Z"/>
      <path class="st1" d="M9.79,8.68c.52,0,.94.42.94.94s-.42.94-.94.94-.94-.42-.94-.94h0c0-.52.42-.94.93-.94,0,0,0,0,0,0Z"/>
      <path class="st5" d="M11.71,10.45v.57h.44v1.97h-.44v.57h2.5c1.86,0,1.88-3.11,0-3.11h-2.5ZM13.73,11.42h.1c.55,0,.55,1.17.02,1.17h-.13v-1.17Z"/>
    </g>
  </g>
</svg>