<svg width="24" height="24" viewBox="0 0 24 24" fill="none" xmlns="http://www.w3.org/2000/svg">
<g clip-path="url(#clip0_773_4109)">
<path d="M2.88975 9.75299H1.0185V12.8895C1.0185 13.2472 0.801 13.4452 0.37425 13.4452C0.2445 13.4452 0.1215 13.4017 0 13.3417V13.7865C0.111 13.8345 0.37575 14.1622 0.37575 14.1622C0.58425 14.2522 0.81825 14.3265 1.21875 14.3265C2.139 14.3265 3.26625 13.8757 3.26625 13.1475V10.1287L2.88975 9.75299Z" fill="black"/>
<path d="M13.3462 9.75H11.5732L10.7302 11.3385L10.1527 10.1265L9.77694 9.75H7.81494V13.8652L8.18994 14.241H8.96244V12.2467L9.73344 13.8652L10.1092 14.241H10.7114L11.4817 12.6465V13.8652L11.8567 14.241H13.7212V10.125L13.3462 9.75Z" fill="black"/>
<path d="M23.352 10.7452L23.0723 10.4655C22.6148 9.97875 21.9143 9.66675 21.129 9.66675C19.7505 9.66675 18.6338 10.626 18.6338 11.808C18.6338 12.3555 18.8723 12.8542 19.266 13.233L19.629 13.5975L19.6298 13.5967C20.0873 14.0437 20.7578 14.325 21.504 14.325C22.8825 14.325 23.9993 13.3665 23.9993 12.1837C24 11.6302 23.7548 11.1255 23.352 10.7452ZM21.129 13.5442C21.1148 13.5442 21.1013 13.5435 21.0885 13.542C20.9768 13.233 20.9408 12.7537 20.9408 12.1837C20.9408 11.1712 21.0525 10.4482 21.504 10.4482C21.5175 10.4482 21.531 10.449 21.5438 10.4505C21.6555 10.7595 21.6923 11.238 21.6923 11.8087C21.693 12.8212 21.5783 13.5442 21.129 13.5442Z" fill="black"/>
<path d="M18.3991 12.222L18.0361 11.8665V11.859C18.0368 11.8598 18.0353 11.8583 18.0361 11.859C18.4036 11.7203 18.5116 11.4585 18.5116 11.133C18.5116 10.8893 18.4321 10.7018 18.2881 10.5585L17.9251 10.1963C17.5936 9.84825 16.9051 9.75375 16.0958 9.75375H14.0183V13.8713L14.3941 14.247H16.4791C18.0061 14.247 18.6601 13.791 18.6623 13.0343C18.6623 12.7223 18.6271 12.429 18.3991 12.222ZM16.2646 10.5233C16.3201 10.5233 16.3531 10.5105 16.4086 10.5105C16.5263 10.5105 16.6298 10.5263 16.7198 10.5555C16.7378 10.6178 16.7468 10.6853 16.7468 10.7588C16.7468 10.9568 16.6306 11.148 16.4423 11.2523C16.3853 11.2853 16.3253 11.3078 16.2646 11.3235V10.5233ZM16.5368 13.278C16.4483 13.3575 16.3583 13.4085 16.2646 13.4393V12.123C16.4206 12.1088 16.5578 12.1268 16.7026 12.2055C16.7701 12.3353 16.8076 12.486 16.8076 12.6495C16.8076 12.9015 16.7086 13.1235 16.5368 13.278Z" fill="black"/>
<path d="M7.13622 9.75301H6.37572V12.8333C6.37572 13.1303 6.26997 13.5098 5.87922 13.5098C5.84997 13.5098 5.82297 13.5075 5.79672 13.503C5.76972 13.407 5.75772 13.305 5.75772 13.2105L5.75847 10.128L5.38272 9.75226H3.52197V12.5183C3.52197 12.9278 3.62997 13.2518 3.85347 13.4888L3.89322 13.5285C3.89547 13.5308 3.89097 13.5263 3.89322 13.5285L4.19172 13.8218C4.47897 14.1593 4.97922 14.3325 5.71197 14.3325C7.10022 14.3325 7.51197 13.8488 7.51197 12.894V10.128L7.13622 9.75301Z" fill="black"/>
<path d="M0.00075 13.3417C0.123 13.4017 0.2445 13.4452 0.375 13.4452C0.80175 13.4452 1.01925 13.2472 1.01925 12.8895V9.75299H2.8905V12.7717C2.8905 13.5 1.76325 13.9507 0.843 13.9507C0.44325 13.9507 0.2085 13.8757 0 13.7865L0.00075 13.3417Z" fill="#FDB927"/>
<path d="M7.81494 13.8652V9.75H9.77694L10.6267 11.5342L11.5732 9.75H13.3462V13.8652H11.4817V11.4945L10.3349 13.8652H9.73344L8.58744 11.4578V13.8652H7.81494Z" fill="#FDB927"/>
<path d="M14.0183 13.8705V9.75299H16.0958C17.2336 9.75299 18.1358 9.94424 18.1358 10.7565C18.1358 11.1712 17.9566 11.4802 17.2958 11.5672C18.1861 11.6827 18.2873 12.1447 18.2858 12.657C18.2836 13.4137 17.6296 13.8697 16.1026 13.8697H14.0183M15.8888 13.4692C16.1288 13.494 16.3373 13.4565 16.5361 13.278C16.7078 13.1235 16.8068 12.9015 16.8068 12.648C16.8068 12.345 16.6793 12.0862 16.4641 11.9197C16.2646 11.7652 16.0928 11.7277 15.8881 11.7465V13.4692M15.8888 11.364C16.0771 11.358 16.2706 11.3512 16.4423 11.253C16.6306 11.148 16.7468 10.9567 16.7468 10.7595C16.7468 10.3762 16.4978 10.1362 16.0328 10.1362C15.9773 10.1362 15.9443 10.149 15.8888 10.149V11.364Z" fill="#FDB927"/>
<path d="M18.6338 11.8088C18.6338 10.626 19.7513 9.66751 21.129 9.66751C22.5068 9.66751 23.6243 10.6268 23.6243 11.8088C23.6243 12.9915 22.5068 13.95 21.129 13.95C19.7513 13.95 18.6338 12.9915 18.6338 11.8088ZM21.129 13.5443C21.5783 13.5443 21.6923 12.8213 21.6923 11.8088C21.6923 10.7963 21.5775 10.0733 21.129 10.0733C20.6775 10.0733 20.5658 10.7963 20.5658 11.8088C20.5658 12.8213 20.6783 13.5443 21.129 13.5443Z" fill="#FDB927"/>
<path d="M5.87922 13.5097C5.49147 13.5097 5.38272 13.1325 5.38272 12.8355L5.38347 9.75299H3.52197V12.519C3.52197 13.4632 4.09872 13.9575 5.33622 13.9575C6.72447 13.9575 7.13622 13.4737 7.13622 12.519V9.75299H6.37572V12.8332C6.37572 13.1302 6.26922 13.5097 5.87922 13.5097Z" fill="#FDB927"/>
<path d="M0.00075 13.3417C0.123 13.4017 0.2445 13.4452 0.375 13.4452C0.80175 13.4452 1.01925 13.2472 1.01925 12.8895V9.75299H2.8905V12.7717C2.8905 13.5 1.76325 13.9507 0.843 13.9507C0.44325 13.9507 0.2085 13.8757 0 13.7865L0.00075 13.3417Z" fill="#FFC425"/>
<path d="M7.81494 13.8652V9.75H9.77694L10.6267 11.5342L11.5732 9.75H13.3462V13.8652H11.4817V11.4945L10.3349 13.8652H9.73344L8.58744 11.4578V13.8652H7.81494Z" fill="#FFC425"/>
<path d="M14.0183 13.8705V9.75299H16.0958C17.2336 9.75299 18.1358 9.94424 18.1358 10.7565C18.1358 11.1712 17.9566 11.4802 17.2958 11.5672C18.1861 11.6827 18.2873 12.1447 18.2858 12.657C18.2836 13.4137 17.6296 13.8697 16.1026 13.8697H14.0183M15.8888 13.4692C16.1288 13.494 16.3373 13.4565 16.5361 13.278C16.7078 13.1235 16.8068 12.9015 16.8068 12.648C16.8068 12.345 16.6793 12.0862 16.4641 11.9197C16.2646 11.7652 16.0928 11.7277 15.8881 11.7465V13.4692M15.8888 11.364C16.0771 11.358 16.2706 11.3512 16.4423 11.253C16.6306 11.148 16.7468 10.9567 16.7468 10.7595C16.7468 10.3762 16.4978 10.1362 16.0328 10.1362C15.9773 10.1362 15.9443 10.149 15.8888 10.149V11.364Z" fill="#FFC425"/>
<path d="M18.6338 11.8088C18.6338 10.626 19.7513 9.66751 21.129 9.66751C22.5068 9.66751 23.6243 10.6268 23.6243 11.8088C23.6243 12.9915 22.5068 13.95 21.129 13.95C19.7513 13.95 18.6338 12.9915 18.6338 11.8088ZM21.129 13.5443C21.5783 13.5443 21.6923 12.8213 21.6923 11.8088C21.6923 10.7963 21.5775 10.0733 21.129 10.0733C20.6775 10.0733 20.5658 10.7963 20.5658 11.8088C20.5658 12.8213 20.6783 13.5443 21.129 13.5443Z" fill="#FFC425"/>
<path d="M5.87922 13.5097C5.49147 13.5097 5.38272 13.1325 5.38272 12.8355L5.38347 9.75299H3.52197V12.519C3.52197 13.4632 4.09872 13.9575 5.33622 13.9575C6.72447 13.9575 7.13622 13.4737 7.13622 12.519V9.75299H6.37572V12.8332C6.37572 13.1302 6.26922 13.5097 5.87922 13.5097Z" fill="#FFC425"/>
</g>
<defs>
<clipPath id="clip0_773_4109">
<rect width="24" height="24" fill="white"/>
</clipPath>
</defs>
</svg>
