<svg width="24" height="24" viewBox="0 0 24 24" fill="none" xmlns="http://www.w3.org/2000/svg">
<g clip-path="url(#clip0_773_4102)">
<path d="M21.6 18.6007C21.6 20.256 20.256 21.6 18.6008 21.6H5.39927C3.74402 21.6 2.40002 20.256 2.40002 18.6007V5.39924C2.40002 3.74399 3.74402 2.39999 5.39927 2.39999H18.6015C20.256 2.39999 21.6 3.74399 21.6 5.39924V18.6007Z" fill="#004896"/>
<path d="M17.0423 8.625C17.0423 11.409 14.784 13.6627 12.0045 13.6627C9.22055 13.6627 6.9668 11.4045 6.9668 8.625C6.9668 5.841 9.22505 3.58725 12.0045 3.58725C14.7878 3.5865 17.0423 5.84475 17.0423 8.625Z" fill="#EF7C00"/>
<path d="M9.17029 10.848L9.17404 10.8517C9.17029 10.8517 9.17029 10.848 9.17029 10.848Z" fill="white"/>
<path d="M9.21223 10.8938C9.20473 10.8863 9.18898 10.8705 9.17773 10.8593C9.19273 10.875 9.20473 10.8863 9.21223 10.8938Z" fill="white"/>
<path d="M4.71151 6.81227C4.76926 6.77402 8.45176 6.71252 8.65126 6.81977C8.85076 6.92702 8.01751 7.05002 6.01351 6.97727C4.01251 6.90452 4.71151 6.81227 4.71151 6.81227Z" fill="white"/>
<path d="M3.99 7.82176C4.05525 7.77601 8.133 7.66801 8.352 7.79851C8.571 7.92901 7.64925 8.09026 5.43 8.01376C3.21375 7.93726 3.99 7.82176 3.99 7.82176Z" fill="white"/>
<path d="M5.16454 8.97826C5.22229 8.94751 8.91229 8.78251 9.12004 8.86276C9.32329 8.94376 8.49379 9.06976 6.48229 9.06976C4.46629 9.07426 5.16454 8.97826 5.16454 8.97826Z" fill="white"/>
<path d="M16.3087 7.08074C15.1987 6.82349 12.342 6.44324 10.641 6.58124C12.1462 6.71549 14.7112 6.93074 16.0822 7.38749C16.155 7.28474 16.3125 7.21949 16.3087 7.08074Z" fill="white"/>
<path d="M15.471 7.92224C13.9658 7.57649 13.1363 7.20449 10.3523 7.23074L10.794 7.26899C12.2378 7.47224 13.824 7.56074 15.1253 8.22524L15.2408 8.34074C15.3983 8.23649 15.441 8.08724 15.471 7.92224Z" fill="white"/>
<path d="M10.3027 8.10599C10.1917 8.12549 11.3737 8.29049 11.685 8.34374C12.4417 8.47049 13.29 8.69324 14.031 8.96174C14.2612 9.04274 14.6835 9.31124 14.8102 8.98499C14.8642 8.84699 14.5492 8.75474 14.211 8.66624C14.2155 8.66699 12.0885 8.07524 10.3027 8.10599Z" fill="white"/>
<path d="M15.5325 5.91751L15.4058 6.00226L14.3385 7.71526C14.2005 7.95751 13.6665 8.46001 13.6665 8.75626C13.9695 8.70601 14.3888 7.97701 14.55 7.78501C15.03 7.21276 15.387 6.68701 15.852 6.08026C15.8708 5.92876 15.6405 5.97151 15.5325 5.91751Z" fill="white"/>
<path d="M14.4885 5.802L14.2005 5.82525C13.8855 6.432 13.356 7.215 13.0335 7.86075L12.738 8.5095C13.2683 7.90275 14.124 6.5085 14.5508 5.8635L14.4885 5.802Z" fill="white"/>
<path d="M15.2137 5.71425C14.58 5.64525 13.8352 5.69475 13.194 5.66025C13.194 5.66025 10.395 5.79075 10.0912 5.88675C9.91048 5.9445 10.053 6.00225 10.4947 6.02475C10.8285 6.04425 11.3587 6.0285 11.3587 6.0285C11.451 6.01725 11.8155 6.0285 11.8155 6.0285C11.8155 6.0285 13.6665 6.0555 14.3842 6.0285C14.8447 6.05175 15.294 6.105 15.7245 6.2055L15.6862 6.24C15.7822 6.22875 15.9592 6.25125 16.0702 6.309C16.4085 6.47025 16.3732 6.83475 16.155 7.06575C15.579 7.67625 15.2062 8.11425 14.619 8.83575L14.742 9.093L15.1837 8.667C16.0552 7.79175 16.5202 7.38825 16.9192 6.432C16.992 6.2595 17.0917 5.9175 15.2137 5.71425Z" fill="white"/>
<path d="M12.8182 5.802L12.6802 5.81325C12.534 6.2085 12.3112 6.5505 12.1657 6.9765C12.1657 6.9765 11.5897 8.163 11.6857 8.34H11.751C12.1117 7.82175 12.519 6.47025 12.945 5.97825C12.9712 5.883 12.9097 5.814 12.8182 5.802Z" fill="white"/>
<path d="M15.2138 5.71425C14.5801 5.64525 13.1941 5.66025 13.1941 5.66025C13.1941 5.66025 10.3951 5.79075 10.0913 5.88675" fill="white"/>
<path d="M14.085 11.4352C13.9545 11.4855 13.5855 11.4427 13.6125 11.193C13.6395 10.9245 13.9815 10.8435 14.1465 10.9627C14.3077 11.082 14.2425 11.3737 14.085 11.4352ZM9.89922 11.232C9.84147 11.3662 9.65697 11.4967 9.47697 11.424C9.32697 11.3625 9.33522 11.1937 9.36147 11.0782C9.40347 10.8862 9.68022 10.7055 9.86097 10.848C9.88047 10.863 9.89547 10.8787 9.91122 10.8982C9.91497 10.902 9.91497 10.902 9.91122 10.8982C9.97272 10.9942 9.93822 11.1472 9.89922 11.232ZM14.5342 10.7752C14.5342 10.7752 14.4457 10.6987 14.3617 10.668C14.3347 10.6567 14.3077 10.6485 14.277 10.6372C12.699 10.1152 10.3867 10.2952 9.47697 10.545C9.39597 10.4947 9.39222 10.4107 9.39597 10.3297C9.47697 9.06224 9.97197 9.31199 11.8612 9.43124C13.1167 9.51224 14.8522 9.88049 14.9295 9.89174C15.0022 9.90299 15.0022 9.77249 14.9565 9.69974C14.7645 9.37349 13.4782 9.27374 13.1175 9.23474C12.7875 9.20024 11.7585 9.07724 11.7585 9.07724L10.1685 8.93099C10.1452 8.76599 9.57747 6.70349 9.51147 6.53849C9.16197 5.67449 8.78172 4.44974 7.46847 4.44974C6.76197 4.44974 6.65847 4.84499 6.79272 4.94924C6.91572 5.04149 7.50297 4.59224 8.01372 4.91849C8.79297 5.40974 9.13872 6.56174 9.19272 6.78449C9.23472 6.96524 9.76122 8.78924 9.65322 8.90399C9.29997 9.28799 9.08472 9.74474 9.04647 10.1325C9.03147 10.305 9.09672 10.7662 9.09672 10.7662C9.00072 11.0085 8.83197 11.1885 8.97747 11.484C9.11172 11.73 9.31947 11.7915 9.56097 11.7832C9.62997 11.7795 9.94122 11.8027 10.2022 11.5065C10.4557 11.2222 10.3252 10.896 10.2945 10.7925C11.0662 10.731 13.0935 10.7467 13.3282 10.8997C13.2435 11.0685 13.2172 11.3947 13.3282 11.5755C13.5277 11.8942 13.812 11.979 14.1502 11.8747C14.4457 11.7862 14.58 11.6212 14.6805 11.2987C14.7607 11.055 14.688 10.9057 14.5342 10.7752Z" fill="white"/>
<path d="M14.6423 18.2437C14.6655 18.2325 14.6805 18.2055 14.6805 18.1785L14.6768 17.5717C14.6768 17.5447 14.6535 17.5215 14.6265 17.5215C14.6033 17.5215 14.331 17.514 14.1735 17.5252C14.016 17.5365 13.8548 17.5672 13.77 17.6595C13.7048 17.7322 13.6508 17.886 13.6853 18.036C13.7085 18.132 13.7775 18.2167 13.8735 18.2587C13.9808 18.3007 14.154 18.3127 14.2883 18.3045C14.427 18.2902 14.619 18.255 14.6423 18.2437ZM14.646 16.9072C14.6693 16.9035 14.6843 16.884 14.6843 16.8615V16.854C14.688 16.827 14.6843 16.7925 14.6843 16.7775C14.6693 16.5435 14.4998 16.4475 14.2853 16.4205C14.1008 16.3972 13.9283 16.413 13.7475 16.44C13.6515 16.455 13.5555 16.4745 13.4595 16.494C13.4018 16.5052 13.3328 16.5322 13.275 16.5322H13.2713H13.26C13.2143 16.5285 13.1715 16.494 13.1603 16.4512L13.053 15.9787C13.053 15.975 13.053 15.9712 13.053 15.9675C13.053 15.9217 13.08 15.879 13.122 15.8602L13.1295 15.8565C13.191 15.8257 13.5023 15.7605 13.5863 15.741C13.755 15.7065 13.9283 15.687 14.1008 15.6757C14.1968 15.6682 14.2965 15.6682 14.3963 15.672C14.661 15.6795 14.9303 15.7372 15.1605 15.8715C15.387 16.0057 15.525 16.248 15.5753 16.5435C15.5985 16.6972 15.5948 17.0692 15.5948 17.0692V18.4245C15.5948 18.4245 15.5985 18.6127 15.5753 18.678C15.537 18.7815 15.414 18.8242 15.3023 18.8625C15.1868 18.9045 15.06 18.939 14.9453 18.9585C14.8148 18.9817 14.6843 19.0042 14.55 19.0125C14.3468 19.0275 14.1083 19.0275 13.9013 19.0162C13.8323 19.0125 13.767 19.0012 13.698 18.993C13.3103 18.939 12.999 18.7777 12.849 18.486C12.7988 18.3862 12.7643 18.2557 12.7493 18.129C12.7343 17.9872 12.7493 17.8372 12.78 17.7142C12.8648 17.3572 13.122 17.1112 13.4595 16.992C13.5668 16.9537 13.6785 16.9305 13.7933 16.9192C14.1353 16.8847 14.6423 16.9072 14.646 16.9072Z" fill="white"/>
<path d="M6.7777 14.634C4.7617 14.634 4.8997 16.8188 4.8997 16.8188C4.8997 16.8188 4.7272 19.0035 6.7777 19.0035C8.8282 19.0035 8.65945 16.8188 8.65945 16.8188C8.65945 16.8188 8.7937 14.634 6.7777 14.634ZM7.6762 16.8195C7.6762 16.8195 7.7377 18.156 6.7777 18.156C5.82145 18.156 5.8792 16.8195 5.8792 16.8195C5.8792 16.8195 5.8642 15.483 6.7777 15.483C7.68745 15.4793 7.6762 16.8195 7.6762 16.8195Z" fill="white"/>
<path d="M16.7002 18.543C16.746 18.6848 16.8772 18.789 17.034 18.789H17.1067C17.1337 18.789 17.157 18.8123 17.157 18.8393L17.046 19.1925C17.046 19.1925 16.9575 19.5 16.8345 19.5915C16.7535 19.653 16.6312 19.6725 16.5082 19.6725H15.9472C15.855 19.6725 15.7822 19.7453 15.7822 19.8375V20.2718C15.7822 20.364 15.855 20.4368 15.9472 20.4368H16.266H16.6732C16.854 20.4368 17.0302 20.4098 17.157 20.3558C17.2725 20.3055 17.364 20.2523 17.4525 20.1713C17.61 20.025 17.6902 19.833 17.7945 19.557C17.898 19.284 19.0537 15.8168 19.0537 15.8168C19.0575 15.8093 19.0575 15.8018 19.0575 15.7935C19.0575 15.7395 19.0155 15.6975 18.9615 15.6975H18.2355C18.159 15.6975 18.0975 15.7478 18.078 15.8168L17.448 17.9558C17.4405 17.9753 17.4247 17.9903 17.4022 17.9903C17.3797 17.9903 17.3602 17.9753 17.3565 17.9558L16.7692 15.8325C16.7542 15.756 16.6882 15.702 16.608 15.702H15.867C15.813 15.702 15.771 15.744 15.771 15.798C15.771 15.8055 15.771 15.8175 15.7747 15.825L16.7002 18.543Z" fill="white"/>
<path d="M9.04346 14.8725C9.04346 14.796 9.10871 14.7307 9.18521 14.7307H9.84221C9.92321 14.7307 9.98396 14.796 9.98396 14.8725V16.3507C9.98396 16.3777 10.0035 16.3965 10.0297 16.3965C10.0447 16.3965 10.0605 16.389 10.068 16.377L11.2582 14.8642C11.3235 14.7832 11.4232 14.7337 11.5312 14.7337H12.3375C12.3915 14.7337 12.4335 14.7757 12.4335 14.8297C12.4335 14.853 12.426 14.8717 12.414 14.8912L11.304 16.212C11.289 16.227 11.2807 16.2502 11.2807 16.2772C11.2807 16.2922 11.2845 16.308 11.292 16.323L12.6862 18.8385C12.69 18.8497 12.6937 18.8617 12.6937 18.873C12.6937 18.927 12.6517 18.969 12.5977 18.969H11.8605C11.73 18.969 11.6182 18.9 11.5575 18.792L10.6477 17.079C10.6402 17.0677 10.6245 17.0557 10.6095 17.0557C10.5982 17.0557 10.5862 17.0595 10.575 17.067L10.0185 17.7352C9.99521 17.7622 9.98021 17.8005 9.98021 17.8387L9.98396 18.822C9.98396 18.8985 9.91871 18.9637 9.84221 18.9637H9.18521C9.10871 18.9637 9.04346 18.8985 9.04346 18.822V14.8725Z" fill="white"/>
</g>
<defs>
<clipPath id="clip0_773_4102">
<rect width="24" height="24" fill="white"/>
</clipPath>
</defs>
</svg>
