<svg width="24" height="24" viewBox="0 0 24 24" fill="none" xmlns="http://www.w3.org/2000/svg">
<g clip-path="url(#clip0_773_4110)">
<path fill-rule="evenodd" clip-rule="evenodd" d="M0.0742188 14.0498H4.68597V9.70126H0.0742188V14.0498Z" fill="#84BF41"/>
<path d="M4.761 14.124H0V9.62625H4.761V14.124ZM0.14925 13.9748H4.6125V9.7755H0.14925V13.9748Z" fill="#FFFFFE"/>
<path fill-rule="evenodd" clip-rule="evenodd" d="M4.94995 14.0498H9.5617V9.70126H4.94995V14.0498Z" fill="#84BF41"/>
<path d="M9.63673 14.124H4.87573V9.62625H9.63673V14.124ZM5.02498 13.9748H9.48823V9.7755H5.02498V13.9748Z" fill="#FFFFFE"/>
<path fill-rule="evenodd" clip-rule="evenodd" d="M9.69373 14.0498H14.3055V9.70126H9.69373V14.0498Z" fill="#84BF41"/>
<path d="M14.3805 14.124H9.61951V9.62625H14.3805V14.124ZM9.76876 13.9748H14.232V9.7755H9.76876V13.9748Z" fill="#FFFFFE"/>
<path fill-rule="evenodd" clip-rule="evenodd" d="M19.3132 14.0498H23.925V9.70126H19.3132V14.0498Z" fill="#84BF41"/>
<path d="M24 14.124H19.239V9.62625H24V14.124ZM19.3883 13.9748H23.8515V9.7755H19.3883V13.9748Z" fill="#FFFFFE"/>
<path fill-rule="evenodd" clip-rule="evenodd" d="M3.1215 11.112H3.114C3.02625 11.4218 2.92725 11.7278 2.81775 12.0308L2.49825 12.9563H2.03475L1.75425 12.0413C1.66275 11.7345 1.58325 11.4248 1.5165 11.112H1.50825C1.49625 11.4398 1.482 11.7668 1.4655 12.0938L1.4145 12.9945H0.864746L1.032 10.6223H1.8225L2.07975 11.4143C2.16675 11.6933 2.241 11.976 2.30175 12.2625H2.3175C2.39025 11.976 2.4735 11.6918 2.56725 11.4113L2.844 10.623H3.62325L3.7635 12.9953H3.1875L3.14475 12.0878C3.1305 11.7623 3.12225 11.4375 3.1215 11.112ZM7.45425 11.985L7.29225 11.4818C7.2465 11.3408 7.2 11.1653 7.161 11.0243H7.1535C7.11525 11.1653 7.07625 11.3445 7.03425 11.4818L6.8805 11.985H7.45425ZM6.795 12.3863L6.60975 12.9953H6.0045L6.795 10.623H7.566L8.376 12.9953H7.74L7.539 12.3863H6.795ZM11.6205 11.0738H10.8795V10.623H12.9877V11.0738H12.2385V12.9953H11.6197V11.0738" fill="#FFFFFE"/>
<path fill-rule="evenodd" clip-rule="evenodd" d="M19.1813 12.5745L14.9078 13.5217L13.9103 9.46199L18.1838 8.51474L19.1813 12.5745Z" fill="#D8232A"/>
<path d="M14.8529 13.611L13.8202 9.4065L18.2392 8.427L19.2719 12.6315L14.8529 13.611ZM14.0009 9.51825L14.9632 13.4333L19.0912 12.5183L18.1289 8.60325L14.0009 9.51825Z" fill="#FFFFFE"/>
<path fill-rule="evenodd" clip-rule="evenodd" d="M17.8635 11.9055C17.7697 11.9753 17.5357 12.0878 17.22 12.156C16.3125 12.3533 15.7125 11.9258 15.5377 11.229C15.3285 10.395 15.852 9.79501 16.6462 9.62251C16.9545 9.55576 17.2012 9.55876 17.3197 9.59101L17.304 10.0538C17.1757 10.032 16.9972 10.0253 16.7827 10.0718C16.3155 10.173 16.0162 10.5173 16.152 11.0618C16.275 11.5515 16.6635 11.7923 17.1892 11.6775C17.3722 11.6378 17.559 11.5628 17.6677 11.4893L17.8635 11.9055ZM21.1125 10.623V11.5343H22.1257V10.623H22.7392V12.9953H22.1257V12.003H21.1125V12.9953H20.499V10.623H21.1125Z" fill="#FFFFFE"/>
<path fill-rule="evenodd" clip-rule="evenodd" d="M14.064 14.9025C15.177 15.2587 15.573 15.399 16.2653 15.4747C18.1118 15.6765 19.473 14.5755 19.9373 13.6335C19.9748 13.5607 19.9785 13.5457 19.9628 13.5262C19.9628 13.5262 19.9388 13.5045 19.875 13.5577C18.2573 14.8912 16.074 15.135 14.0715 14.853C14.0565 14.8492 14.0438 14.8582 14.0423 14.8732C14.04 14.886 14.0505 14.8995 14.064 14.9025Z" fill="#D8232A"/>
<path d="M16.7085 15.5737C16.5623 15.5737 16.4115 15.5655 16.2578 15.549C15.6143 15.4785 15.2295 15.3547 14.2995 15.0562L14.0438 14.9745C14.019 14.9677 13.9965 14.9512 13.983 14.9295C13.9703 14.9092 13.9658 14.886 13.9695 14.8635C13.9725 14.8372 13.986 14.814 14.007 14.7982C14.0303 14.781 14.0603 14.775 14.0888 14.7817C17.0423 15.1972 18.8408 14.3145 19.8278 13.5015C19.9358 13.4115 20.001 13.4617 20.013 13.4722L20.0205 13.4797C20.07 13.5397 20.0393 13.599 20.004 13.6687C19.6073 14.472 18.4268 15.5737 16.7085 15.5737ZM14.5755 14.988C15.3338 15.2302 15.7005 15.3375 16.2735 15.4005C18.087 15.5985 19.3575 14.5245 19.8195 13.698C18.8513 14.4577 17.1908 15.2377 14.5755 14.988ZM14.0618 14.9272C14.0625 14.9272 14.064 14.928 14.0655 14.928C14.064 14.9272 14.0625 14.9272 14.0618 14.9272Z" fill="#FFFFFE"/>
</g>
<defs>
<clipPath id="clip0_773_4110">
<rect width="24" height="24" fill="white"/>
</clipPath>
</defs>
</svg>
