<svg width="24" height="24" viewBox="0 0 24 24" fill="none" xmlns="http://www.w3.org/2000/svg">
<g clip-path="url(#clip0_876_5981)">
<path d="M20 8.95576V17.4769C20 18.3183 19.3 18.9981 18.438 18.9981H6.562C5.698 18.9981 5 18.3164 5 17.4769V6.52115C5 5.68169 5.7 5 6.562 5H15C15.172 5 15.312 5.13634 15.312 5.30384C15.312 5.47134 15.172 5.60768 15 5.60768H6.562C6.044 5.60768 5.624 6.01669 5.624 6.52115V17.4769C5.624 17.9814 6.044 18.3904 6.562 18.3904H18.438C18.956 18.3904 19.376 17.9814 19.376 17.4769V8.95576C19.376 8.78826 19.516 8.65192 19.688 8.65192C19.86 8.65192 20 8.78826 20 8.95576ZM16.876 7.13077H7.5C7.328 7.13077 7.188 7.26711 7.188 7.43461V14.4346L10.376 10.2958C10.494 10.1419 10.758 10.1419 10.876 10.2958L13.65 13.8971L15.362 11.2307C15.484 11.0398 15.77 11.0398 15.892 11.2307L17.814 14.2262V8.04424C17.814 7.87674 17.954 7.7404 18.126 7.7404C18.298 7.7404 18.438 7.87674 18.438 8.04424V16.5654C18.438 17.0698 18.018 17.4789 17.5 17.4789H7.5C6.982 17.4789 6.562 17.0698 6.562 16.5654V7.43461C6.562 6.93016 6.982 6.52115 7.5 6.52115H16.876C17.048 6.52115 17.188 6.65748 17.188 6.82499C17.188 6.99249 17.048 7.12883 16.876 7.12883V7.13077ZM7.188 15.4474V16.5634C7.188 16.7309 7.328 16.8673 7.5 16.8673H17.5C17.672 16.8673 17.812 16.7309 17.812 16.5634V15.3715L15.624 11.963L13.236 15.685C13.144 15.8272 12.952 15.872 12.806 15.7824C12.66 15.6928 12.616 15.5058 12.706 15.3637L13.294 14.4482L10.626 10.9853L7.188 15.4474ZM13.762 7.64496C14.624 7.64496 15.324 8.32666 15.324 9.16611C15.324 10.0056 14.624 10.6873 13.762 10.6873C12.9 10.6873 12.2 10.0056 12.2 9.16611C12.2 8.32666 12.9 7.64496 13.762 7.64496ZM13.762 8.25459C13.244 8.25459 12.824 8.66361 12.824 9.16806C12.824 9.67251 13.244 10.0815 13.762 10.0815C14.28 10.0815 14.7 9.67251 14.7 9.16806C14.7 8.66361 14.28 8.25459 13.762 8.25459Z" fill="black"/>
<path d="M5 15.0423V6.52115C5 5.68169 5.7 5 6.562 5H18.438C19.302 5 20 5.68169 20 6.52115V17.4769C20 18.3183 19.3 18.9981 18.438 18.9981H10C9.828 18.9981 9.688 18.8617 9.688 18.6942C9.688 18.5267 9.828 18.3904 10 18.3904H18.438C18.956 18.3904 19.376 17.9814 19.376 17.4769V6.52115C19.376 6.01669 18.956 5.60768 18.438 5.60768H6.562C6.044 5.60768 5.624 6.01669 5.624 6.52115V15.0423C5.624 15.2098 5.484 15.3461 5.312 15.3461C5.14 15.3461 5 15.2117 5 15.0423ZM7.188 7.43461V15.9558C7.188 16.1233 7.048 16.2596 6.876 16.2596C6.704 16.2596 6.564 16.1233 6.564 15.9558V7.43461C6.564 6.93016 6.984 6.52115 7.502 6.52115H17.502C18.02 6.52115 18.44 6.93016 18.44 7.43461V16.5654C18.44 17.0698 18.02 17.4789 17.502 17.4789H8.124C7.952 17.4789 7.812 17.3425 7.812 17.175C7.812 17.0075 7.952 16.8712 8.124 16.8712H17.5C17.672 16.8712 17.812 16.7348 17.812 16.5673V7.43461M17.812 7.43461C17.812 7.26711 17.672 7.13077 17.5 7.13077H7.5C7.328 7.13077 7.188 7.26711 7.188 7.43461" fill="black"/>
</g>
<defs>
<clipPath id="clip0_876_5981">
<rect width="15" height="14" fill="white" transform="translate(5 5)"/>
</clipPath>
</defs>
</svg>
