<svg width="24" height="24" viewBox="0 0 24 24" fill="none" xmlns="http://www.w3.org/2000/svg">
<path d="M9.4 2H2.5C2.224 2 2 2.224 2 2.5V9.4C2 9.676 2.224 9.9 2.5 9.9H9.4C9.676 9.9 9.9 9.676 9.9 9.4V2.5C9.9 2.224 9.676 2 9.4 2ZM8.9 8.9H3V3H8.9V8.9ZM22 14.6V18C22 18.276 21.776 18.5 21.5 18.5C21.224 18.5 21 18.276 21 18V15.1H17.2C16.924 15.1 16.7 14.876 16.7 14.6V13.3C16.7 13.024 16.924 12.8 17.2 12.8C17.476 12.8 17.7 13.024 17.7 13.3V14.1H19.7V12C19.7 11.724 19.924 11.5 20.2 11.5C20.476 11.5 20.7 11.724 20.7 12V14.1H21.5C21.776 14.1 22 14.323 22 14.6ZM22 21.5C22 21.776 21.776 22 21.5 22H14.6C14.324 22 14.1 21.776 14.1 21.5C14.1 21.224 14.324 21 14.6 21H21.5C21.776 21 22 21.224 22 21.5ZM5.1 7.3H6.8C7.076 7.3 7.3 7.076 7.3 6.8V5.1C7.3 4.824 7.076 4.6 6.8 4.6H5.1C4.824 4.6 4.6 4.824 4.6 5.1V6.8C4.6 7.077 4.824 7.3 5.1 7.3ZM5.6 5.6H6.3V6.3H5.6V5.6ZM21.5 2H14.6C14.324 2 14.1 2.224 14.1 2.5V9.4C14.1 9.676 14.324 9.9 14.6 9.9H21.5C21.776 9.9 22 9.676 22 9.4V2.5C22 2.224 21.776 2 21.5 2ZM21 8.9H15.1V3H21V8.9ZM17.2 7.3H18.9C19.176 7.3 19.4 7.076 19.4 6.8V5.1C19.4 4.824 19.176 4.6 18.9 4.6H17.2C16.924 4.6 16.7 4.824 16.7 5.1V6.8C16.7 7.077 16.924 7.3 17.2 7.3ZM17.7 5.6H18.4V6.3H17.7V5.6ZM9.4 14.101H2.5C2.224 14.101 2 14.325 2 14.601V21.5C2 21.776 2.224 22 2.5 22H9.4C9.676 22 9.9 21.776 9.9 21.5V14.601C9.9 14.324 9.676 14.101 9.4 14.101ZM8.9 21H3V15.101H8.9V21ZM5.1 19.4H6.8C7.076 19.4 7.3 19.176 7.3 18.9V17.2C7.3 16.924 7.076 16.7 6.8 16.7H5.1C4.824 16.7 4.6 16.924 4.6 17.2V18.9C4.6 19.177 4.824 19.4 5.1 19.4ZM5.6 17.7H6.3V18.4H5.6V17.7ZM18.9 19.4C19.176 19.4 19.4 19.176 19.4 18.9V17.2C19.4 16.924 19.176 16.7 18.9 16.7H17.2C16.924 16.7 16.7 16.924 16.7 17.2V18.9C16.7 19.176 16.924 19.4 17.2 19.4H18.9ZM17.7 17.7H18.4V18.4H17.7V17.7ZM14.2 16.8H12.9V18C12.9 18.276 12.676 18.5 12.4 18.5C12.124 18.5 11.9 18.276 11.9 18V16.3C11.9 16.024 12.124 15.8 12.4 15.8H13.7V12C13.7 11.724 13.924 11.5 14.2 11.5C14.476 11.5 14.7 11.724 14.7 12V16.3C14.7 16.576 14.477 16.8 14.2 16.8ZM12.4 6.9H11.1C10.824 6.9 10.6 6.676 10.6 6.4C10.6 6.124 10.824 5.9 11.1 5.9H11.9V4.2C11.9 3.924 12.124 3.7 12.4 3.7C12.676 3.7 12.9 3.924 12.9 4.2V6.4C12.9 6.677 12.676 6.9 12.4 6.9ZM2 12V11.1C2 10.824 2.224 10.6 2.5 10.6C2.776 10.6 3 10.824 3 11.1V11.5H5.1C5.376 11.5 5.6 11.724 5.6 12C5.6 12.276 5.376 12.5 5.1 12.5H2.5C2.224 12.5 2 12.276 2 12Z" fill="#0D2A50"/>
</svg>
